Caladea-Bold.ufo
<glyph name="exclam" format="1">
  <advance width="335"/>
  <unicode hex="0021"/>
  <outline>
    <contour>
      <point x="200" y="222" type="line"/>
      <point x="211" y="352"/>
      <point x="255" y="536"/>
      <point x="255" y="605" type="curve" smooth="yes"/>
      <point x="255" y="655"/>
      <point x="235" y="690"/>
      <point x="163" y="690" type="curve" smooth="yes"/>
      <point x="126" y="690"/>
      <point x="102" y="670"/>
      <point x="95" y="655" type="curve"/>
      <point x="113" y="593"/>
      <point x="122" y="497"/>
      <point x="122" y="405" type="curve" smooth="yes"/>
      <point x="122" y="333"/>
      <point x="117" y="257"/>
      <point x="115" y="206" type="curve"/>
    </contour>
    <contour>
      <point x="154" y="131" type="curve" smooth="yes"/>
      <point x="101" y="131"/>
      <point x="75" y="105"/>
      <point x="75" y="61" type="curve" smooth="yes"/>
      <point x="75" y="16"/>
      <point x="101" y="-9"/>
      <point x="154" y="-9" type="curve" smooth="yes"/>
      <point x="208" y="-9"/>
      <point x="234" y="16"/>
      <point x="234" y="61" type="curve" smooth="yes"/>
      <point x="234" y="105"/>
      <point x="208" y="131"/>
    </contour>
  </outline>
</glyph>
<glyph name="quotedbl" format="1">
  <advance width="422"/>
  <unicode hex="0022"/>
  <outline>
    <contour>
      <point x="98" y="460" type="curve"/>
      <point x="150" y="460" type="line"/>
      <point x="150" y="460"/>
      <point x="178" y="617"/>
      <point x="178" y="650" type="curve" smooth="yes"/>
      <point x="178" y="683"/>
      <point x="154" y="703"/>
      <point x="123" y="703" type="curve" smooth="yes"/>
      <point x="93" y="703"/>
      <point x="70" y="683"/>
      <point x="70" y="650" type="curve" smooth="yes"/>
      <point x="70" y="616"/>
      <point x="98" y="460"/>
    </contour>
    <contour>
      <point x="272" y="460" type="curve"/>
      <point x="324" y="460" type="line"/>
      <point x="324" y="460"/>
      <point x="352" y="617"/>
      <point x="352" y="650" type="curve" smooth="yes"/>
      <point x="352" y="683"/>
      <point x="328" y="703"/>
      <point x="297" y="703" type="curve" smooth="yes"/>
      <point x="267" y="703"/>
      <point x="244" y="683"/>
      <point x="244" y="650" type="curve" smooth="yes"/>
      <point x="244" y="616"/>
      <point x="272" y="460"/>
    </contour>
  </outline>
</glyph>
<glyph name="numbersign" format="1">
  <advance width="618"/>
  <unicode hex="0023"/>
  <outline>
    <contour>
      <point x="84" y="346" type="line"/>
      <point x="178" y="346" type="line"/>
      <point x="154" y="237" type="line"/>
      <point x="44" y="237" type="line"/>
      <point x="32" y="157" type="line"/>
      <point x="137" y="157" type="line"/>
      <point x="103" y="0" type="line"/>
      <point x="181" y="-18" type="line"/>
      <point x="219" y="157" type="line"/>
      <point x="328" y="157" type="line"/>
      <point x="294" y="0" type="line"/>
      <point x="372" y="-18" type="line"/>
      <point x="410" y="157" type="line"/>
      <point x="521" y="157" type="line"/>
      <point x="533" y="237" type="line"/>
      <point x="427" y="237" type="line"/>
      <point x="451" y="346" type="line"/>
      <point x="573" y="346" type="line"/>
      <point x="585" y="426" type="line"/>
      <point x="468" y="426" type="line"/>
      <point x="500" y="570" type="line"/>
      <point x="422" y="588" type="line"/>
      <point x="387" y="426" type="line"/>
      <point x="277" y="426" type="line"/>
      <point x="309" y="570" type="line"/>
      <point x="231" y="588" type="line"/>
      <point x="196" y="426" type="line"/>
      <point x="96" y="426" type="line"/>
    </contour>
    <contour>
      <point x="260" y="346" type="line"/>
      <point x="369" y="346" type="line"/>
      <point x="345" y="237" type="line"/>
      <point x="236" y="237" type="line"/>
    </contour>
  </outline>
</glyph>
<glyph name="dollar" format="1">
  <advance width="543"/>
  <unicode hex="0024"/>
  <outline>
    <contour>
      <point x="317" y="-62" type="line"/>
      <point x="317" y="35" type="line"/>
      <point x="422" y="47"/>
      <point x="488" y="110"/>
      <point x="488" y="201" type="curve" smooth="yes"/>
      <point x="488" y="299"/>
      <point x="437" y="348"/>
      <point x="317" y="403" type="curve"/>
      <point x="317" y="586" type="line"/>
      <point x="355" y="580"/>
      <point x="379" y="561"/>
      <point x="379" y="535" type="curve" smooth="yes"/>
      <point x="379" y="517"/>
      <point x="371" y="498"/>
      <point x="357" y="482" type="curve"/>
      <point x="380" y="463"/>
      <point x="401" y="455"/>
      <point x="424" y="455" type="curve" smooth="yes"/>
      <point x="458" y="455"/>
      <point x="481" y="481"/>
      <point x="481" y="520" type="curve" smooth="yes"/>
      <point x="481" y="578"/>
      <point x="410" y="625"/>
      <point x="317" y="633" type="curve"/>
      <point x="317" y="737" type="line"/>
      <point x="271" y="743" type="line"/>
      <point x="257" y="735" type="line"/>
      <point x="257" y="633" type="line"/>
      <point x="153" y="622"/>
      <point x="81" y="557"/>
      <point x="81" y="474" type="curve" smooth="yes"/>
      <point x="81" y="381"/>
      <point x="129" y="335"/>
      <point x="257" y="288" type="curve"/>
      <point x="257" y="82" type="line"/>
      <point x="213" y="88"/>
      <point x="184" y="115"/>
      <point x="184" y="152" type="curve" smooth="yes"/>
      <point x="184" y="165"/>
      <point x="187" y="178"/>
      <point x="192" y="191" type="curve"/>
      <point x="182" y="209"/>
      <point x="162" y="220"/>
      <point x="139" y="220" type="curve" smooth="yes"/>
      <point x="99" y="220"/>
      <point x="70" y="191"/>
      <point x="70" y="150" type="curve" smooth="yes"/>
      <point x="70" y="77"/>
      <point x="134" y="38"/>
      <point x="257" y="33" type="curve"/>
      <point x="257" y="-64" type="line"/>
      <point x="307" y="-73" type="line"/>
    </contour>
    <contour>
      <point x="199" y="517" type="curve" smooth="yes"/>
      <point x="199" y="549"/>
      <point x="221" y="574"/>
      <point x="257" y="584" type="curve"/>
      <point x="257" y="430" type="line"/>
      <point x="213" y="454"/>
      <point x="199" y="479"/>
    </contour>
    <contour>
      <point x="363" y="163" type="curve" smooth="yes"/>
      <point x="363" y="129"/>
      <point x="345" y="102"/>
      <point x="317" y="89" type="curve"/>
      <point x="317" y="254" type="line"/>
      <point x="348" y="230"/>
      <point x="363" y="200"/>
    </contour>
  </outline>
</glyph>
<glyph name="percent" format="1">
  <advance width="976"/>
  <unicode hex="0025"/>
  <outline>
    <contour>
      <point x="227" y="296" type="curve" smooth="yes"/>
      <point x="185" y="296"/>
      <point x="167" y="341"/>
      <point x="167" y="462" type="curve" smooth="yes"/>
      <point x="167" y="583"/>
      <point x="185" y="629"/>
      <point x="227" y="629" type="curve" smooth="yes"/>
      <point x="269" y="629"/>
      <point x="288" y="582"/>
      <point x="288" y="462" type="curve" smooth="yes"/>
      <point x="288" y="342"/>
      <point x="269" y="296"/>
    </contour>
    <contour>
      <point x="227" y="253" type="curve" smooth="yes"/>
      <point x="333" y="253"/>
      <point x="392" y="327"/>
      <point x="392" y="462" type="curve" smooth="yes"/>
      <point x="392" y="596"/>
      <point x="333" y="669"/>
      <point x="227" y="669" type="curve" smooth="yes"/>
      <point x="121" y="669"/>
      <point x="62" y="596"/>
      <point x="62" y="462" type="curve" smooth="yes"/>
      <point x="62" y="327"/>
      <point x="121" y="253"/>
    </contour>
    <contour>
      <point x="749" y="33" type="curve" smooth="yes"/>
      <point x="707" y="33"/>
      <point x="689" y="78"/>
      <point x="689" y="199" type="curve" smooth="yes"/>
      <point x="689" y="320"/>
      <point x="707" y="366"/>
      <point x="749" y="366" type="curve" smooth="yes"/>
      <point x="791" y="366"/>
      <point x="810" y="319"/>
      <point x="810" y="199" type="curve" smooth="yes"/>
      <point x="810" y="79"/>
      <point x="791" y="33"/>
    </contour>
    <contour>
      <point x="749" y="-10" type="curve" smooth="yes"/>
      <point x="855" y="-10"/>
      <point x="914" y="64"/>
      <point x="914" y="199" type="curve" smooth="yes"/>
      <point x="914" y="333"/>
      <point x="855" y="406"/>
      <point x="749" y="406" type="curve" smooth="yes"/>
      <point x="643" y="406"/>
      <point x="584" y="333"/>
      <point x="584" y="199" type="curve" smooth="yes"/>
      <point x="584" y="64"/>
      <point x="643" y="-10"/>
    </contour>
    <contour>
      <point x="360" y="-30" type="line"/>
      <point x="681" y="652" type="line"/>
      <point x="615" y="684" type="line"/>
      <point x="294" y="2" type="line"/>
    </contour>
  </outline>
</glyph>
<glyph name="ampersand" format="1">
  <advance width="740"/>
  <unicode hex="0026"/>
  <outline>
    <contour>
      <point x="32" y="196" type="curve" smooth="yes"/>
      <point x="32" y="64"/>
      <point x="168" y="-6"/>
      <point x="316" y="-6" type="curve" smooth="yes"/>
      <point x="523" y="-6"/>
      <point x="620" y="123"/>
      <point x="620" y="275" type="curve" smooth="yes"/>
      <point x="620" y="313"/>
      <point x="614" y="351"/>
      <point x="602" y="390" type="curve"/>
      <point x="685" y="402"/>
      <point x="726" y="433"/>
      <point x="726" y="488" type="curve" smooth="yes"/>
      <point x="726" y="524"/>
      <point x="698" y="549"/>
      <point x="656" y="549" type="curve" smooth="yes"/>
      <point x="632" y="549"/>
      <point x="609" y="542"/>
      <point x="593" y="530" type="curve"/>
      <point x="605" y="519"/>
      <point x="612" y="504"/>
      <point x="612" y="488" type="curve" smooth="yes"/>
      <point x="612" y="456"/>
      <point x="586" y="443"/>
      <point x="521" y="443" type="curve" smooth="yes"/>
      <point x="397" y="443"/>
      <point x="346" y="401"/>
      <point x="346" y="339" type="curve" smooth="yes"/>
      <point x="346" y="298"/>
      <point x="375" y="269"/>
      <point x="416" y="269" type="curve" smooth="yes"/>
      <point x="440" y="269"/>
      <point x="461" y="276"/>
      <point x="478" y="288" type="curve"/>
      <point x="468" y="300"/>
      <point x="463" y="317"/>
      <point x="463" y="332" type="curve" smooth="yes"/>
      <point x="463" y="355"/>
      <point x="474" y="376"/>
      <point x="500" y="378" type="curve"/>
      <point x="513" y="340"/>
      <point x="520" y="300"/>
      <point x="520" y="261" type="curve" smooth="yes"/>
      <point x="520" y="148"/>
      <point x="461" y="47"/>
      <point x="325" y="47" type="curve" smooth="yes"/>
      <point x="248" y="47"/>
      <point x="179" y="94"/>
      <point x="179" y="200" type="curve" smooth="yes"/>
      <point x="179" y="279"/>
      <point x="233" y="332"/>
      <point x="312" y="344" type="curve"/>
      <point x="312" y="427" type="line"/>
      <point x="249" y="429"/>
      <point x="229" y="478"/>
      <point x="229" y="528" type="curve" smooth="yes"/>
      <point x="229" y="583"/>
      <point x="255" y="623"/>
      <point x="307" y="623" type="curve" smooth="yes"/>
      <point x="349" y="623"/>
      <point x="378" y="598"/>
      <point x="378" y="559" type="curve" smooth="yes"/>
      <point x="378" y="543"/>
      <point x="373" y="524"/>
      <point x="362" y="504" type="curve"/>
      <point x="380" y="487"/>
      <point x="400" y="480"/>
      <point x="420" y="480" type="curve" smooth="yes"/>
      <point x="469" y="480"/>
      <point x="503" y="523"/>
      <point x="503" y="567" type="curve" smooth="yes"/>
      <point x="503" y="659"/>
      <point x="376" y="687"/>
      <point x="302" y="687" type="curve" smooth="yes"/>
      <point x="189" y="687"/>
      <point x="81" y="633"/>
      <point x="81" y="518" type="curve" smooth="yes"/>
      <point x="81" y="452"/>
      <point x="115" y="409"/>
      <point x="166" y="386" type="curve"/>
      <point x="78" y="356"/>
      <point x="32" y="295"/>
    </contour>
  </outline>
</glyph>
<glyph name="quotesingle" format="1">
  <advance width="251"/>
  <unicode hex="0027"/>
  <outline>
    <contour>
      <point x="98" y="460" type="curve"/>
      <point x="150" y="460" type="line"/>
      <point x="150" y="460"/>
      <point x="178" y="617"/>
      <point x="178" y="650" type="curve" smooth="yes"/>
      <point x="178" y="683"/>
      <point x="154" y="703"/>
      <point x="123" y="703" type="curve" smooth="yes"/>
      <point x="93" y="703"/>
      <point x="70" y="683"/>
      <point x="70" y="650" type="curve" smooth="yes"/>
      <point x="70" y="616"/>
      <point x="98" y="460"/>
    </contour>
  </outline>
</glyph>
<glyph name="parenleft" format="1">
  <advance width="408"/>
  <unicode hex="0028"/>
  <outline>
    <contour>
      <point x="379" y="-139" type="line"/>
      <point x="277" y="-41"/>
      <point x="210" y="95"/>
      <point x="210" y="283" type="curve" smooth="yes"/>
      <point x="210" y="471"/>
      <point x="277" y="607"/>
      <point x="379" y="705" type="curve"/>
      <point x="354" y="730" type="line"/>
      <point x="354" y="730"/>
      <point x="93" y="581"/>
      <point x="93" y="282" type="curve" smooth="yes"/>
      <point x="93" y="-17"/>
      <point x="354" y="-165"/>
      <point x="354" y="-165" type="curve"/>
    </contour>
  </outline>
</glyph>
<glyph name="parenright" format="1">
  <advance width="408"/>
  <unicode hex="0029"/>
  <outline>
    <contour>
      <point x="54" y="-165" type="line"/>
      <point x="54" y="-165"/>
      <point x="315" y="-17"/>
      <point x="315" y="282" type="curve" smooth="yes"/>
      <point x="315" y="581"/>
      <point x="54" y="730"/>
      <point x="54" y="730" type="curve"/>
      <point x="29" y="705" type="line"/>
      <point x="131" y="607"/>
      <point x="198" y="471"/>
      <point x="198" y="283" type="curve" smooth="yes"/>
      <point x="198" y="95"/>
      <point x="131" y="-41"/>
      <point x="29" y="-139" type="curve"/>
    </contour>
  </outline>
</glyph>
<glyph name="asterisk" format="1">
  <advance width="453"/>
  <unicode hex="002A"/>
  <outline>
    <contour>
      <point x="192" y="408" type="curve"/>
      <point x="203" y="427"/>
      <point x="192" y="456"/>
      <point x="214" y="504" type="curve"/>
      <point x="249" y="429"/>
      <point x="216" y="389"/>
      <point x="267" y="389" type="curve" smooth="yes"/>
      <point x="288" y="389"/>
      <point x="305" y="405"/>
      <point x="305" y="425" type="curve" smooth="yes"/>
      <point x="305" y="462"/>
      <point x="268" y="457"/>
      <point x="228" y="512" type="curve"/>
      <point x="276" y="507"/>
      <point x="300" y="484"/>
      <point x="323" y="484" type="curve" smooth="yes"/>
      <point x="344" y="484"/>
      <point x="360" y="500"/>
      <point x="360" y="521" type="curve" smooth="yes"/>
      <point x="360" y="542"/>
      <point x="344" y="557"/>
      <point x="323" y="557" type="curve" smooth="yes"/>
      <point x="301" y="557"/>
      <point x="277" y="534"/>
      <point x="229" y="529" type="curve"/>
      <point x="265" y="579"/>
      <point x="305" y="579"/>
      <point x="305" y="615" type="curve" smooth="yes"/>
      <point x="305" y="634"/>
      <point x="289" y="651"/>
      <point x="268" y="651" type="curve" smooth="yes"/>
      <point x="218" y="651"/>
      <point x="245" y="606"/>
      <point x="214" y="538" type="curve"/>
      <point x="184" y="604"/>
      <point x="211" y="651"/>
      <point x="160" y="651" type="curve" smooth="yes"/>
      <point x="140" y="651"/>
      <point x="123" y="634"/>
      <point x="123" y="617" type="curve" smooth="yes"/>
      <point x="123" y="580"/>
      <point x="162" y="580"/>
      <point x="200" y="528" type="curve"/>
      <point x="148" y="533"/>
      <point x="128" y="557"/>
      <point x="105" y="557" type="curve" smooth="yes"/>
      <point x="84" y="557"/>
      <point x="69" y="542"/>
      <point x="69" y="521" type="curve" smooth="yes"/>
      <point x="69" y="500"/>
      <point x="84" y="484"/>
      <point x="105" y="484" type="curve" smooth="yes"/>
      <point x="128" y="484"/>
      <point x="148" y="507"/>
      <point x="199" y="512" type="curve"/>
      <point x="161" y="456"/>
      <point x="123" y="462"/>
      <point x="123" y="424" type="curve" smooth="yes"/>
      <point x="123" y="406"/>
      <point x="140" y="389"/>
      <point x="160" y="389" type="curve" smooth="yes"/>
      <point x="172" y="389"/>
      <point x="184" y="396"/>
    </contour>
  </outline>
</glyph>
<glyph name="plus" format="1">
  <advance width="592"/>
  <unicode hex="002B"/>
  <outline>
    <contour>
      <point x="91" y="238" type="line"/>
      <point x="244" y="238" type="line"/>
      <point x="244" y="82" type="line"/>
      <point x="344" y="82" type="line"/>
      <point x="344" y="238" type="line"/>
      <point x="500" y="238" type="line"/>
      <point x="500" y="333" type="line"/>
      <point x="344" y="333" type="line"/>
      <point x="344" y="490" type="line"/>
      <point x="244" y="490" type="line"/>
      <point x="244" y="333" type="line"/>
      <point x="91" y="333" type="line"/>
    </contour>
  </outline>
</glyph>
<glyph name="comma" format="1">
  <advance width="232"/>
  <unicode hex="002C"/>
  <outline>
    <contour>
      <point x="57" y="23" type="curve"/>
      <point x="64" y="26"/>
      <point x="71" y="28"/>
      <point x="77" y="28" type="curve" smooth="yes"/>
      <point x="92" y="28"/>
      <point x="103" y="18"/>
      <point x="103" y="-2" type="curve" smooth="yes"/>
      <point x="103" y="-33"/>
      <point x="76" y="-74"/>
      <point x="34" y="-105" type="curve"/>
      <point x="62" y="-140" type="line"/>
      <point x="144" y="-93"/>
      <point x="187" y="-28"/>
      <point x="187" y="53" type="curve" smooth="yes"/>
      <point x="187" y="105"/>
      <point x="161" y="140"/>
      <point x="104" y="140" type="curve" smooth="yes"/>
      <point x="62" y="140"/>
      <point x="35" y="107"/>
      <point x="35" y="77" type="curve" smooth="yes"/>
      <point x="35" y="55"/>
      <point x="42" y="37"/>
    </contour>
  </outline>
</glyph>
<glyph name="period" format="1">
  <advance width="232"/>
  <unicode hex="002E"/>
  <outline>
    <contour>
      <point x="117" y="149" type="curve" smooth="yes"/>
      <point x="69" y="149"/>
      <point x="47" y="120"/>
      <point x="47" y="72" type="curve" smooth="yes"/>
      <point x="47" y="27"/>
      <point x="69" y="-4"/>
      <point x="117" y="-4" type="curve" smooth="yes"/>
      <point x="165" y="-4"/>
      <point x="187" y="25"/>
      <point x="187" y="72" type="curve" smooth="yes"/>
      <point x="187" y="119"/>
      <point x="165" y="149"/>
    </contour>
  </outline>
</glyph>
<glyph name="slash" format="1">
  <advance width="505"/>
  <unicode hex="002F"/>
  <outline>
    <contour>
      <point x="141" y="-140" type="line"/>
      <point x="451" y="672" type="line"/>
      <point x="377" y="700" type="line"/>
      <point x="67" y="-112" type="line"/>
    </contour>
  </outline>
</glyph>
<glyph name="zero" format="1">
  <advance width="592"/>
  <unicode hex="0030"/>
  <outline>
    <contour>
      <point x="296" y="48" type="curve" smooth="yes"/>
      <point x="229" y="48"/>
      <point x="200" y="127"/>
      <point x="200" y="336" type="curve" smooth="yes"/>
      <point x="200" y="546"/>
      <point x="229" y="626"/>
      <point x="296" y="626" type="curve" smooth="yes"/>
      <point x="363" y="626"/>
      <point x="392" y="545"/>
      <point x="392" y="336" type="curve" smooth="yes"/>
      <point x="392" y="128"/>
      <point x="363" y="48"/>
    </contour>
    <contour>
      <point x="296" y="-7" type="curve" smooth="yes"/>
      <point x="452" y="-7"/>
      <point x="538" y="114"/>
      <point x="538" y="336" type="curve" smooth="yes"/>
      <point x="538" y="557"/>
      <point x="452" y="677"/>
      <point x="296" y="677" type="curve" smooth="yes"/>
      <point x="140" y="677"/>
      <point x="53" y="556"/>
      <point x="53" y="336" type="curve" smooth="yes"/>
      <point x="53" y="115"/>
      <point x="140" y="-7"/>
    </contour>
  </outline>
</glyph>
<glyph name="one" format="1">
  <advance width="592"/>
  <unicode hex="0031"/>
  <outline>
    <contour>
      <point x="103" y="0" type="line"/>
      <point x="511" y="0" type="line"/>
      <point x="514" y="48" type="line"/>
      <point x="491" y="50"/>
      <point x="418" y="62"/>
      <point x="389" y="78" type="curve"/>
      <point x="389" y="656" type="line"/>
      <point x="356" y="671" type="line"/>
      <point x="287" y="640"/>
      <point x="187" y="621"/>
      <point x="107" y="615" type="curve"/>
      <point x="107" y="557" type="line"/>
      <point x="241" y="557" type="line"/>
      <point x="241" y="78" type="line"/>
      <point x="209" y="64"/>
      <point x="161" y="54"/>
      <point x="105" y="48" type="curve"/>
    </contour>
  </outline>
</glyph>
<glyph name="two" format="1">
  <advance width="592"/>
  <unicode hex="0032"/>
  <outline>
    <contour>
      <point x="243" y="98" type="line"/>
      <point x="430" y="268"/>
      <point x="505" y="380"/>
      <point x="505" y="486" type="curve" smooth="yes"/>
      <point x="505" y="561"/>
      <point x="470" y="620"/>
      <point x="406" y="652" type="curve" smooth="yes"/>
      <point x="372" y="669"/>
      <point x="330" y="678"/>
      <point x="280" y="678" type="curve" smooth="yes"/>
      <point x="145" y="678"/>
      <point x="61" y="609"/>
      <point x="61" y="516" type="curve" smooth="yes"/>
      <point x="61" y="456"/>
      <point x="101" y="428"/>
      <point x="145" y="428" type="curve" smooth="yes"/>
      <point x="173" y="428"/>
      <point x="203" y="440"/>
      <point x="226" y="462" type="curve"/>
      <point x="212" y="480"/>
      <point x="205" y="499"/>
      <point x="205" y="519" type="curve" smooth="yes"/>
      <point x="205" y="575"/>
      <point x="233" y="621"/>
      <point x="277" y="621" type="curve" smooth="yes"/>
      <point x="327" y="621"/>
      <point x="349" y="581"/>
      <point x="349" y="513" type="curve" smooth="yes"/>
      <point x="349" y="378"/>
      <point x="275" y="267"/>
      <point x="59" y="58" type="curve"/>
      <point x="59" y="0" type="line"/>
      <point x="512" y="0" type="line"/>
      <point x="512" y="98" type="line"/>
    </contour>
  </outline>
</glyph>
<glyph name="three" format="1">
  <advance width="592"/>
  <unicode hex="0033"/>
  <outline>
    <contour>
      <point x="200" y="319" type="line"/>
      <point x="301" y="319"/>
      <point x="359" y="268"/>
      <point x="359" y="182" type="curve" smooth="yes"/>
      <point x="359" y="96"/>
      <point x="326" y="63"/>
      <point x="273" y="63" type="curve" smooth="yes"/>
      <point x="218" y="63"/>
      <point x="195" y="95"/>
      <point x="195" y="135" type="curve" smooth="yes"/>
      <point x="195" y="150"/>
      <point x="197" y="166"/>
      <point x="204" y="181" type="curve"/>
      <point x="182" y="198"/>
      <point x="158" y="208"/>
      <point x="135" y="208" type="curve" smooth="yes"/>
      <point x="93" y="208"/>
      <point x="58" y="181"/>
      <point x="58" y="130" type="curve" smooth="yes"/>
      <point x="58" y="41"/>
      <point x="159" y="-8"/>
      <point x="273" y="-8" type="curve" smooth="yes"/>
      <point x="391" y="-8"/>
      <point x="524" y="52"/>
      <point x="524" y="181" type="curve" smooth="yes"/>
      <point x="524" y="270"/>
      <point x="489" y="326"/>
      <point x="376" y="351" type="curve"/>
      <point x="463" y="379"/>
      <point x="507" y="433"/>
      <point x="507" y="508" type="curve" smooth="yes"/>
      <point x="507" y="609"/>
      <point x="417" y="678"/>
      <point x="286" y="678" type="curve" smooth="yes"/>
      <point x="194" y="678"/>
      <point x="64" y="636"/>
      <point x="64" y="529" type="curve" smooth="yes"/>
      <point x="64" y="481"/>
      <point x="93" y="443"/>
      <point x="148" y="443" type="curve" smooth="yes"/>
      <point x="175" y="443"/>
      <point x="201" y="453"/>
      <point x="220" y="473" type="curve"/>
      <point x="211" y="490"/>
      <point x="206" y="511"/>
      <point x="206" y="532" type="curve" smooth="yes"/>
      <point x="206" y="577"/>
      <point x="228" y="621"/>
      <point x="280" y="621" type="curve" smooth="yes"/>
      <point x="318" y="621"/>
      <point x="347" y="590"/>
      <point x="347" y="508" type="curve" smooth="yes"/>
      <point x="347" y="428"/>
      <point x="295" y="389"/>
      <point x="200" y="381" type="curve"/>
    </contour>
  </outline>
</glyph>
<glyph name="four" format="1">
  <advance width="592"/>
  <unicode hex="0034"/>
  <outline>
    <contour>
      <point x="320" y="181" type="line"/>
      <point x="320" y="64" type="line"/>
      <point x="291" y="47"/>
      <point x="260" y="41"/>
      <point x="228" y="37" type="curve"/>
      <point x="222" y="0" type="line"/>
      <point x="532" y="0" type="line"/>
      <point x="537" y="37" type="line"/>
      <point x="508" y="41"/>
      <point x="477" y="47"/>
      <point x="450" y="64" type="curve"/>
      <point x="450" y="183" type="line"/>
      <point x="545" y="183" type="line"/>
      <point x="545" y="255" type="line"/>
      <point x="450" y="255" type="line"/>
      <point x="450" y="667" type="line"/>
      <point x="307" y="667" type="line"/>
      <point x="25" y="215" type="line"/>
      <point x="32" y="181" type="line"/>
    </contour>
    <contour>
      <point x="320" y="527" type="line"/>
      <point x="320" y="253" type="line"/>
      <point x="155" y="253" type="line"/>
    </contour>
  </outline>
</glyph>
<glyph name="five" format="1">
  <advance width="592"/>
  <unicode hex="0035"/>
  <outline>
    <contour>
      <point x="98" y="643" type="line"/>
      <point x="98" y="359" type="line"/>
      <point x="153" y="306" type="line"/>
      <point x="189" y="328"/>
      <point x="237" y="348"/>
      <point x="280" y="348" type="curve" smooth="yes"/>
      <point x="336" y="348"/>
      <point x="383" y="313"/>
      <point x="383" y="207" type="curve" smooth="yes"/>
      <point x="383" y="110"/>
      <point x="352" y="62"/>
      <point x="293" y="62" type="curve" smooth="yes"/>
      <point x="237" y="62"/>
      <point x="214" y="97"/>
      <point x="214" y="137" type="curve" smooth="yes"/>
      <point x="214" y="152"/>
      <point x="217" y="167"/>
      <point x="223" y="181" type="curve"/>
      <point x="203" y="198"/>
      <point x="177" y="208"/>
      <point x="153" y="208" type="curve" smooth="yes"/>
      <point x="113" y="208"/>
      <point x="77" y="182"/>
      <point x="77" y="125" type="curve" smooth="yes"/>
      <point x="77" y="47"/>
      <point x="169" y="-8"/>
      <point x="293" y="-8" type="curve" smooth="yes"/>
      <point x="446" y="-8"/>
      <point x="537" y="85"/>
      <point x="537" y="207" type="curve" smooth="yes"/>
      <point x="537" y="355"/>
      <point x="427" y="418"/>
      <point x="317" y="418" type="curve" smooth="yes"/>
      <point x="283" y="418"/>
      <point x="250" y="413"/>
      <point x="219" y="405" type="curve"/>
      <point x="219" y="572" type="line"/>
      <point x="495" y="572" type="line"/>
      <point x="504" y="648" type="line"/>
      <point x="475" y="669" type="line"/>
      <point x="400" y="668"/>
      <point x="326" y="667"/>
      <point x="293" y="667" type="curve" smooth="yes"/>
      <point x="252" y="667"/>
      <point x="220" y="668"/>
      <point x="131" y="670" type="curve"/>
    </contour>
  </outline>
</glyph>
<glyph name="six" format="1">
  <advance width="592"/>
  <unicode hex="0036"/>
  <outline>
    <contour>
      <point x="462" y="631" type="curve"/>
      <point x="438" y="681" type="line"/>
      <point x="208" y="622"/>
      <point x="58" y="457"/>
      <point x="58" y="246" type="curve" smooth="yes"/>
      <point x="58" y="80"/>
      <point x="145" y="-11"/>
      <point x="304" y="-11" type="curve" smooth="yes"/>
      <point x="445" y="-11"/>
      <point x="544" y="70"/>
      <point x="544" y="186" type="curve" smooth="yes"/>
      <point x="544" y="309"/>
      <point x="462" y="386"/>
      <point x="329" y="386" type="curve" smooth="yes"/>
      <point x="294" y="386"/>
      <point x="254" y="375"/>
      <point x="220" y="358" type="curve"/>
      <point x="252" y="510"/>
      <point x="322" y="570"/>
    </contour>
    <contour>
      <point x="301" y="316" type="curve" smooth="yes"/>
      <point x="363" y="316"/>
      <point x="399" y="268"/>
      <point x="399" y="185" type="curve" smooth="yes"/>
      <point x="399" y="104"/>
      <point x="367" y="58"/>
      <point x="310" y="58" type="curve" smooth="yes"/>
      <point x="241" y="58"/>
      <point x="210" y="123"/>
      <point x="210" y="269" type="curve" smooth="yes"/>
      <point x="210" y="282" type="line"/>
      <point x="244" y="305"/>
      <point x="273" y="316"/>
    </contour>
  </outline>
</glyph>
<glyph name="seven" format="1">
  <advance width="592"/>
  <unicode hex="0037"/>
  <outline>
    <contour>
      <point x="398" y="578" type="line"/>
      <point x="159" y="0" type="line"/>
      <point x="304" y="0" type="line"/>
      <point x="552" y="616" type="line"/>
      <point x="522" y="668" type="line"/>
      <point x="481" y="668"/>
      <point x="390" y="667"/>
      <point x="294" y="667" type="curve" smooth="yes"/>
      <point x="180" y="667"/>
      <point x="113" y="668"/>
      <point x="79" y="668" type="curve"/>
      <point x="63" y="653" type="line"/>
      <point x="63" y="636"/>
      <point x="84" y="536"/>
      <point x="91" y="481" type="curve"/>
      <point x="104" y="479"/>
      <point x="117" y="478"/>
      <point x="130" y="478" type="curve" smooth="yes"/>
      <point x="143" y="478"/>
      <point x="155" y="479"/>
      <point x="167" y="481" type="curve"/>
      <point x="169" y="515"/>
      <point x="173" y="548"/>
      <point x="181" y="578" type="curve"/>
    </contour>
  </outline>
</glyph>
<glyph name="eight" format="1">
  <advance width="592"/>
  <unicode hex="0038"/>
  <outline>
    <contour>
      <point x="522" y="513" type="curve" smooth="yes"/>
      <point x="522" y="615"/>
      <point x="433" y="679"/>
      <point x="293" y="679" type="curve" smooth="yes"/>
      <point x="154" y="679"/>
      <point x="65" y="611"/>
      <point x="65" y="505" type="curve" smooth="yes"/>
      <point x="65" y="431"/>
      <point x="106" y="388"/>
      <point x="160" y="358" type="curve"/>
      <point x="89" y="310"/>
      <point x="46" y="245"/>
      <point x="46" y="182" type="curve" smooth="yes"/>
      <point x="46" y="61"/>
      <point x="138" y="-7"/>
      <point x="302" y="-7" type="curve" smooth="yes"/>
      <point x="451" y="-7"/>
      <point x="546" y="70"/>
      <point x="546" y="191" type="curve" smooth="yes"/>
      <point x="546" y="283"/>
      <point x="484" y="330"/>
      <point x="413" y="364" type="curve"/>
      <point x="478" y="398"/>
      <point x="522" y="458"/>
    </contour>
    <contour>
      <point x="406" y="187" type="curve" smooth="yes"/>
      <point x="406" y="109"/>
      <point x="367" y="62"/>
      <point x="302" y="62" type="curve" smooth="yes"/>
      <point x="235" y="62"/>
      <point x="194" y="110"/>
      <point x="194" y="188" type="curve" smooth="yes"/>
      <point x="194" y="245"/>
      <point x="211" y="285"/>
      <point x="252" y="317" type="curve"/>
      <point x="331" y="287"/>
      <point x="406" y="257"/>
    </contour>
    <contour>
      <point x="207" y="514" type="curve" smooth="yes"/>
      <point x="207" y="572"/>
      <point x="240" y="608"/>
      <point x="293" y="608" type="curve" smooth="yes"/>
      <point x="344" y="608"/>
      <point x="378" y="571"/>
      <point x="378" y="514" type="curve" smooth="yes"/>
      <point x="378" y="468"/>
      <point x="356" y="425"/>
      <point x="323" y="403" type="curve"/>
      <point x="259" y="430"/>
      <point x="207" y="459"/>
    </contour>
  </outline>
</glyph>
<glyph name="nine" format="1">
  <advance width="592"/>
  <unicode hex="0039"/>
  <outline>
    <contour>
      <point x="127" y="34" type="curve"/>
      <point x="151" y="-16" type="line"/>
      <point x="381" y="43"/>
      <point x="531" y="208"/>
      <point x="531" y="419" type="curve" smooth="yes"/>
      <point x="531" y="585"/>
      <point x="444" y="676"/>
      <point x="285" y="676" type="curve" smooth="yes"/>
      <point x="144" y="676"/>
      <point x="45" y="595"/>
      <point x="45" y="479" type="curve" smooth="yes"/>
      <point x="45" y="356"/>
      <point x="127" y="279"/>
      <point x="260" y="279" type="curve" smooth="yes"/>
      <point x="295" y="279"/>
      <point x="335" y="290"/>
      <point x="369" y="307" type="curve"/>
      <point x="337" y="155"/>
      <point x="267" y="95"/>
    </contour>
    <contour>
      <point x="288" y="349" type="curve" smooth="yes"/>
      <point x="226" y="349"/>
      <point x="190" y="397"/>
      <point x="190" y="480" type="curve" smooth="yes"/>
      <point x="190" y="561"/>
      <point x="222" y="607"/>
      <point x="279" y="607" type="curve" smooth="yes"/>
      <point x="348" y="607"/>
      <point x="379" y="542"/>
      <point x="379" y="396" type="curve" smooth="yes"/>
      <point x="379" y="383" type="line"/>
      <point x="345" y="360"/>
      <point x="316" y="349"/>
    </contour>
  </outline>
</glyph>
<glyph name="colon" format="1">
  <advance width="280"/>
  <unicode hex="003A"/>
  <outline>
    <contour>
      <point x="149" y="146" type="curve" smooth="yes"/>
      <point x="101" y="146"/>
      <point x="79" y="117"/>
      <point x="79" y="69" type="curve" smooth="yes"/>
      <point x="79" y="24"/>
      <point x="101" y="-7"/>
      <point x="149" y="-7" type="curve" smooth="yes"/>
      <point x="197" y="-7"/>
      <point x="219" y="22"/>
      <point x="219" y="69" type="curve" smooth="yes"/>
      <point x="219" y="116"/>
      <point x="197" y="146"/>
    </contour>
    <contour>
      <point x="149" y="461" type="curve" smooth="yes"/>
      <point x="101" y="461"/>
      <point x="79" y="432"/>
      <point x="79" y="384" type="curve" smooth="yes"/>
      <point x="79" y="339"/>
      <point x="101" y="308"/>
      <point x="149" y="308" type="curve" smooth="yes"/>
      <point x="197" y="308"/>
      <point x="219" y="337"/>
      <point x="219" y="384" type="curve" smooth="yes"/>
      <point x="219" y="431"/>
      <point x="197" y="461"/>
    </contour>
  </outline>
</glyph>
<glyph name="semicolon" format="1">
  <advance width="280"/>
  <unicode hex="003B"/>
  <outline>
    <contour>
      <point x="149" y="461" type="curve" smooth="yes"/>
      <point x="101" y="461"/>
      <point x="79" y="432"/>
      <point x="79" y="384" type="curve" smooth="yes"/>
      <point x="79" y="339"/>
      <point x="101" y="308"/>
      <point x="149" y="308" type="curve" smooth="yes"/>
      <point x="197" y="308"/>
      <point x="219" y="337"/>
      <point x="219" y="384" type="curve" smooth="yes"/>
      <point x="219" y="431"/>
      <point x="197" y="461"/>
    </contour>
    <contour>
      <point x="85" y="23" type="curve"/>
      <point x="92" y="26"/>
      <point x="99" y="28"/>
      <point x="105" y="28" type="curve" smooth="yes"/>
      <point x="120" y="28"/>
      <point x="131" y="18"/>
      <point x="131" y="-2" type="curve" smooth="yes"/>
      <point x="131" y="-33"/>
      <point x="104" y="-74"/>
      <point x="62" y="-105" type="curve"/>
      <point x="90" y="-140" type="line"/>
      <point x="172" y="-93"/>
      <point x="215" y="-28"/>
      <point x="215" y="53" type="curve" smooth="yes"/>
      <point x="215" y="105"/>
      <point x="189" y="140"/>
      <point x="132" y="140" type="curve" smooth="yes"/>
      <point x="90" y="140"/>
      <point x="63" y="107"/>
      <point x="63" y="77" type="curve" smooth="yes"/>
      <point x="63" y="55"/>
      <point x="70" y="37"/>
    </contour>
  </outline>
</glyph>
<glyph name="less" format="1">
  <advance width="592"/>
  <unicode hex="003C"/>
  <outline>
    <contour>
      <point x="64" y="222" type="line"/>
      <point x="506" y="47" type="line"/>
      <point x="540" y="140" type="line"/>
      <point x="159" y="285" type="line"/>
      <point x="540" y="431" type="line"/>
      <point x="506" y="524" type="line"/>
      <point x="64" y="349" type="line"/>
    </contour>
  </outline>
</glyph>
<glyph name="equal" format="1">
  <advance width="592"/>
  <unicode hex="003D"/>
  <outline>
    <contour>
      <point x="61" y="145" type="line"/>
      <point x="530" y="145" type="line"/>
      <point x="530" y="240" type="line"/>
      <point x="61" y="240" type="line"/>
    </contour>
    <contour>
      <point x="61" y="332" type="line"/>
      <point x="530" y="332" type="line"/>
      <point x="530" y="427" type="line"/>
      <point x="61" y="427" type="line"/>
    </contour>
  </outline>
</glyph>
<glyph name="greater" format="1">
  <advance width="592"/>
  <unicode hex="003E"/>
  <outline>
    <contour>
      <point x="540" y="349" type="line"/>
      <point x="98" y="524" type="line"/>
      <point x="64" y="431" type="line"/>
      <point x="445" y="285" type="line"/>
      <point x="64" y="140" type="line"/>
      <point x="98" y="47" type="line"/>
      <point x="540" y="222" type="line"/>
    </contour>
  </outline>
</glyph>
<glyph name="question" format="1">
  <advance width="452"/>
  <unicode hex="003F"/>
  <outline>
    <contour>
      <point x="125" y="275" type="curve" smooth="yes"/>
      <point x="125" y="217"/>
      <point x="162" y="191"/>
      <point x="203" y="191" type="curve" smooth="yes"/>
      <point x="225" y="191"/>
      <point x="248" y="200"/>
      <point x="268" y="216" type="curve"/>
      <point x="258" y="237"/>
      <point x="252" y="257"/>
      <point x="252" y="273" type="curve" smooth="yes"/>
      <point x="252" y="365"/>
      <point x="405" y="401"/>
      <point x="405" y="540" type="curve" smooth="yes"/>
      <point x="405" y="633"/>
      <point x="333" y="677"/>
      <point x="220" y="677" type="curve" smooth="yes"/>
      <point x="124" y="677"/>
      <point x="33" y="636"/>
      <point x="33" y="565" type="curve" smooth="yes"/>
      <point x="33" y="514"/>
      <point x="74" y="488"/>
      <point x="114" y="488" type="curve" smooth="yes"/>
      <point x="145" y="488"/>
      <point x="176" y="504"/>
      <point x="188" y="534" type="curve"/>
      <point x="164" y="553"/>
      <point x="158" y="569"/>
      <point x="158" y="587" type="curve" smooth="yes"/>
      <point x="158" y="615"/>
      <point x="183" y="631"/>
      <point x="209" y="631" type="curve" smooth="yes"/>
      <point x="239" y="631"/>
      <point x="271" y="610"/>
      <point x="271" y="560" type="curve" smooth="yes"/>
      <point x="271" y="405"/>
      <point x="125" y="404"/>
    </contour>
    <contour>
      <point x="201" y="-11" type="curve" smooth="yes"/>
      <point x="254" y="-11"/>
      <point x="280" y="15"/>
      <point x="280" y="59" type="curve" smooth="yes"/>
      <point x="280" y="104"/>
      <point x="254" y="129"/>
      <point x="201" y="129" type="curve" smooth="yes"/>
      <point x="147" y="129"/>
      <point x="121" y="104"/>
      <point x="121" y="59" type="curve" smooth="yes"/>
      <point x="121" y="15"/>
      <point x="147" y="-11"/>
    </contour>
  </outline>
</glyph>
<glyph name="at" format="1">
  <advance width="921"/>
  <unicode hex="0040"/>
  <outline>
    <contour>
      <point x="635" y="341" type="line" smooth="yes"/>
      <point x="635" y="435"/>
      <point x="569" y="484"/>
      <point x="440" y="484" type="curve" smooth="yes"/>
      <point x="337" y="484"/>
      <point x="273" y="445"/>
      <point x="273" y="381" type="curve" smooth="yes"/>
      <point x="273" y="343"/>
      <point x="303" y="315"/>
      <point x="343" y="315" type="curve" smooth="yes"/>
      <point x="374" y="315"/>
      <point x="400" y="334"/>
      <point x="407" y="365" type="curve"/>
      <point x="394" y="374"/>
      <point x="386" y="388"/>
      <point x="386" y="403" type="curve" smooth="yes"/>
      <point x="386" y="429"/>
      <point x="410" y="449"/>
      <point x="440" y="449" type="curve" smooth="yes"/>
      <point x="490" y="449"/>
      <point x="508" y="420"/>
      <point x="508" y="337" type="curve" smooth="yes"/>
      <point x="508" y="284" type="line"/>
      <point x="432" y="278" type="line" smooth="yes"/>
      <point x="316" y="269"/>
      <point x="254" y="225"/>
      <point x="254" y="145" type="curve" smooth="yes"/>
      <point x="254" y="72"/>
      <point x="298" y="32"/>
      <point x="378" y="32" type="curve" smooth="yes"/>
      <point x="433" y="32"/>
      <point x="476" y="53"/>
      <point x="517" y="99" type="curve"/>
      <point x="537" y="49"/>
      <point x="578" y="28"/>
      <point x="653" y="28" type="curve" smooth="yes"/>
      <point x="778" y="28"/>
      <point x="862" y="136"/>
      <point x="862" y="298" type="curve" smooth="yes"/>
      <point x="862" y="507"/>
      <point x="699" y="645"/>
      <point x="453" y="645" type="curve" smooth="yes"/>
      <point x="208" y="645"/>
      <point x="35" y="482"/>
      <point x="35" y="251" type="curve" smooth="yes"/>
      <point x="35" y="5"/>
      <point x="193" y="-152"/>
      <point x="441" y="-152" type="curve" smooth="yes"/>
      <point x="513" y="-152"/>
      <point x="578" y="-134"/>
      <point x="632" y="-100" type="curve"/>
      <point x="600" y="-53" type="line"/>
      <point x="558" y="-78"/>
      <point x="503" y="-91"/>
      <point x="441" y="-91" type="curve" smooth="yes"/>
      <point x="272" y="-91"/>
      <point x="155" y="49"/>
      <point x="155" y="251" type="curve" smooth="yes"/>
      <point x="155" y="449"/>
      <point x="277" y="589"/>
      <point x="451" y="589" type="curve" smooth="yes"/>
      <point x="633" y="589"/>
      <point x="742" y="481"/>
      <point x="742" y="298" type="curve" smooth="yes"/>
      <point x="742" y="235"/>
      <point x="736" y="187"/>
      <point x="726" y="153" type="curve"/>
      <point x="717" y="113"/>
      <point x="693" y="85"/>
      <point x="670" y="85" type="curve" smooth="yes"/>
      <point x="649" y="85"/>
      <point x="635" y="109"/>
      <point x="635" y="147" type="curve" smooth="yes"/>
    </contour>
    <contour>
      <point x="373" y="155" type="curve" smooth="yes"/>
      <point x="373" y="207"/>
      <point x="399" y="230"/>
      <point x="462" y="236" type="curve" smooth="yes"/>
      <point x="508" y="240" type="line"/>
      <point x="508" y="141" type="line"/>
      <point x="478" y="106"/>
      <point x="452" y="91"/>
      <point x="423" y="91" type="curve" smooth="yes"/>
      <point x="391" y="91"/>
      <point x="373" y="115"/>
    </contour>
  </outline>
</glyph>
<glyph name="B" format="1">
  <advance width="651"/>
  <unicode hex="0042"/>
  <outline>
    <contour>
      <point x="43" y="667" type="line"/>
      <point x="39" y="628" type="line"/>
      <point x="70" y="618"/>
      <point x="88" y="608"/>
      <point x="100" y="596" type="curve"/>
      <point x="100" y="71" type="line"/>
      <point x="82" y="53"/>
      <point x="68" y="46"/>
      <point x="43" y="41" type="curve"/>
      <point x="39" y="0" type="line"/>
      <point x="347" y="0" type="line" smooth="yes"/>
      <point x="515" y="0"/>
      <point x="617" y="71"/>
      <point x="617" y="188" type="curve" smooth="yes"/>
      <point x="617" y="269"/>
      <point x="565" y="331"/>
      <point x="472" y="359" type="curve"/>
      <point x="552" y="380"/>
      <point x="594" y="428"/>
      <point x="594" y="501" type="curve" smooth="yes"/>
      <point x="594" y="609"/>
      <point x="500" y="667"/>
      <point x="325" y="667" type="curve" smooth="yes"/>
    </contour>
    <contour>
      <point x="301" y="320" type="line" smooth="yes"/>
      <point x="404" y="320"/>
      <point x="457" y="275"/>
      <point x="457" y="187" type="curve" smooth="yes"/>
      <point x="457" y="101"/>
      <point x="413" y="62"/>
      <point x="315" y="62" type="curve" smooth="yes"/>
      <point x="294" y="62"/>
      <point x="273" y="63"/>
      <point x="247" y="65" type="curve"/>
      <point x="247" y="320" type="line"/>
    </contour>
    <contour>
      <point x="439" y="499" type="curve" smooth="yes"/>
      <point x="439" y="422"/>
      <point x="393" y="383"/>
      <point x="302" y="383" type="curve" smooth="yes"/>
      <point x="247" y="383" type="line"/>
      <point x="247" y="602" type="line"/>
      <point x="267" y="605"/>
      <point x="286" y="606"/>
      <point x="312" y="606" type="curve" smooth="yes"/>
      <point x="393" y="606"/>
      <point x="439" y="568"/>
    </contour>
  </outline>
</glyph>
<glyph name="D" format="1">
  <advance width="705"/>
  <unicode hex="0044"/>
  <outline>
    <contour>
      <point x="42" y="0" type="line"/>
      <point x="254" y="0" type="line" smooth="yes"/>
      <point x="533" y="0"/>
      <point x="651" y="101"/>
      <point x="651" y="333" type="curve" smooth="yes"/>
      <point x="651" y="565"/>
      <point x="534" y="667"/>
      <point x="260" y="667" type="curve" smooth="yes"/>
      <point x="46" y="667" type="line"/>
      <point x="42" y="628" type="line"/>
      <point x="71" y="618"/>
      <point x="90" y="608"/>
      <point x="102" y="597" type="curve"/>
      <point x="102" y="70" type="line"/>
      <point x="84" y="53"/>
      <point x="70" y="46"/>
      <point x="46" y="41" type="curve"/>
    </contour>
    <contour>
      <point x="292" y="605" type="line" smooth="yes"/>
      <point x="436" y="605"/>
      <point x="494" y="524"/>
      <point x="494" y="334" type="curve" smooth="yes"/>
      <point x="494" y="145"/>
      <point x="433" y="62"/>
      <point x="289" y="62" type="curve" smooth="yes"/>
      <point x="267" y="62"/>
      <point x="257" y="63"/>
      <point x="250" y="66" type="curve"/>
      <point x="250" y="605" type="line"/>
    </contour>
  </outline>
</glyph>
<glyph name="G" format="1">
  <advance width="646"/>
  <unicode hex="0047"/>
  <outline>
    <contour>
      <point x="584" y="340" type="line"/>
      <point x="364" y="332" type="line"/>
      <point x="359" y="292" type="line"/>
      <point x="395" y="288"/>
      <point x="425" y="273"/>
      <point x="437" y="253" type="curve"/>
      <point x="437" y="72" type="line"/>
      <point x="417" y="63"/>
      <point x="396" y="58"/>
      <point x="374" y="58" type="curve" smooth="yes"/>
      <point x="261" y="58"/>
      <point x="208" y="148"/>
      <point x="208" y="342" type="curve" smooth="yes"/>
      <point x="208" y="526"/>
      <point x="257" y="621"/>
      <point x="351" y="621" type="curve" smooth="yes"/>
      <point x="407" y="621"/>
      <point x="435" y="597"/>
      <point x="435" y="553" type="curve" smooth="yes"/>
      <point x="435" y="537"/>
      <point x="429" y="520"/>
      <point x="418" y="502" type="curve"/>
      <point x="431" y="475"/>
      <point x="463" y="456"/>
      <point x="495" y="456" type="curve" smooth="yes"/>
      <point x="540" y="456"/>
      <point x="575" y="494"/>
      <point x="575" y="542" type="curve" smooth="yes"/>
      <point x="575" y="620"/>
      <point x="485" y="674"/>
      <point x="355" y="674" type="curve" smooth="yes"/>
      <point x="156" y="674"/>
      <point x="53" y="555"/>
      <point x="53" y="325" type="curve" smooth="yes"/>
      <point x="53" y="106"/>
      <point x="152" y="-10"/>
      <point x="341" y="-10" type="curve" smooth="yes"/>
      <point x="428" y="-10"/>
      <point x="517" y="18"/>
      <point x="584" y="66" type="curve"/>
    </contour>
  </outline>
</glyph>
<glyph name="H" format="1">
  <advance width="722"/>
  <unicode hex="0048"/>
  <outline>
    <contour>
      <point x="314" y="39" type="line"/>
      <point x="280" y="46"/>
      <point x="254" y="57"/>
      <point x="239" y="71" type="curve"/>
      <point x="239" y="310" type="line"/>
      <point x="468" y="310" type="line"/>
      <point x="468" y="71" type="line"/>
      <point x="450" y="53"/>
      <point x="437" y="46"/>
      <point x="411" y="41" type="curve"/>
      <point x="407" y="0" type="line"/>
      <point x="683" y="0" type="line"/>
      <point x="690" y="39" type="line"/>
      <point x="656" y="46"/>
      <point x="630" y="57"/>
      <point x="615" y="71" type="curve"/>
      <point x="615" y="596" type="line"/>
      <point x="631" y="610"/>
      <point x="651" y="620"/>
      <point x="676" y="628" type="curve"/>
      <point x="682" y="667" type="line"/>
      <point x="404" y="667" type="line"/>
      <point x="399" y="626" type="line"/>
      <point x="431" y="620"/>
      <point x="448" y="613"/>
      <point x="468" y="596" type="curve"/>
      <point x="468" y="373" type="line"/>
      <point x="239" y="373" type="line"/>
      <point x="239" y="596" type="line"/>
      <point x="259" y="613"/>
      <point x="276" y="620"/>
      <point x="308" y="626" type="curve"/>
      <point x="314" y="667" type="line"/>
      <point x="35" y="667" type="line"/>
      <point x="31" y="628" type="line"/>
      <point x="57" y="619"/>
      <point x="77" y="609"/>
      <point x="92" y="596" type="curve"/>
      <point x="92" y="71" type="line"/>
      <point x="74" y="53"/>
      <point x="61" y="46"/>
      <point x="35" y="41" type="curve"/>
      <point x="31" y="0" type="line"/>
      <point x="307" y="0" type="line"/>
    </contour>
  </outline>
</glyph>
<glyph name="I" format="1">
  <advance width="350"/>
  <unicode hex="0049"/>
  <outline>
    <contour>
      <point x="25" y="626" type="line"/>
      <point x="53" y="622"/>
      <point x="87" y="610"/>
      <point x="101" y="596" type="curve"/>
      <point x="101" y="71" type="line"/>
      <point x="82" y="55"/>
      <point x="61" y="46"/>
      <point x="29" y="41" type="curve"/>
      <point x="25" y="0" type="line"/>
      <point x="316" y="0" type="line"/>
      <point x="323" y="41" type="line"/>
      <point x="289" y="48"/>
      <point x="263" y="57"/>
      <point x="248" y="71" type="curve"/>
      <point x="248" y="596" type="line"/>
      <point x="268" y="613"/>
      <point x="285" y="620"/>
      <point x="317" y="626" type="curve"/>
      <point x="323" y="667" type="line"/>
      <point x="30" y="667" type="line"/>
    </contour>
  </outline>
</glyph>
<glyph name="J" format="1">
  <advance width="341"/>
  <unicode hex="004A"/>
  <outline>
    <contour>
      <point x="18" y="626" type="line"/>
      <point x="46" y="622"/>
      <point x="80" y="610"/>
      <point x="94" y="596" type="curve"/>
      <point x="94" y="1" type="line" smooth="yes"/>
      <point x="94" y="-95"/>
      <point x="42" y="-137"/>
      <point x="-8" y="-163" type="curve"/>
      <point x="13" y="-218" type="line"/>
      <point x="151" y="-183"/>
      <point x="241" y="-119"/>
      <point x="241" y="16" type="curve" smooth="yes"/>
      <point x="241" y="596" type="line"/>
      <point x="261" y="613"/>
      <point x="278" y="620"/>
      <point x="310" y="626" type="curve"/>
      <point x="316" y="667" type="line"/>
      <point x="23" y="667" type="line"/>
    </contour>
  </outline>
</glyph>
<glyph name="M" format="1">
  <advance width="846"/>
  <unicode hex="004D"/>
  <outline>
    <contour>
      <point x="823" y="39" type="line"/>
      <point x="789" y="46"/>
      <point x="763" y="57"/>
      <point x="748" y="71" type="curve"/>
      <point x="748" y="596" type="line"/>
      <point x="764" y="610"/>
      <point x="784" y="620"/>
      <point x="809" y="628" type="curve"/>
      <point x="815" y="667" type="line"/>
      <point x="571" y="667" type="line"/>
      <point x="431" y="217" type="line"/>
      <point x="268" y="667" type="line"/>
      <point x="42" y="667" type="line"/>
      <point x="38" y="628" type="line"/>
      <point x="64" y="619"/>
      <point x="84" y="609"/>
      <point x="99" y="596" type="curve"/>
      <point x="99" y="71" type="line"/>
      <point x="81" y="53"/>
      <point x="68" y="46"/>
      <point x="42" y="41" type="curve"/>
      <point x="38" y="0" type="line"/>
      <point x="254" y="0" type="line"/>
      <point x="261" y="39" type="line"/>
      <point x="227" y="46"/>
      <point x="201" y="57"/>
      <point x="186" y="71" type="curve"/>
      <point x="186" y="481" type="line"/>
      <point x="365" y="0" type="line"/>
      <point x="442" y="0" type="line"/>
      <point x="605" y="508" type="line"/>
      <point x="605" y="71" type="line"/>
      <point x="588" y="53"/>
      <point x="575" y="46"/>
      <point x="549" y="41" type="curve"/>
      <point x="545" y="0" type="line"/>
      <point x="816" y="0" type="line"/>
    </contour>
  </outline>
</glyph>
<glyph name="N" format="1">
  <advance width="679"/>
  <unicode hex="004E"/>
  <outline>
    <contour>
      <point x="662" y="667" type="line"/>
      <point x="444" y="667" type="line"/>
      <point x="439" y="626" type="line"/>
      <point x="471" y="620"/>
      <point x="488" y="613"/>
      <point x="508" y="596" type="curve"/>
      <point x="508" y="183" type="line"/>
      <point x="232" y="667" type="line"/>
      <point x="35" y="667" type="line"/>
      <point x="31" y="628" type="line"/>
      <point x="57" y="619"/>
      <point x="77" y="609"/>
      <point x="92" y="596" type="curve"/>
      <point x="92" y="71" type="line"/>
      <point x="74" y="53"/>
      <point x="61" y="46"/>
      <point x="35" y="41" type="curve"/>
      <point x="31" y="0" type="line"/>
      <point x="247" y="0" type="line"/>
      <point x="254" y="39" type="line"/>
      <point x="220" y="46"/>
      <point x="194" y="57"/>
      <point x="179" y="71" type="curve"/>
      <point x="179" y="460" type="line"/>
      <point x="443" y="0" type="line"/>
      <point x="595" y="0" type="line"/>
      <point x="595" y="596" type="line"/>
      <point x="611" y="610"/>
      <point x="631" y="620"/>
      <point x="656" y="628" type="curve"/>
    </contour>
  </outline>
</glyph>
<glyph name="O" format="1">
  <advance width="695"/>
  <unicode hex="004F"/>
  <outline>
    <contour>
      <point x="214" y="335" type="curve" smooth="yes"/>
      <point x="214" y="537"/>
      <point x="253" y="620"/>
      <point x="348" y="620" type="curve" smooth="yes"/>
      <point x="442" y="620"/>
      <point x="480" y="537"/>
      <point x="480" y="335" type="curve" smooth="yes"/>
      <point x="480" y="131"/>
      <point x="442" y="48"/>
      <point x="348" y="48" type="curve" smooth="yes"/>
      <point x="253" y="48"/>
      <point x="214" y="131"/>
    </contour>
    <contour>
      <point x="49" y="335" type="curve" smooth="yes"/>
      <point x="49" y="111"/>
      <point x="150" y="-10"/>
      <point x="348" y="-10" type="curve" smooth="yes"/>
      <point x="547" y="-10"/>
      <point x="646" y="111"/>
      <point x="646" y="335" type="curve" smooth="yes"/>
      <point x="646" y="558"/>
      <point x="547" y="678"/>
      <point x="348" y="678" type="curve" smooth="yes"/>
      <point x="150" y="678"/>
      <point x="49" y="558"/>
    </contour>
  </outline>
</glyph>
<glyph name="P" format="1">
  <advance width="614"/>
  <unicode hex="0050"/>
  <outline>
    <contour>
      <point x="322" y="39" type="line"/>
      <point x="287" y="46"/>
      <point x="261" y="57"/>
      <point x="247" y="71" type="curve"/>
      <point x="247" y="283" type="line"/>
      <point x="261" y="282"/>
      <point x="291" y="280"/>
      <point x="311" y="280" type="curve" smooth="yes"/>
      <point x="488" y="280"/>
      <point x="586" y="351"/>
      <point x="586" y="481" type="curve" smooth="yes"/>
      <point x="586" y="605"/>
      <point x="499" y="667"/>
      <point x="325" y="667" type="curve" smooth="yes"/>
      <point x="43" y="667" type="line"/>
      <point x="39" y="628" type="line"/>
      <point x="68" y="618"/>
      <point x="87" y="608"/>
      <point x="100" y="596" type="curve"/>
      <point x="100" y="71" type="line"/>
      <point x="82" y="53"/>
      <point x="68" y="46"/>
      <point x="43" y="41" type="curve"/>
      <point x="39" y="0" type="line"/>
      <point x="315" y="0" type="line"/>
    </contour>
    <contour>
      <point x="431" y="479" type="curve" smooth="yes"/>
      <point x="431" y="389"/>
      <point x="390" y="343"/>
      <point x="312" y="343" type="curve" smooth="yes"/>
      <point x="247" y="343" type="line"/>
      <point x="247" y="602" type="line"/>
      <point x="266" y="605"/>
      <point x="284" y="606"/>
      <point x="312" y="606" type="curve" smooth="yes"/>
      <point x="387" y="606"/>
      <point x="431" y="560"/>
    </contour>
  </outline>
</glyph>
<glyph name="Q" format="1">
  <advance width="695"/>
  <unicode hex="0051"/>
  <outline>
    <contour>
      <point x="49" y="335" type="curve" smooth="yes"/>
      <point x="49" y="134"/>
      <point x="130" y="15"/>
      <point x="290" y="-6" type="curve"/>
      <point x="335" y="-84"/>
      <point x="403" y="-153"/>
      <point x="541" y="-174" type="curve"/>
      <point x="548" y="-170"/>
      <point x="554" y="-157"/>
      <point x="554" y="-146" type="curve" smooth="yes"/>
      <point x="554" y="-143"/>
      <point x="554" y="-141"/>
      <point x="553" y="-138" type="curve"/>
      <point x="490" y="-114"/>
      <point x="443" y="-65"/>
      <point x="421" y="-4" type="curve"/>
      <point x="571" y="23"/>
      <point x="646" y="140"/>
      <point x="646" y="335" type="curve" smooth="yes"/>
      <point x="646" y="558"/>
      <point x="547" y="678"/>
      <point x="348" y="678" type="curve" smooth="yes"/>
      <point x="150" y="678"/>
      <point x="49" y="558"/>
    </contour>
    <contour>
      <point x="214" y="335" type="curve" smooth="yes"/>
      <point x="214" y="537"/>
      <point x="253" y="620"/>
      <point x="348" y="620" type="curve" smooth="yes"/>
      <point x="442" y="620"/>
      <point x="480" y="537"/>
      <point x="480" y="335" type="curve" smooth="yes"/>
      <point x="480" y="131"/>
      <point x="442" y="48"/>
      <point x="348" y="48" type="curve" smooth="yes"/>
      <point x="253" y="48"/>
      <point x="214" y="131"/>
    </contour>
  </outline>
</glyph>
<glyph name="T" format="1">
  <advance width="639"/>
  <unicode hex="0054"/>
  <outline>
    <contour>
      <point x="468" y="41" type="line"/>
      <point x="431" y="48"/>
      <point x="407" y="58"/>
      <point x="393" y="71" type="curve"/>
      <point x="393" y="606" type="line"/>
      <point x="432" y="605"/>
      <point x="466" y="602"/>
      <point x="496" y="598" type="curve"/>
      <point x="513" y="571"/>
      <point x="527" y="528"/>
      <point x="532" y="483" type="curve"/>
      <point x="544" y="481"/>
      <point x="556" y="480"/>
      <point x="568" y="480" type="curve" smooth="yes"/>
      <point x="579" y="480"/>
      <point x="590" y="481"/>
      <point x="601" y="483" type="curve"/>
      <point x="601" y="671" type="line"/>
      <point x="587" y="670"/>
      <point x="400" y="667"/>
      <point x="319" y="667" type="curve" smooth="yes"/>
      <point x="185" y="667"/>
      <point x="38" y="671"/>
      <point x="38" y="671" type="curve"/>
      <point x="38" y="483" type="line"/>
      <point x="49" y="481"/>
      <point x="60" y="480"/>
      <point x="71" y="480" type="curve" smooth="yes"/>
      <point x="83" y="480"/>
      <point x="95" y="481"/>
      <point x="107" y="483" type="curve"/>
      <point x="108" y="522"/>
      <point x="124" y="570"/>
      <point x="145" y="599" type="curve"/>
      <point x="174" y="601"/>
      <point x="207" y="604"/>
      <point x="246" y="605" type="curve"/>
      <point x="246" y="71" type="line"/>
      <point x="226" y="54"/>
      <point x="205" y="45"/>
      <point x="174" y="41" type="curve"/>
      <point x="170" y="0" type="line"/>
      <point x="461" y="0" type="line"/>
    </contour>
  </outline>
</glyph>
<glyph name="V" format="1">
  <advance width="634"/>
  <unicode hex="0056"/>
  <outline>
    <contour>
      <point x="274" y="627" type="curve"/>
      <point x="280" y="667" type="line"/>
      <point x="6" y="667" type="line"/>
      <point x="1" y="627" type="line"/>
      <point x="27" y="622"/>
      <point x="54" y="613"/>
      <point x="65" y="585" type="curve"/>
      <point x="252" y="0" type="line"/>
      <point x="353" y="0" type="line"/>
      <point x="573" y="601" type="line"/>
      <point x="584" y="618"/>
      <point x="609" y="626"/>
      <point x="636" y="627" type="curve"/>
      <point x="641" y="667" type="line"/>
      <point x="420" y="667" type="line"/>
      <point x="415" y="627" type="line"/>
      <point x="446" y="623"/>
      <point x="476" y="613"/>
      <point x="494" y="597" type="curve"/>
      <point x="348" y="185" type="line"/>
      <point x="212" y="605" type="line"/>
      <point x="227" y="620"/>
      <point x="247" y="626"/>
    </contour>
  </outline>
</glyph>
<glyph name="W" format="1">
  <advance width="961"/>
  <unicode hex="0057"/>
  <outline>
    <contour>
      <point x="470" y="667" type="line"/>
      <point x="328" y="185" type="line"/>
      <point x="211" y="605" type="line"/>
      <point x="227" y="620"/>
      <point x="247" y="626"/>
      <point x="274" y="627" type="curve"/>
      <point x="280" y="667" type="line"/>
      <point x="6" y="667" type="line"/>
      <point x="1" y="627" type="line"/>
      <point x="24" y="622"/>
      <point x="48" y="615"/>
      <point x="61" y="593" type="curve"/>
      <point x="232" y="0" type="line"/>
      <point x="333" y="0" type="line"/>
      <point x="472" y="430" type="line"/>
      <point x="600" y="0" type="line"/>
      <point x="701" y="0" type="line"/>
      <point x="901" y="602" type="line"/>
      <point x="912" y="619"/>
      <point x="937" y="626"/>
      <point x="963" y="627" type="curve"/>
      <point x="968" y="667" type="line"/>
      <point x="747" y="667" type="line"/>
      <point x="742" y="627" type="line"/>
      <point x="773" y="623"/>
      <point x="804" y="613"/>
      <point x="822" y="596" type="curve"/>
      <point x="696" y="185" type="line"/>
      <point x="558" y="667" type="line"/>
    </contour>
  </outline>
</glyph>
<glyph name="X" format="1">
  <advance width="619"/>
  <unicode hex="0058"/>
  <outline>
    <contour>
      <point x="69" y="65" type="line" smooth="yes"/>
      <point x="58" y="48"/>
      <point x="33" y="41"/>
      <point x="7" y="40" type="curve"/>
      <point x="2" y="0" type="line"/>
      <point x="223" y="0" type="line"/>
      <point x="228" y="40" type="line"/>
      <point x="201" y="44"/>
      <point x="175" y="53"/>
      <point x="159" y="68" type="curve"/>
      <point x="280" y="248" type="line"/>
      <point x="397" y="61" type="line"/>
      <point x="383" y="47"/>
      <point x="365" y="41"/>
      <point x="341" y="40" type="curve"/>
      <point x="335" y="0" type="line"/>
      <point x="609" y="0" type="line"/>
      <point x="614" y="40" type="line"/>
      <point x="596" y="43"/>
      <point x="577" y="48"/>
      <point x="563" y="61" type="curve"/>
      <point x="373" y="365" type="line"/>
      <point x="530" y="599" type="line" smooth="yes"/>
      <point x="542" y="616"/>
      <point x="567" y="623"/>
      <point x="593" y="624" type="curve"/>
      <point x="598" y="664" type="line"/>
      <point x="377" y="664" type="line"/>
      <point x="372" y="624" type="line"/>
      <point x="399" y="620"/>
      <point x="425" y="611"/>
      <point x="441" y="595" type="curve"/>
      <point x="332" y="432" type="line"/>
      <point x="224" y="606" type="line"/>
      <point x="238" y="620"/>
      <point x="255" y="626"/>
      <point x="280" y="627" type="curve"/>
      <point x="286" y="667" type="line"/>
      <point x="12" y="667" type="line"/>
      <point x="7" y="627" type="line"/>
      <point x="25" y="623"/>
      <point x="45" y="618"/>
      <point x="58" y="604" type="curve"/>
      <point x="238" y="315" type="line"/>
    </contour>
  </outline>
</glyph>
<glyph name="Z" format="1">
  <advance width="566"/>
  <unicode hex="005A"/>
  <outline>
    <contour>
      <point x="535" y="191" type="line"/>
      <point x="526" y="193"/>
      <point x="513" y="194"/>
      <point x="500" y="194" type="curve" smooth="yes"/>
      <point x="487" y="194"/>
      <point x="472" y="193"/>
      <point x="460" y="190" type="curve"/>
      <point x="448" y="138"/>
      <point x="429" y="89"/>
      <point x="408" y="59" type="curve"/>
      <point x="200" y="59" type="line"/>
      <point x="535" y="631" type="line"/>
      <point x="525" y="669" type="line"/>
      <point x="449" y="667"/>
      <point x="375" y="667"/>
      <point x="302" y="667" type="curve" smooth="yes"/>
      <point x="203" y="667"/>
      <point x="88" y="668"/>
      <point x="65" y="669" type="curve"/>
      <point x="28" y="637" type="line"/>
      <point x="40" y="490" type="line"/>
      <point x="56" y="485"/>
      <point x="73" y="482"/>
      <point x="90" y="482" type="curve" smooth="yes"/>
      <point x="102" y="482"/>
      <point x="114" y="483"/>
      <point x="125" y="485" type="curve"/>
      <point x="134" y="541"/>
      <point x="149" y="594"/>
      <point x="161" y="609" type="curve"/>
      <point x="354" y="609" type="line"/>
      <point x="28" y="45" type="line"/>
      <point x="32" y="-2" type="line"/>
      <point x="69" y="0"/>
      <point x="196" y="0"/>
      <point x="261" y="0" type="curve" smooth="yes"/>
      <point x="355" y="0"/>
      <point x="481" y="-2"/>
      <point x="526" y="-2" type="curve"/>
    </contour>
  </outline>
</glyph>
<glyph name="bracketleft" format="1">
  <advance width="368"/>
  <unicode hex="005B"/>
  <outline>
    <contour>
      <point x="110" y="738" type="line"/>
      <point x="110" y="-172" type="line"/>
      <point x="323" y="-172" type="line"/>
      <point x="323" y="-118" type="line"/>
      <point x="210" y="-106" type="line"/>
      <point x="210" y="672" type="line"/>
      <point x="323" y="684" type="line"/>
      <point x="323" y="738" type="line"/>
    </contour>
  </outline>
</glyph>
<glyph name="backslash" format="1">
  <advance width="505"/>
  <unicode hex="005C"/>
  <outline>
    <contour>
      <point x="423" y="-112" type="line"/>
      <point x="113" y="700" type="line"/>
      <point x="39" y="672" type="line"/>
      <point x="349" y="-140" type="line"/>
    </contour>
  </outline>
</glyph>
<glyph name="bracketright" format="1">
  <advance width="368"/>
  <unicode hex="005D"/>
  <outline>
    <contour>
      <point x="45" y="738" type="line"/>
      <point x="45" y="684" type="line"/>
      <point x="158" y="672" type="line"/>
      <point x="158" y="-106" type="line"/>
      <point x="45" y="-118" type="line"/>
      <point x="45" y="-172" type="line"/>
      <point x="258" y="-172" type="line"/>
      <point x="258" y="738" type="line"/>
    </contour>
  </outline>
</glyph>
<glyph name="asciicircum" format="1">
  <advance width="592"/>
  <unicode hex="005E"/>
  <outline>
    <contour>
      <point x="241" y="667" type="line"/>
      <point x="54" y="351" type="line"/>
      <point x="140" y="301" type="line"/>
      <point x="293" y="570" type="line"/>
      <point x="447" y="301" type="line"/>
      <point x="533" y="351" type="line"/>
      <point x="346" y="667" type="line"/>
    </contour>
  </outline>
</glyph>
<glyph name="grave" format="1">
  <advance width="285"/>
  <unicode hex="0060"/>
  <outline>
    <contour>
      <point x="190" y="524" type="line"/>
      <point x="224" y="557" type="line"/>
      <point x="144" y="676" type="line" smooth="yes"/>
      <point x="127" y="701"/>
      <point x="105" y="710"/>
      <point x="87" y="710" type="curve" smooth="yes"/>
      <point x="59" y="710"/>
      <point x="40" y="691"/>
      <point x="40" y="663" type="curve"/>
      <point x="41" y="645"/>
      <point x="50" y="623"/>
      <point x="73" y="607" type="curve" smooth="yes"/>
    </contour>
  </outline>
</glyph>
<glyph name="a" format="1">
  <advance width="535"/>
  <unicode hex="0061"/>
  <outline>
    <contour>
      <point x="515" y="35" type="line"/>
      <point x="489" y="40"/>
      <point x="464" y="52"/>
      <point x="455" y="62" type="curve"/>
      <point x="455" y="334" type="line" smooth="yes"/>
      <point x="455" y="438"/>
      <point x="382" y="492"/>
      <point x="240" y="492" type="curve" smooth="yes"/>
      <point x="122" y="492"/>
      <point x="50" y="449"/>
      <point x="50" y="378" type="curve" smooth="yes"/>
      <point x="50" y="336"/>
      <point x="83" y="305"/>
      <point x="127" y="305" type="curve" smooth="yes"/>
      <point x="163" y="305"/>
      <point x="190" y="327"/>
      <point x="197" y="360" type="curve"/>
      <point x="183" y="371"/>
      <point x="175" y="386"/>
      <point x="175" y="402" type="curve" smooth="yes"/>
      <point x="175" y="431"/>
      <point x="203" y="453"/>
      <point x="240" y="453" type="curve" smooth="yes"/>
      <point x="295" y="453"/>
      <point x="314" y="422"/>
      <point x="314" y="329" type="curve" smooth="yes"/>
      <point x="314" y="271" type="line"/>
      <point x="226" y="265" type="line" smooth="yes"/>
      <point x="96" y="256"/>
      <point x="29" y="205"/>
      <point x="29" y="118" type="curve" smooth="yes"/>
      <point x="29" y="37"/>
      <point x="80" y="-7"/>
      <point x="172" y="-7" type="curve" smooth="yes"/>
      <point x="230" y="-7"/>
      <point x="277" y="13"/>
      <point x="321" y="57" type="curve"/>
      <point x="331" y="0" type="line"/>
      <point x="511" y="0" type="line"/>
    </contour>
    <contour>
      <point x="161" y="129" type="curve" smooth="yes"/>
      <point x="161" y="186"/>
      <point x="191" y="212"/>
      <point x="264" y="218" type="curve" smooth="yes"/>
      <point x="314" y="222" type="line"/>
      <point x="314" y="113" type="line"/>
      <point x="281" y="74"/>
      <point x="251" y="58"/>
      <point x="221" y="58" type="curve" smooth="yes"/>
      <point x="183" y="58"/>
      <point x="161" y="84"/>
    </contour>
  </outline>
</glyph>
<glyph name="b" format="1">
  <advance width="591"/>
  <unicode hex="0062"/>
  <outline>
    <contour>
      <point x="360" y="492" type="curve" smooth="yes"/>
      <point x="298" y="492"/>
      <point x="253" y="469"/>
      <point x="224" y="425" type="curve"/>
      <point x="224" y="687" type="line"/>
      <point x="207" y="697" type="line"/>
      <point x="168" y="686"/>
      <point x="66" y="671"/>
      <point x="23" y="663" type="curve"/>
      <point x="21" y="624" type="line"/>
      <point x="66" y="622"/>
      <point x="83" y="608"/>
      <point x="83" y="558" type="curve" smooth="yes"/>
      <point x="83" y="0" type="line"/>
      <point x="158" y="0" type="line"/>
      <point x="184" y="25" type="line"/>
      <point x="224" y="3"/>
      <point x="269" y="-7"/>
      <point x="318" y="-7" type="curve" smooth="yes"/>
      <point x="458" y="-7"/>
      <point x="544" y="83"/>
      <point x="544" y="258" type="curve" smooth="yes"/>
      <point x="544" y="411"/>
      <point x="478" y="492"/>
    </contour>
    <contour>
      <point x="315" y="432" type="curve" smooth="yes"/>
      <point x="372" y="432"/>
      <point x="398" y="376"/>
      <point x="398" y="256" type="curve" smooth="yes"/>
      <point x="398" y="121"/>
      <point x="365" y="46"/>
      <point x="290" y="46" type="curve" smooth="yes"/>
      <point x="263" y="46"/>
      <point x="238" y="55"/>
      <point x="224" y="65" type="curve"/>
      <point x="224" y="268" type="line" smooth="yes"/>
      <point x="224" y="377"/>
      <point x="259" y="432"/>
    </contour>
  </outline>
</glyph>
<glyph name="c" format="1">
  <advance width="469"/>
  <unicode hex="0063"/>
  <outline>
    <contour>
      <point x="281" y="-7" type="curve" smooth="yes"/>
      <point x="350" y="-7"/>
      <point x="419" y="21"/>
      <point x="464" y="68" type="curve"/>
      <point x="428" y="104" type="line"/>
      <point x="390" y="69"/>
      <point x="348" y="51"/>
      <point x="306" y="51" type="curve" smooth="yes"/>
      <point x="223" y="51"/>
      <point x="191" y="106"/>
      <point x="191" y="248" type="curve" smooth="yes"/>
      <point x="191" y="377"/>
      <point x="218" y="443"/>
      <point x="271" y="443" type="curve" smooth="yes"/>
      <point x="299" y="443"/>
      <point x="320" y="425"/>
      <point x="320" y="400" type="curve" smooth="yes"/>
      <point x="320" y="386"/>
      <point x="316" y="372"/>
      <point x="308" y="360" type="curve"/>
      <point x="316" y="336"/>
      <point x="345" y="318"/>
      <point x="376" y="318" type="curve" smooth="yes"/>
      <point x="420" y="318"/>
      <point x="454" y="348"/>
      <point x="454" y="387" type="curve" smooth="yes"/>
      <point x="454" y="447"/>
      <point x="383" y="489"/>
      <point x="280" y="489" type="curve" smooth="yes"/>
      <point x="126" y="489"/>
      <point x="44" y="401"/>
      <point x="44" y="236" type="curve" smooth="yes"/>
      <point x="44" y="77"/>
      <point x="125" y="-7"/>
    </contour>
  </outline>
</glyph>
<glyph name="f" format="1">
  <advance width="326"/>
  <unicode hex="0066"/>
  <outline>
    <contour>
      <point x="400" y="672" type="line"/>
      <point x="365" y="694"/>
      <point x="312" y="709"/>
      <point x="272" y="709" type="curve" smooth="yes"/>
      <point x="163" y="709"/>
      <point x="87" y="632"/>
      <point x="87" y="522" type="curve" smooth="yes"/>
      <point x="87" y="478" type="line"/>
      <point x="67" y="469"/>
      <point x="34" y="460"/>
      <point x="3" y="455" type="curve"/>
      <point x="8" y="415" type="line"/>
      <point x="87" y="415" type="line"/>
      <point x="87" y="62" type="line"/>
      <point x="67" y="46"/>
      <point x="52" y="41"/>
      <point x="21" y="36" type="curve"/>
      <point x="17" y="0" type="line"/>
      <point x="311" y="0" type="line"/>
      <point x="314" y="34" type="line"/>
      <point x="274" y="41"/>
      <point x="244" y="50"/>
      <point x="228" y="62" type="curve"/>
      <point x="228" y="415" type="line"/>
      <point x="332" y="415" type="line"/>
      <point x="332" y="478" type="line"/>
      <point x="228" y="478" type="line"/>
      <point x="228" y="511"/>
      <point x="208" y="555"/>
      <point x="208" y="588" type="curve" smooth="yes"/>
      <point x="208" y="637"/>
      <point x="230" y="670"/>
      <point x="264" y="670" type="curve" smooth="yes"/>
      <point x="301" y="670"/>
      <point x="318" y="641"/>
      <point x="327" y="562" type="curve"/>
      <point x="400" y="562" type="line"/>
    </contour>
  </outline>
</glyph>
<glyph name="h" format="1">
  <advance width="597"/>
  <unicode hex="0068"/>
  <outline>
    <contour>
      <point x="285" y="40" type="line"/>
      <point x="260" y="46"/>
      <point x="239" y="55"/>
      <point x="225" y="67" type="curve"/>
      <point x="225" y="371" type="line"/>
      <point x="245" y="404"/>
      <point x="279" y="425"/>
      <point x="313" y="425" type="curve" smooth="yes"/>
      <point x="355" y="425"/>
      <point x="375" y="394"/>
      <point x="375" y="329" type="curve" smooth="yes"/>
      <point x="375" y="66" type="line"/>
      <point x="362" y="52"/>
      <point x="345" y="43"/>
      <point x="326" y="39" type="curve"/>
      <point x="323" y="0" type="line"/>
      <point x="577" y="0" type="line"/>
      <point x="580" y="39" type="line"/>
      <point x="551" y="45"/>
      <point x="528" y="57"/>
      <point x="517" y="66" type="curve"/>
      <point x="517" y="338" type="line" smooth="yes"/>
      <point x="517" y="435"/>
      <point x="457" y="492"/>
      <point x="367" y="492" type="curve" smooth="yes"/>
      <point x="309" y="492"/>
      <point x="259" y="467"/>
      <point x="225" y="429" type="curve"/>
      <point x="225" y="688" type="line"/>
      <point x="207" y="698" type="line"/>
      <point x="169" y="687"/>
      <point x="66" y="672"/>
      <point x="24" y="664" type="curve"/>
      <point x="21" y="625" type="line"/>
      <point x="67" y="623"/>
      <point x="83" y="609"/>
      <point x="83" y="559" type="curve" smooth="yes"/>
      <point x="83" y="67" type="line"/>
      <point x="67" y="52"/>
      <point x="55" y="47"/>
      <point x="31" y="42" type="curve"/>
      <point x="27" y="1" type="line"/>
      <point x="281" y="1" type="line"/>
    </contour>
  </outline>
</glyph>
<glyph name="i" format="1">
  <advance width="314"/>
  <unicode hex="0069"/>
  <outline>
    <contour>
      <point x="298" y="39" type="line"/>
      <point x="269" y="45"/>
      <point x="246" y="57"/>
      <point x="234" y="66" type="curve"/>
      <point x="234" y="483" type="line"/>
      <point x="217" y="492" type="line"/>
      <point x="179" y="481"/>
      <point x="76" y="466"/>
      <point x="34" y="458" type="curve"/>
      <point x="31" y="419" type="line"/>
      <point x="77" y="417"/>
      <point x="93" y="403"/>
      <point x="93" y="354" type="curve" smooth="yes"/>
      <point x="93" y="66" type="line"/>
      <point x="77" y="51"/>
      <point x="65" y="46"/>
      <point x="41" y="41" type="curve"/>
      <point x="37" y="0" type="line"/>
      <point x="294" y="0" type="line"/>
    </contour>
    <contour>
      <point x="166" y="550" type="curve" smooth="yes"/>
      <point x="219" y="550"/>
      <point x="245" y="576"/>
      <point x="245" y="620" type="curve" smooth="yes"/>
      <point x="245" y="665"/>
      <point x="219" y="690"/>
      <point x="166" y="690" type="curve" smooth="yes"/>
      <point x="112" y="690"/>
      <point x="86" y="665"/>
      <point x="86" y="620" type="curve" smooth="yes"/>
      <point x="86" y="576"/>
      <point x="112" y="550"/>
    </contour>
  </outline>
</glyph>
<glyph name="j" format="1">
  <advance width="302"/>
  <unicode hex="006A"/>
  <outline>
    <contour>
      <point x="24" y="419" type="line"/>
      <point x="70" y="417"/>
      <point x="86" y="403"/>
      <point x="86" y="354" type="curve" smooth="yes"/>
      <point x="86" y="62" type="line" smooth="yes"/>
      <point x="86" y="-18"/>
      <point x="98" y="-41"/>
      <point x="98" y="-108" type="curve" smooth="yes"/>
      <point x="98" y="-141"/>
      <point x="85" y="-168"/>
      <point x="66" y="-168" type="curve" smooth="yes"/>
      <point x="51" y="-168"/>
      <point x="42" y="-153"/>
      <point x="42" y="-137" type="curve" smooth="yes"/>
      <point x="42" y="-121"/>
      <point x="48" y="-106"/>
      <point x="57" y="-97" type="curve"/>
      <point x="46" y="-80"/>
      <point x="28" y="-72"/>
      <point x="11" y="-72" type="curve" smooth="yes"/>
      <point x="-26" y="-72"/>
      <point x="-52" y="-97"/>
      <point x="-52" y="-134" type="curve" smooth="yes"/>
      <point x="-52" y="-190"/>
      <point x="9" y="-218"/>
      <point x="72" y="-218" type="curve" smooth="yes"/>
      <point x="123" y="-218"/>
      <point x="177" y="-200"/>
      <point x="201" y="-161" type="curve" smooth="yes"/>
      <point x="222" y="-126"/>
      <point x="227" y="-80"/>
      <point x="227" y="-33" type="curve" smooth="yes"/>
      <point x="227" y="483" type="line"/>
      <point x="210" y="492" type="line"/>
      <point x="172" y="481"/>
      <point x="69" y="466"/>
      <point x="27" y="458" type="curve"/>
    </contour>
    <contour>
      <point x="159" y="550" type="curve" smooth="yes"/>
      <point x="212" y="550"/>
      <point x="238" y="576"/>
      <point x="238" y="620" type="curve" smooth="yes"/>
      <point x="238" y="665"/>
      <point x="212" y="690"/>
      <point x="159" y="690" type="curve" smooth="yes"/>
      <point x="105" y="690"/>
      <point x="79" y="665"/>
      <point x="79" y="620" type="curve" smooth="yes"/>
      <point x="79" y="576"/>
      <point x="105" y="550"/>
    </contour>
  </outline>
</glyph>
<glyph name="l" format="1">
  <advance width="308"/>
  <unicode hex="006C"/>
  <outline>
    <contour>
      <point x="288" y="39" type="line"/>
      <point x="259" y="45"/>
      <point x="236" y="57"/>
      <point x="225" y="66" type="curve"/>
      <point x="225" y="687" type="line"/>
      <point x="207" y="697" type="line"/>
      <point x="169" y="686"/>
      <point x="66" y="671"/>
      <point x="24" y="663" type="curve"/>
      <point x="21" y="624" type="line"/>
      <point x="67" y="622"/>
      <point x="83" y="608"/>
      <point x="83" y="558" type="curve" smooth="yes"/>
      <point x="83" y="66" type="line"/>
      <point x="67" y="51"/>
      <point x="55" y="46"/>
      <point x="31" y="41" type="curve"/>
      <point x="27" y="0" type="line"/>
      <point x="285" y="0" type="line"/>
    </contour>
  </outline>
</glyph>
<glyph name="m" format="1">
  <advance width="890"/>
  <unicode hex="006D"/>
  <outline>
    <contour>
      <point x="580" y="39" type="line"/>
      <point x="555" y="45"/>
      <point x="535" y="54"/>
      <point x="520" y="66" type="curve"/>
      <point x="520" y="338" type="line" smooth="yes"/>
      <point x="520" y="347"/>
      <point x="519" y="356"/>
      <point x="518" y="365" type="curve"/>
      <point x="536" y="401"/>
      <point x="572" y="425"/>
      <point x="608" y="425" type="curve" smooth="yes"/>
      <point x="649" y="425"/>
      <point x="669" y="394"/>
      <point x="669" y="329" type="curve" smooth="yes"/>
      <point x="669" y="66" type="line"/>
      <point x="655" y="52"/>
      <point x="638" y="43"/>
      <point x="620" y="39" type="curve"/>
      <point x="617" y="0" type="line"/>
      <point x="870" y="0" type="line"/>
      <point x="874" y="39" type="line"/>
      <point x="845" y="45"/>
      <point x="822" y="57"/>
      <point x="810" y="66" type="curve"/>
      <point x="810" y="338" type="line" smooth="yes"/>
      <point x="810" y="435"/>
      <point x="750" y="492"/>
      <point x="660" y="492" type="curve" smooth="yes"/>
      <point x="593" y="492"/>
      <point x="539" y="460"/>
      <point x="506" y="410" type="curve"/>
      <point x="483" y="462"/>
      <point x="434" y="492"/>
      <point x="370" y="492" type="curve" smooth="yes"/>
      <point x="310" y="492"/>
      <point x="261" y="466"/>
      <point x="227" y="425" type="curve"/>
      <point x="219" y="483" type="line"/>
      <point x="201" y="492" type="line"/>
      <point x="163" y="481"/>
      <point x="73" y="466"/>
      <point x="30" y="458" type="curve"/>
      <point x="27" y="419" type="line"/>
      <point x="73" y="417"/>
      <point x="90" y="403"/>
      <point x="90" y="354" type="curve" smooth="yes"/>
      <point x="90" y="66" type="line"/>
      <point x="73" y="51"/>
      <point x="62" y="46"/>
      <point x="37" y="41" type="curve"/>
      <point x="34" y="0" type="line"/>
      <point x="287" y="0" type="line"/>
      <point x="291" y="39" type="line"/>
      <point x="266" y="45"/>
      <point x="246" y="54"/>
      <point x="231" y="66" type="curve"/>
      <point x="231" y="370" type="line"/>
      <point x="250" y="403"/>
      <point x="284" y="425"/>
      <point x="318" y="425" type="curve" smooth="yes"/>
      <point x="359" y="425"/>
      <point x="379" y="394"/>
      <point x="379" y="329" type="curve" smooth="yes"/>
      <point x="379" y="66" type="line"/>
      <point x="365" y="52"/>
      <point x="348" y="43"/>
      <point x="330" y="39" type="curve"/>
      <point x="327" y="0" type="line"/>
      <point x="576" y="0" type="line"/>
    </contour>
  </outline>
</glyph>
<glyph name="o" format="1">
  <advance width="569"/>
  <unicode hex="006F"/>
  <outline>
    <contour>
      <point x="191" y="243" type="curve" smooth="yes"/>
      <point x="191" y="380"/>
      <point x="218" y="436"/>
      <point x="285" y="436" type="curve" smooth="yes"/>
      <point x="351" y="436"/>
      <point x="378" y="380"/>
      <point x="378" y="243" type="curve" smooth="yes"/>
      <point x="378" y="105"/>
      <point x="351" y="49"/>
      <point x="285" y="49" type="curve" smooth="yes"/>
      <point x="218" y="49"/>
      <point x="191" y="105"/>
    </contour>
    <contour>
      <point x="44" y="243" type="curve" smooth="yes"/>
      <point x="44" y="81"/>
      <point x="125" y="-7"/>
      <point x="285" y="-7" type="curve" smooth="yes"/>
      <point x="445" y="-7"/>
      <point x="525" y="81"/>
      <point x="525" y="243" type="curve" smooth="yes"/>
      <point x="525" y="405"/>
      <point x="445" y="492"/>
      <point x="285" y="492" type="curve" smooth="yes"/>
      <point x="125" y="492"/>
      <point x="44" y="405"/>
    </contour>
  </outline>
</glyph>
<glyph name="p" format="1">
  <advance width="597"/>
  <unicode hex="0070"/>
  <outline>
    <contour>
      <point x="26" y="419" type="line"/>
      <point x="72" y="417"/>
      <point x="88" y="403"/>
      <point x="88" y="354" type="curve" smooth="yes"/>
      <point x="88" y="-145" type="line"/>
      <point x="72" y="-160"/>
      <point x="60" y="-165"/>
      <point x="36" y="-170" type="curve"/>
      <point x="32" y="-211" type="line"/>
      <point x="299" y="-211" type="line"/>
      <point x="303" y="-172" type="line"/>
      <point x="269" y="-166"/>
      <point x="243" y="-154"/>
      <point x="229" y="-145" type="curve"/>
      <point x="229" y="17" type="line"/>
      <point x="258" y="2"/>
      <point x="285" y="-7"/>
      <point x="329" y="-7" type="curve" smooth="yes"/>
      <point x="469" y="-7"/>
      <point x="550" y="83"/>
      <point x="550" y="256" type="curve" smooth="yes"/>
      <point x="550" y="412"/>
      <point x="483" y="492"/>
      <point x="365" y="492" type="curve" smooth="yes"/>
      <point x="299" y="492"/>
      <point x="252" y="467"/>
      <point x="223" y="416" type="curve"/>
      <point x="213" y="483" type="line"/>
      <point x="195" y="492" type="line"/>
      <point x="157" y="481"/>
      <point x="71" y="466"/>
      <point x="29" y="458" type="curve"/>
    </contour>
    <contour>
      <point x="321" y="432" type="curve" smooth="yes"/>
      <point x="377" y="432"/>
      <point x="403" y="376"/>
      <point x="403" y="256" type="curve" smooth="yes"/>
      <point x="403" y="121"/>
      <point x="370" y="46"/>
      <point x="295" y="46" type="curve" smooth="yes"/>
      <point x="268" y="46"/>
      <point x="242" y="56"/>
      <point x="229" y="66" type="curve"/>
      <point x="229" y="268" type="line" smooth="yes"/>
      <point x="229" y="377"/>
      <point x="265" y="432"/>
    </contour>
  </outline>
</glyph>
<glyph name="q" format="1">
  <advance width="591"/>
  <unicode hex="0071"/>
  <outline>
    <contour>
      <point x="231" y="-7" type="curve" smooth="yes"/>
      <point x="293" y="-7"/>
      <point x="338" y="15"/>
      <point x="367" y="59" type="curve"/>
      <point x="367" y="-145" type="line"/>
      <point x="344" y="-160"/>
      <point x="328" y="-165"/>
      <point x="294" y="-170" type="curve"/>
      <point x="291" y="-211" type="line"/>
      <point x="558" y="-211" type="line"/>
      <point x="561" y="-172" type="line"/>
      <point x="537" y="-166"/>
      <point x="518" y="-154"/>
      <point x="508" y="-145" type="curve"/>
      <point x="508" y="484" type="line"/>
      <point x="434" y="484" type="line"/>
      <point x="400" y="452" type="line"/>
      <point x="359" y="480"/>
      <point x="318" y="492"/>
      <point x="271" y="492" type="curve" smooth="yes"/>
      <point x="134" y="492"/>
      <point x="47" y="407"/>
      <point x="47" y="242" type="curve" smooth="yes"/>
      <point x="47" y="80"/>
      <point x="113" y="-7"/>
    </contour>
    <contour>
      <point x="276" y="53" type="curve" smooth="yes"/>
      <point x="219" y="53"/>
      <point x="193" y="115"/>
      <point x="193" y="243" type="curve" smooth="yes"/>
      <point x="193" y="371"/>
      <point x="228" y="441"/>
      <point x="298" y="441" type="curve" smooth="yes"/>
      <point x="330" y="441"/>
      <point x="352" y="425"/>
      <point x="367" y="408" type="curve"/>
      <point x="367" y="234" type="line" smooth="yes"/>
      <point x="367" y="114"/>
      <point x="335" y="53"/>
    </contour>
  </outline>
</glyph>
<glyph name="s" format="1">
  <advance width="459"/>
  <unicode hex="0073"/>
  <outline>
    <contour>
      <point x="235" y="448" type="curve" smooth="yes"/>
      <point x="295" y="448"/>
      <point x="322" y="395"/>
      <point x="322" y="335" type="curve"/>
      <point x="400" y="335" type="line"/>
      <point x="410" y="460" type="line"/>
      <point x="410" y="460"/>
      <point x="335" y="493"/>
      <point x="235" y="493" type="curve" smooth="yes"/>
      <point x="113" y="493"/>
      <point x="40" y="443"/>
      <point x="40" y="359" type="curve" smooth="yes"/>
      <point x="40" y="281"/>
      <point x="86" y="234"/>
      <point x="195" y="198" type="curve" smooth="yes"/>
      <point x="259" y="176"/>
      <point x="288" y="148"/>
      <point x="288" y="109" type="curve" smooth="yes"/>
      <point x="288" y="71"/>
      <point x="258" y="42"/>
      <point x="218" y="42" type="curve" smooth="yes"/>
      <point x="199" y="42"/>
      <point x="182" y="45"/>
      <point x="163" y="51" type="curve"/>
      <point x="153" y="68"/>
      <point x="143" y="127"/>
      <point x="142" y="170" type="curve"/>
      <point x="39" y="155" type="line"/>
      <point x="39" y="45" type="line"/>
      <point x="78" y="18"/>
      <point x="164" y="-8"/>
      <point x="216" y="-8" type="curve" smooth="yes"/>
      <point x="346" y="-8"/>
      <point x="421" y="47"/>
      <point x="421" y="142" type="curve" smooth="yes"/>
      <point x="421" y="212"/>
      <point x="378" y="259"/>
      <point x="281" y="294" type="curve" smooth="yes"/>
      <point x="196" y="324"/>
      <point x="170" y="345"/>
      <point x="170" y="379" type="curve" smooth="yes"/>
      <point x="170" y="421"/>
      <point x="196" y="448"/>
    </contour>
  </outline>
</glyph>
<glyph name="t" format="1">
  <advance width="365"/>
  <unicode hex="0074"/>
  <outline>
    <contour>
      <point x="342" y="93" type="line"/>
      <point x="322" y="79"/>
      <point x="294" y="68"/>
      <point x="270" y="68" type="curve" smooth="yes"/>
      <point x="243" y="68"/>
      <point x="222" y="82"/>
      <point x="222" y="121" type="curve" smooth="yes"/>
      <point x="222" y="413" type="line"/>
      <point x="351" y="413" type="line"/>
      <point x="351" y="478" type="line"/>
      <point x="223" y="478" type="line"/>
      <point x="223" y="584" type="line"/>
      <point x="158" y="584" type="line"/>
      <point x="127" y="525"/>
      <point x="73" y="483"/>
      <point x="9" y="459" type="curve"/>
      <point x="9" y="413" type="line"/>
      <point x="80" y="413" type="line"/>
      <point x="80" y="113" type="line" smooth="yes"/>
      <point x="80" y="29"/>
      <point x="136" y="-4"/>
      <point x="202" y="-4" type="curve" smooth="yes"/>
      <point x="258" y="-4"/>
      <point x="320" y="20"/>
      <point x="362" y="58" type="curve"/>
    </contour>
  </outline>
</glyph>
<glyph name="v" format="1">
  <advance width="531"/>
  <unicode hex="0076"/>
  <outline>
    <contour>
      <point x="307" y="0" type="line"/>
      <point x="478" y="425" type="line"/>
      <point x="488" y="438"/>
      <point x="508" y="448"/>
      <point x="530" y="449" type="curve"/>
      <point x="534" y="484" type="line"/>
      <point x="348" y="484" type="line"/>
      <point x="344" y="449" type="line"/>
      <point x="368" y="445"/>
      <point x="389" y="440"/>
      <point x="409" y="427" type="curve"/>
      <point x="299" y="151" type="line"/>
      <point x="200" y="430" type="line"/>
      <point x="217" y="443"/>
      <point x="236" y="448"/>
      <point x="257" y="449" type="curve"/>
      <point x="262" y="484" type="line"/>
      <point x="0" y="484" type="line"/>
      <point x="-2" y="449" type="line"/>
      <point x="22" y="445"/>
      <point x="50" y="435"/>
      <point x="60" y="407" type="curve" smooth="yes"/>
      <point x="204" y="0" type="line"/>
    </contour>
  </outline>
</glyph>
<glyph name="w" format="1">
  <advance width="798"/>
  <unicode hex="0077"/>
  <outline>
    <contour>
      <point x="294" y="0" type="line"/>
      <point x="398" y="298" type="line"/>
      <point x="489" y="0" type="line"/>
      <point x="592" y="0" type="line"/>
      <point x="739" y="421" type="line"/>
      <point x="748" y="436"/>
      <point x="769" y="448"/>
      <point x="793" y="449" type="curve"/>
      <point x="797" y="484" type="line"/>
      <point x="611" y="484" type="line"/>
      <point x="607" y="449" type="line"/>
      <point x="631" y="445"/>
      <point x="651" y="440"/>
      <point x="671" y="427" type="curve"/>
      <point x="578" y="153" type="line"/>
      <point x="483" y="484" type="line"/>
      <point x="393" y="484" type="line"/>
      <point x="280" y="154" type="line"/>
      <point x="202" y="428" type="line"/>
      <point x="220" y="443"/>
      <point x="239" y="448"/>
      <point x="261" y="449" type="curve"/>
      <point x="266" y="484" type="line"/>
      <point x="4" y="484" type="line"/>
      <point x="2" y="449" type="line"/>
      <point x="22" y="445"/>
      <point x="46" y="438"/>
      <point x="59" y="418" type="curve"/>
      <point x="191" y="0" type="line"/>
    </contour>
  </outline>
</glyph>
<glyph name="x" format="1">
  <advance width="525"/>
  <unicode hex="0078"/>
  <outline>
    <contour>
      <point x="315" y="54" type="line"/>
      <point x="305" y="46"/>
      <point x="292" y="41"/>
      <point x="276" y="41" type="curve"/>
      <point x="268" y="0" type="line"/>
      <point x="511" y="0" type="line"/>
      <point x="517" y="39" type="line"/>
      <point x="500" y="42"/>
      <point x="482" y="48"/>
      <point x="472" y="62" type="curve" smooth="yes"/>
      <point x="325" y="268" type="line"/>
      <point x="455" y="427" type="line" smooth="yes"/>
      <point x="465" y="439"/>
      <point x="483" y="442"/>
      <point x="502" y="443" type="curve"/>
      <point x="508" y="484" type="line"/>
      <point x="329" y="484" type="line"/>
      <point x="323" y="444" type="line"/>
      <point x="340" y="441"/>
      <point x="357" y="435"/>
      <point x="369" y="424" type="curve"/>
      <point x="287" y="322" type="line"/>
      <point x="211" y="429" type="line"/>
      <point x="221" y="437"/>
      <point x="234" y="440"/>
      <point x="250" y="442" type="curve"/>
      <point x="257" y="483" type="line"/>
      <point x="15" y="483" type="line"/>
      <point x="9" y="444" type="line"/>
      <point x="26" y="440"/>
      <point x="44" y="436"/>
      <point x="55" y="421" type="curve" smooth="yes"/>
      <point x="195" y="223" type="line"/>
      <point x="51" y="55" type="line" smooth="yes"/>
      <point x="42" y="45"/>
      <point x="27" y="42"/>
      <point x="12" y="41" type="curve"/>
      <point x="5" y="0" type="line"/>
      <point x="189" y="0" type="line"/>
      <point x="195" y="39" type="line"/>
      <point x="174" y="43"/>
      <point x="154" y="50"/>
      <point x="138" y="59" type="curve"/>
      <point x="233" y="170" type="line"/>
    </contour>
  </outline>
</glyph>
<glyph name="braceleft" format="1">
  <advance width="393"/>
  <unicode hex="007B"/>
  <outline>
    <contour>
      <point x="80" y="314" type="curve"/>
      <point x="80" y="254" type="line"/>
      <point x="80" y="254"/>
      <point x="142" y="242"/>
      <point x="142" y="182" type="curve" smooth="yes"/>
      <point x="142" y="140"/>
      <point x="116" y="60"/>
      <point x="116" y="19" type="curve" smooth="yes"/>
      <point x="116" y="-92"/>
      <point x="205" y="-165"/>
      <point x="341" y="-165" type="curve"/>
      <point x="341" y="-112" type="line"/>
      <point x="269" y="-108"/>
      <point x="222" y="-59"/>
      <point x="222" y="12" type="curve" smooth="yes"/>
      <point x="222" y="68"/>
      <point x="249" y="107"/>
      <point x="249" y="164" type="curve" smooth="yes"/>
      <point x="249" y="216"/>
      <point x="228" y="260"/>
      <point x="193" y="284" type="curve"/>
      <point x="228" y="307"/>
      <point x="249" y="352"/>
      <point x="249" y="404" type="curve" smooth="yes"/>
      <point x="249" y="461"/>
      <point x="222" y="500"/>
      <point x="222" y="556" type="curve" smooth="yes"/>
      <point x="222" y="626"/>
      <point x="269" y="675"/>
      <point x="341" y="680" type="curve"/>
      <point x="341" y="733" type="line"/>
      <point x="205" y="733"/>
      <point x="116" y="660"/>
      <point x="116" y="549" type="curve" smooth="yes"/>
      <point x="116" y="508"/>
      <point x="142" y="428"/>
      <point x="142" y="386" type="curve" smooth="yes"/>
      <point x="142" y="326"/>
      <point x="80" y="314"/>
    </contour>
  </outline>
</glyph>
<glyph name="bar" format="1">
  <advance width="320"/>
  <unicode hex="007C"/>
  <outline>
    <contour>
      <point x="210" y="-151" type="line"/>
      <point x="210" y="758" type="line"/>
      <point x="110" y="758" type="line"/>
      <point x="110" y="-151" type="line"/>
    </contour>
  </outline>
</glyph>
<glyph name="braceright" format="1">
  <advance width="393"/>
  <unicode hex="007D"/>
  <outline>
    <contour>
      <point x="313" y="314" type="line"/>
      <point x="313" y="314"/>
      <point x="251" y="326"/>
      <point x="251" y="386" type="curve" smooth="yes"/>
      <point x="251" y="428"/>
      <point x="277" y="508"/>
      <point x="277" y="549" type="curve" smooth="yes"/>
      <point x="277" y="660"/>
      <point x="188" y="733"/>
      <point x="52" y="733" type="curve"/>
      <point x="52" y="680" type="line"/>
      <point x="124" y="675"/>
      <point x="171" y="626"/>
      <point x="171" y="556" type="curve" smooth="yes"/>
      <point x="171" y="500"/>
      <point x="144" y="461"/>
      <point x="144" y="404" type="curve" smooth="yes"/>
      <point x="144" y="352"/>
      <point x="165" y="307"/>
      <point x="200" y="284" type="curve"/>
      <point x="165" y="260"/>
      <point x="144" y="216"/>
      <point x="144" y="164" type="curve" smooth="yes"/>
      <point x="144" y="107"/>
      <point x="171" y="68"/>
      <point x="171" y="12" type="curve" smooth="yes"/>
      <point x="171" y="-59"/>
      <point x="124" y="-108"/>
      <point x="52" y="-112" type="curve"/>
      <point x="52" y="-165" type="line"/>
      <point x="188" y="-165"/>
      <point x="277" y="-92"/>
      <point x="277" y="19" type="curve" smooth="yes"/>
      <point x="277" y="60"/>
      <point x="251" y="140"/>
      <point x="251" y="182" type="curve" smooth="yes"/>
      <point x="251" y="242"/>
      <point x="313" y="254"/>
      <point x="313" y="254" type="curve"/>
    </contour>
  </outline>
</glyph>
<glyph name="asciitilde" format="1">
  <advance width="592"/>
  <unicode hex="007E"/>
  <outline>
    <contour>
      <point x="118" y="207" type="curve"/>
      <point x="152" y="252"/>
      <point x="179" y="269"/>
      <point x="207" y="269" type="curve" smooth="yes"/>
      <point x="251" y="269"/>
      <point x="325" y="198"/>
      <point x="387" y="198" type="curve" smooth="yes"/>
      <point x="458" y="198"/>
      <point x="519" y="242"/>
      <point x="558" y="321" type="curve"/>
      <point x="542" y="335"/>
      <point x="524" y="346"/>
      <point x="472" y="371" type="curve"/>
      <point x="443" y="326"/>
      <point x="414" y="304"/>
      <point x="381" y="304" type="curve" smooth="yes"/>
      <point x="321" y="304"/>
      <point x="270" y="377"/>
      <point x="194" y="377" type="curve" smooth="yes"/>
      <point x="125" y="377"/>
      <point x="66" y="335"/>
      <point x="33" y="258" type="curve"/>
      <point x="61" y="235"/>
      <point x="95" y="214"/>
    </contour>
  </outline>
</glyph>
<glyph name="exclamdown" format="1">
  <advance width="335"/>
  <unicode hex="00A1"/>
  <outline>
    <contour>
      <point x="135" y="261" type="line"/>
      <point x="124" y="131"/>
      <point x="80" y="-53"/>
      <point x="80" y="-122" type="curve" smooth="yes"/>
      <point x="80" y="-172"/>
      <point x="100" y="-207"/>
      <point x="172" y="-207" type="curve" smooth="yes"/>
      <point x="209" y="-207"/>
      <point x="233" y="-187"/>
      <point x="240" y="-172" type="curve"/>
      <point x="222" y="-110"/>
      <point x="213" y="-14"/>
      <point x="213" y="78" type="curve" smooth="yes"/>
      <point x="213" y="150"/>
      <point x="218" y="226"/>
      <point x="220" y="277" type="curve"/>
    </contour>
    <contour>
      <point x="181" y="352" type="curve" smooth="yes"/>
      <point x="234" y="352"/>
      <point x="260" y="378"/>
      <point x="260" y="422" type="curve" smooth="yes"/>
      <point x="260" y="467"/>
      <point x="234" y="492"/>
      <point x="181" y="492" type="curve" smooth="yes"/>
      <point x="127" y="492"/>
      <point x="101" y="467"/>
      <point x="101" y="422" type="curve" smooth="yes"/>
      <point x="101" y="378"/>
      <point x="127" y="352"/>
    </contour>
  </outline>
</glyph>
<glyph name="cent" format="1">
  <advance width="469"/>
  <unicode hex="00A2"/>
  <outline>
    <contour>
      <point x="429" y="91" type="curve"/>
      <point x="394" y="126" type="line"/>
      <point x="360" y="92"/>
      <point x="320" y="76"/>
      <point x="280" y="76" type="curve" smooth="yes"/>
      <point x="204" y="76"/>
      <point x="174" y="128"/>
      <point x="174" y="259" type="curve" smooth="yes"/>
      <point x="174" y="379"/>
      <point x="199" y="440"/>
      <point x="249" y="440" type="curve" smooth="yes"/>
      <point x="274" y="440"/>
      <point x="294" y="425"/>
      <point x="294" y="402" type="curve" smooth="yes"/>
      <point x="294" y="388"/>
      <point x="291" y="375"/>
      <point x="282" y="364" type="curve"/>
      <point x="291" y="341"/>
      <point x="318" y="325"/>
      <point x="347" y="325" type="curve" smooth="yes"/>
      <point x="387" y="325"/>
      <point x="419" y="353"/>
      <point x="419" y="389" type="curve" smooth="yes"/>
      <point x="419" y="441"/>
      <point x="360" y="480"/>
      <point x="272" y="484" type="curve"/>
      <point x="272" y="571" type="line"/>
      <point x="226" y="577" type="line"/>
      <point x="212" y="569" type="line"/>
      <point x="212" y="480" type="line"/>
      <point x="97" y="465"/>
      <point x="37" y="386"/>
      <point x="37" y="249" type="curve" smooth="yes"/>
      <point x="37" y="116"/>
      <point x="96" y="40"/>
      <point x="212" y="24" type="curve"/>
      <point x="212" y="-65" type="line"/>
      <point x="262" y="-74" type="line"/>
      <point x="272" y="-63" type="line"/>
      <point x="272" y="22" type="line"/>
      <point x="331" y="25"/>
      <point x="389" y="51"/>
    </contour>
  </outline>
</glyph>
<glyph name="sterling" format="1">
  <advance width="556"/>
  <unicode hex="00A3"/>
  <outline>
    <contour>
      <point x="51" y="349" type="line"/>
      <point x="60" y="299" type="line"/>
      <point x="145" y="299" type="line"/>
      <point x="161" y="248"/>
      <point x="173" y="199"/>
      <point x="178" y="149" type="curve"/>
      <point x="162" y="152"/>
      <point x="144" y="156"/>
      <point x="123" y="156" type="curve" smooth="yes"/>
      <point x="63" y="156"/>
      <point x="20" y="118"/>
      <point x="20" y="69" type="curve" smooth="yes"/>
      <point x="20" y="15"/>
      <point x="64" y="-9"/>
      <point x="115" y="-9" type="curve" smooth="yes"/>
      <point x="172" y="-9"/>
      <point x="212" y="16"/>
      <point x="239" y="52" type="curve"/>
      <point x="305" y="15"/>
      <point x="349" y="-7"/>
      <point x="405" y="-7" type="curve" smooth="yes"/>
      <point x="477" y="-7"/>
      <point x="533" y="17"/>
      <point x="533" y="83" type="curve" smooth="yes"/>
      <point x="533" y="135"/>
      <point x="493" y="160"/>
      <point x="447" y="161" type="curve"/>
      <point x="447" y="143" type="line" smooth="yes"/>
      <point x="447" y="111"/>
      <point x="440" y="76"/>
      <point x="393" y="76" type="curve" smooth="yes"/>
      <point x="355" y="76"/>
      <point x="322" y="85"/>
      <point x="271" y="112" type="curve"/>
      <point x="282" y="142"/>
      <point x="286" y="173"/>
      <point x="286" y="203" type="curve" smooth="yes"/>
      <point x="286" y="236"/>
      <point x="281" y="268"/>
      <point x="276" y="299" type="curve"/>
      <point x="409" y="299" type="line"/>
      <point x="417" y="313" type="line"/>
      <point x="411" y="359" type="line"/>
      <point x="263" y="359" type="line"/>
      <point x="255" y="398"/>
      <point x="249" y="436"/>
      <point x="249" y="476" type="curve" smooth="yes"/>
      <point x="249" y="563"/>
      <point x="276" y="621"/>
      <point x="344" y="621" type="curve" smooth="yes"/>
      <point x="382" y="621"/>
      <point x="404" y="598"/>
      <point x="404" y="568" type="curve" smooth="yes"/>
      <point x="404" y="553"/>
      <point x="398" y="536"/>
      <point x="386" y="520" type="curve"/>
      <point x="393" y="501"/>
      <point x="418" y="487"/>
      <point x="452" y="487" type="curve" smooth="yes"/>
      <point x="490" y="487"/>
      <point x="524" y="515"/>
      <point x="524" y="557" type="curve" smooth="yes"/>
      <point x="524" y="641"/>
      <point x="429" y="675"/>
      <point x="347" y="675" type="curve" smooth="yes"/>
      <point x="199" y="675"/>
      <point x="115" y="601"/>
      <point x="115" y="468" type="curve" smooth="yes"/>
      <point x="115" y="431"/>
      <point x="121" y="395"/>
      <point x="129" y="359" type="curve"/>
      <point x="62" y="359" type="line"/>
    </contour>
    <contour>
      <point x="127" y="48" type="curve" smooth="yes"/>
      <point x="109" y="48"/>
      <point x="101" y="59"/>
      <point x="101" y="71" type="curve" smooth="yes"/>
      <point x="101" y="84"/>
      <point x="111" y="97"/>
      <point x="130" y="97" type="curve" smooth="yes"/>
      <point x="146" y="97"/>
      <point x="161" y="93"/>
      <point x="175" y="88" type="curve"/>
      <point x="164" y="62"/>
      <point x="145" y="48"/>
    </contour>
  </outline>
</glyph>
<glyph name="currency" format="1">
  <advance width="587"/>
  <unicode hex="00A4"/>
  <outline>
    <contour>
      <point x="75" y="293" type="curve" smooth="yes"/>
      <point x="75" y="250"/>
      <point x="91" y="208"/>
      <point x="121" y="171" type="curve"/>
      <point x="65" y="108" type="line"/>
      <point x="134" y="43" type="line"/>
      <point x="203" y="121" type="line"/>
      <point x="226" y="114"/>
      <point x="254" y="110"/>
      <point x="287" y="110" type="curve" smooth="yes"/>
      <point x="320" y="110"/>
      <point x="348" y="113"/>
      <point x="371" y="121" type="curve"/>
      <point x="441" y="44" type="line"/>
      <point x="509" y="108" type="line"/>
      <point x="452" y="170" type="line"/>
      <point x="480" y="206"/>
      <point x="498" y="248"/>
      <point x="498" y="293" type="curve" smooth="yes"/>
      <point x="498" y="339"/>
      <point x="480" y="381"/>
      <point x="450" y="418" type="curve"/>
      <point x="508" y="481" type="line"/>
      <point x="441" y="546" type="line"/>
      <point x="366" y="466" type="line"/>
      <point x="344" y="474"/>
      <point x="319" y="476"/>
      <point x="287" y="476" type="curve" smooth="yes"/>
      <point x="257" y="476"/>
      <point x="231" y="473"/>
      <point x="209" y="466" type="curve"/>
      <point x="134" y="547" type="line"/>
      <point x="66" y="481" type="line"/>
      <point x="123" y="417" type="line"/>
      <point x="91" y="380"/>
      <point x="75" y="338"/>
    </contour>
    <contour>
      <point x="287" y="160" type="curve" smooth="yes"/>
      <point x="232" y="160"/>
      <point x="208" y="212"/>
      <point x="208" y="293" type="curve" smooth="yes"/>
      <point x="208" y="369"/>
      <point x="229" y="426"/>
      <point x="287" y="426" type="curve" smooth="yes"/>
      <point x="341" y="426"/>
      <point x="365" y="373"/>
      <point x="365" y="293" type="curve" smooth="yes"/>
      <point x="365" y="212"/>
      <point x="341" y="160"/>
    </contour>
  </outline>
</glyph>
<glyph name="yen" format="1">
  <advance width="641"/>
  <unicode hex="00A5"/>
  <outline>
    <contour>
      <point x="85" y="285" type="line"/>
      <point x="94" y="235" type="line"/>
      <point x="238" y="235" type="line"/>
      <point x="238" y="66" type="line"/>
      <point x="228" y="55"/>
      <point x="202" y="44"/>
      <point x="181" y="41" type="curve"/>
      <point x="177" y="0" type="line"/>
      <point x="453" y="0" type="line"/>
      <point x="460" y="39" type="line"/>
      <point x="426" y="46"/>
      <point x="400" y="57"/>
      <point x="385" y="71" type="curve"/>
      <point x="385" y="235" type="line"/>
      <point x="518" y="235" type="line"/>
      <point x="526" y="249" type="line"/>
      <point x="520" y="295" type="line"/>
      <point x="398" y="295" type="line"/>
      <point x="420" y="337" type="line"/>
      <point x="518" y="337" type="line"/>
      <point x="526" y="351" type="line"/>
      <point x="520" y="397" type="line"/>
      <point x="450" y="397" type="line"/>
      <point x="556" y="605" type="line"/>
      <point x="568" y="620"/>
      <point x="591" y="626"/>
      <point x="616" y="627" type="curve"/>
      <point x="621" y="667" type="line"/>
      <point x="397" y="667" type="line"/>
      <point x="392" y="627" type="line"/>
      <point x="423" y="623"/>
      <point x="454" y="613"/>
      <point x="472" y="597" type="curve"/>
      <point x="350" y="357" type="line"/>
      <point x="231" y="605" type="line"/>
      <point x="246" y="620"/>
      <point x="266" y="626"/>
      <point x="293" y="627" type="curve"/>
      <point x="299" y="667" type="line"/>
      <point x="28" y="667" type="line"/>
      <point x="23" y="627" type="line"/>
      <point x="46" y="622"/>
      <point x="71" y="615"/>
      <point x="83" y="593" type="curve"/>
      <point x="85" y="590" type="line"/>
      <point x="86" y="588"/>
      <point x="86" y="586"/>
      <point x="87" y="585" type="curve"/>
      <point x="177" y="397" type="line"/>
      <point x="86" y="397" type="line"/>
      <point x="75" y="387" type="line"/>
      <point x="84" y="337" type="line"/>
      <point x="205" y="337" type="line"/>
      <point x="225" y="295" type="line"/>
      <point x="96" y="295" type="line"/>
    </contour>
  </outline>
</glyph>
<glyph name="brokenbar" format="1">
  <advance width="320"/>
  <unicode hex="00A6"/>
  <outline>
    <contour>
      <point x="210" y="387" type="line"/>
      <point x="210" y="758" type="line"/>
      <point x="110" y="758" type="line"/>
      <point x="110" y="387" type="line"/>
    </contour>
    <contour>
      <point x="110" y="229" type="line"/>
      <point x="110" y="-151" type="line"/>
      <point x="210" y="-151" type="line"/>
      <point x="210" y="229" type="line"/>
    </contour>
  </outline>
</glyph>
<glyph name="section" format="1">
  <advance width="533"/>
  <unicode hex="00A7"/>
  <outline>
    <contour>
      <point x="318" y="75" type="curve"/>
      <point x="315" y="37"/>
      <point x="286" y="19"/>
      <point x="258" y="19" type="curve" smooth="yes"/>
      <point x="228" y="19"/>
      <point x="204" y="37"/>
      <point x="204" y="68" type="curve"/>
      <point x="207" y="96"/>
      <point x="220" y="115"/>
      <point x="229" y="124" type="curve"/>
      <point x="217" y="152"/>
      <point x="189" y="166"/>
      <point x="160" y="166" type="curve" smooth="yes"/>
      <point x="119" y="166"/>
      <point x="81" y="138"/>
      <point x="81" y="84" type="curve" smooth="yes"/>
      <point x="81" y="4"/>
      <point x="161" y="-36"/>
      <point x="249" y="-36" type="curve" smooth="yes"/>
      <point x="356" y="-36"/>
      <point x="473" y="23"/>
      <point x="473" y="142" type="curve" smooth="yes"/>
      <point x="473" y="326"/>
      <point x="242" y="439"/>
      <point x="242" y="583" type="curve"/>
      <point x="245" y="621"/>
      <point x="274" y="639"/>
      <point x="302" y="639" type="curve" smooth="yes"/>
      <point x="331" y="639"/>
      <point x="356" y="621"/>
      <point x="356" y="590" type="curve"/>
      <point x="353" y="562"/>
      <point x="340" y="543"/>
      <point x="331" y="534" type="curve"/>
      <point x="342" y="506"/>
      <point x="371" y="492"/>
      <point x="399" y="492" type="curve" smooth="yes"/>
      <point x="441" y="492"/>
      <point x="479" y="519"/>
      <point x="479" y="574" type="curve" smooth="yes"/>
      <point x="479" y="654"/>
      <point x="399" y="694"/>
      <point x="311" y="694" type="curve" smooth="yes"/>
      <point x="204" y="694"/>
      <point x="87" y="635"/>
      <point x="87" y="516" type="curve" smooth="yes"/>
      <point x="87" y="336"/>
      <point x="318" y="220"/>
    </contour>
    <contour>
      <point x="172" y="557" type="curve"/>
      <point x="172" y="419"/>
      <point x="397" y="292"/>
      <point x="397" y="149" type="curve" smooth="yes"/>
      <point x="397" y="133"/>
      <point x="394" y="117"/>
      <point x="388" y="101" type="curve"/>
      <point x="388" y="239"/>
      <point x="163" y="364"/>
      <point x="163" y="508" type="curve" smooth="yes"/>
      <point x="163" y="524"/>
      <point x="166" y="540"/>
    </contour>
  </outline>
</glyph>
<glyph name="dieresis" format="1">
  <advance width="285"/>
  <unicode hex="00A8"/>
  <outline>
    <contour>
      <point x="105" y="541" type="curve" smooth="yes"/>
      <point x="148" y="541"/>
      <point x="171" y="561"/>
      <point x="171" y="598" type="curve" smooth="yes"/>
      <point x="171" y="633"/>
      <point x="148" y="653"/>
      <point x="105" y="653" type="curve" smooth="yes"/>
      <point x="59" y="653"/>
      <point x="40" y="633"/>
      <point x="40" y="598" type="curve" smooth="yes"/>
      <point x="40" y="561"/>
      <point x="59" y="541"/>
    </contour>
    <contour>
      <point x="268" y="541" type="curve" smooth="yes"/>
      <point x="312" y="541"/>
      <point x="335" y="561"/>
      <point x="335" y="598" type="curve" smooth="yes"/>
      <point x="335" y="633"/>
      <point x="312" y="653"/>
      <point x="268" y="653" type="curve" smooth="yes"/>
      <point x="223" y="653"/>
      <point x="203" y="633"/>
      <point x="203" y="598" type="curve" smooth="yes"/>
      <point x="203" y="561"/>
      <point x="223" y="541"/>
    </contour>
  </outline>
</glyph>
<glyph name="ordfeminine" format="1">
  <advance width="420"/>
  <unicode hex="00AA"/>
  <outline>
    <contour>
      <point x="384" y="292" type="line"/>
      <point x="48" y="292" type="line"/>
      <point x="48" y="231" type="line"/>
      <point x="384" y="231" type="line"/>
    </contour>
    <contour>
      <point x="386" y="378" type="line"/>
      <point x="369" y="382"/>
      <point x="353" y="388"/>
      <point x="345" y="393" type="curve"/>
      <point x="345" y="565" type="line" smooth="yes"/>
      <point x="345" y="636"/>
      <point x="294" y="673"/>
      <point x="194" y="673" type="curve" smooth="yes"/>
      <point x="110" y="673"/>
      <point x="59" y="643"/>
      <point x="59" y="593" type="curve" smooth="yes"/>
      <point x="59" y="563"/>
      <point x="85" y="540"/>
      <point x="119" y="540" type="curve" smooth="yes"/>
      <point x="147" y="540"/>
      <point x="168" y="557"/>
      <point x="174" y="584" type="curve"/>
      <point x="164" y="591"/>
      <point x="159" y="600"/>
      <point x="159" y="609" type="curve" smooth="yes"/>
      <point x="159" y="623"/>
      <point x="174" y="635"/>
      <point x="194" y="635" type="curve" smooth="yes"/>
      <point x="224" y="635"/>
      <point x="235" y="616"/>
      <point x="235" y="562" type="curve" smooth="yes"/>
      <point x="235" y="531" type="line"/>
      <point x="184" y="527" type="line" smooth="yes"/>
      <point x="92" y="521"/>
      <point x="45" y="486"/>
      <point x="45" y="427" type="curve" smooth="yes"/>
      <point x="45" y="371"/>
      <point x="82" y="340"/>
      <point x="149" y="340" type="curve" smooth="yes"/>
      <point x="185" y="340"/>
      <point x="215" y="350"/>
      <point x="242" y="373" type="curve"/>
      <point x="247" y="345" type="line"/>
      <point x="382" y="345" type="line"/>
    </contour>
    <contour>
      <point x="150" y="434" type="curve" smooth="yes"/>
      <point x="150" y="466"/>
      <point x="168" y="481"/>
      <point x="211" y="484" type="curve" smooth="yes"/>
      <point x="235" y="486" type="line"/>
      <point x="235" y="421" type="line"/>
      <point x="215" y="402"/>
      <point x="198" y="395"/>
      <point x="181" y="395" type="curve" smooth="yes"/>
      <point x="161" y="395"/>
      <point x="150" y="409"/>
    </contour>
  </outline>
</glyph>
<glyph name="guillemotleft" format="1">
  <advance width="522"/>
  <unicode hex="00AB"/>
  <outline>
    <contour>
      <point x="162" y="240" type="line"/>
      <point x="259" y="426" type="line"/>
      <point x="228" y="450" type="line"/>
      <point x="38" y="258" type="line"/>
      <point x="38" y="222" type="line"/>
      <point x="228" y="31" type="line"/>
      <point x="259" y="55" type="line"/>
    </contour>
    <contour>
      <point x="387" y="240" type="line"/>
      <point x="484" y="426" type="line"/>
      <point x="453" y="450" type="line"/>
      <point x="263" y="258" type="line"/>
      <point x="263" y="222" type="line"/>
      <point x="453" y="31" type="line"/>
      <point x="484" y="55" type="line"/>
    </contour>
  </outline>
</glyph>
<glyph name="logicalnot" format="1">
  <advance width="592"/>
  <unicode hex="00AC"/>
  <outline>
    <contour>
      <point x="49" y="327" type="line"/>
      <point x="426" y="327" type="line"/>
      <point x="426" y="121" type="line"/>
      <point x="526" y="121" type="line"/>
      <point x="526" y="422" type="line"/>
      <point x="49" y="422" type="line"/>
    </contour>
  </outline>
</glyph>
<glyph name="uni00AD" format="1">
  <advance width="337"/>
  <unicode hex="00AD"/>
  <outline>
    <contour>
      <point x="53" y="219" type="line"/>
      <point x="284" y="219" type="line"/>
      <point x="284" y="314" type="line"/>
      <point x="53" y="314" type="line"/>
    </contour>
  </outline>
</glyph>
<glyph name="macron" format="1">
  <advance width="285"/>
  <unicode hex="00AF"/>
  <outline>
    <contour>
      <point x="40" y="558" type="line"/>
      <point x="351" y="558" type="line"/>
      <point x="351" y="626" type="line"/>
      <point x="40" y="626" type="line"/>
    </contour>
  </outline>
</glyph>
<glyph name="degree" format="1">
  <advance width="378"/>
  <unicode hex="00B0"/>
  <outline>
    <contour>
      <point x="37" y="527" type="curve" smooth="yes"/>
      <point x="37" y="444"/>
      <point x="103" y="380"/>
      <point x="187" y="380" type="curve" smooth="yes"/>
      <point x="272" y="380"/>
      <point x="338" y="444"/>
      <point x="338" y="527" type="curve" smooth="yes"/>
      <point x="338" y="611"/>
      <point x="272" y="675"/>
      <point x="187" y="675" type="curve" smooth="yes"/>
      <point x="102" y="675"/>
      <point x="37" y="610"/>
    </contour>
    <contour>
      <point x="116" y="527" type="curve" smooth="yes"/>
      <point x="116" y="584"/>
      <point x="144" y="621"/>
      <point x="187" y="621" type="curve" smooth="yes"/>
      <point x="231" y="621"/>
      <point x="259" y="584"/>
      <point x="259" y="527" type="curve" smooth="yes"/>
      <point x="259" y="470"/>
      <point x="231" y="433"/>
      <point x="187" y="433" type="curve" smooth="yes"/>
      <point x="144" y="433"/>
      <point x="116" y="470"/>
    </contour>
  </outline>
</glyph>
<glyph name="plusminus" format="1">
  <advance width="592"/>
  <unicode hex="00B1"/>
  <outline>
    <contour>
      <point x="71" y="306" type="line"/>
      <point x="244" y="306" type="line"/>
      <point x="244" y="150" type="line"/>
      <point x="344" y="150" type="line"/>
      <point x="344" y="306" type="line"/>
      <point x="520" y="306" type="line"/>
      <point x="520" y="401" type="line"/>
      <point x="344" y="401" type="line"/>
      <point x="344" y="558" type="line"/>
      <point x="244" y="558" type="line"/>
      <point x="244" y="401" type="line"/>
      <point x="71" y="401" type="line"/>
    </contour>
    <contour>
      <point x="70" y="0" type="line"/>
      <point x="519" y="0" type="line"/>
      <point x="519" y="95" type="line"/>
      <point x="70" y="95" type="line"/>
    </contour>
  </outline>
</glyph>
<glyph name="twosuperior" format="1">
  <advance width="437"/>
  <unicode hex="00B2"/>
  <outline>
    <contour>
      <point x="196" y="474" type="line"/>
      <point x="313" y="571"/>
      <point x="361" y="638"/>
      <point x="361" y="701" type="curve" smooth="yes"/>
      <point x="361" y="749"/>
      <point x="337" y="786"/>
      <point x="293" y="805" type="curve" smooth="yes"/>
      <point x="269" y="816"/>
      <point x="241" y="822"/>
      <point x="207" y="822" type="curve" smooth="yes"/>
      <point x="116" y="822"/>
      <point x="58" y="778"/>
      <point x="58" y="719" type="curve" smooth="yes"/>
      <point x="58" y="680"/>
      <point x="87" y="662"/>
      <point x="118" y="662" type="curve" smooth="yes"/>
      <point x="137" y="662"/>
      <point x="159" y="670"/>
      <point x="177" y="686" type="curve"/>
      <point x="166" y="699"/>
      <point x="161" y="711"/>
      <point x="161" y="721" type="curve" smooth="yes"/>
      <point x="161" y="752"/>
      <point x="178" y="777"/>
      <point x="205" y="777" type="curve" smooth="yes"/>
      <point x="236" y="777"/>
      <point x="250" y="755"/>
      <point x="250" y="718" type="curve" smooth="yes"/>
      <point x="250" y="639"/>
      <point x="201" y="573"/>
      <point x="57" y="447" type="curve"/>
      <point x="57" y="405" type="line"/>
      <point x="365" y="405" type="line"/>
      <point x="365" y="474" type="line"/>
    </contour>
  </outline>
</glyph>
<glyph name="threesuperior" format="1">
  <advance width="437"/>
  <unicode hex="00B3"/>
  <outline>
    <contour>
      <point x="152" y="596" type="line"/>
      <point x="219" y="596"/>
      <point x="258" y="568"/>
      <point x="258" y="519" type="curve" smooth="yes"/>
      <point x="258" y="471"/>
      <point x="237" y="453"/>
      <point x="204" y="453" type="curve" smooth="yes"/>
      <point x="170" y="453"/>
      <point x="155" y="470"/>
      <point x="155" y="491" type="curve" smooth="yes"/>
      <point x="155" y="499"/>
      <point x="157" y="509"/>
      <point x="163" y="520" type="curve"/>
      <point x="145" y="533"/>
      <point x="128" y="540"/>
      <point x="112" y="540" type="curve" smooth="yes"/>
      <point x="82" y="540"/>
      <point x="57" y="522"/>
      <point x="57" y="488" type="curve" smooth="yes"/>
      <point x="57" y="431"/>
      <point x="126" y="400"/>
      <point x="204" y="400" type="curve" smooth="yes"/>
      <point x="284" y="400"/>
      <point x="374" y="438"/>
      <point x="374" y="519" type="curve" smooth="yes"/>
      <point x="374" y="570"/>
      <point x="354" y="604"/>
      <point x="290" y="621" type="curve"/>
      <point x="339" y="640"/>
      <point x="363" y="672"/>
      <point x="363" y="715" type="curve" smooth="yes"/>
      <point x="363" y="778"/>
      <point x="302" y="822"/>
      <point x="212" y="822" type="curve" smooth="yes"/>
      <point x="150" y="822"/>
      <point x="61" y="795"/>
      <point x="61" y="727" type="curve" smooth="yes"/>
      <point x="61" y="696"/>
      <point x="82" y="671"/>
      <point x="121" y="671" type="curve" smooth="yes"/>
      <point x="139" y="671"/>
      <point x="158" y="678"/>
      <point x="173" y="693" type="curve"/>
      <point x="166" y="705"/>
      <point x="163" y="718"/>
      <point x="163" y="729" type="curve" smooth="yes"/>
      <point x="163" y="753"/>
      <point x="176" y="777"/>
      <point x="208" y="777" type="curve" smooth="yes"/>
      <point x="232" y="777"/>
      <point x="250" y="760"/>
      <point x="250" y="715" type="curve" smooth="yes"/>
      <point x="250" y="670"/>
      <point x="215" y="648"/>
      <point x="152" y="643" type="curve"/>
    </contour>
  </outline>
</glyph>
<glyph name="acute" format="1">
  <advance width="285"/>
  <unicode hex="00B4"/>
  <outline>
    <contour>
      <point x="191" y="614" type="line" smooth="yes"/>
      <point x="214" y="630"/>
      <point x="223" y="652"/>
      <point x="223" y="670" type="curve" smooth="yes"/>
      <point x="223" y="698"/>
      <point x="205" y="717"/>
      <point x="177" y="717" type="curve" smooth="yes"/>
      <point x="158" y="717"/>
      <point x="136" y="708"/>
      <point x="120" y="683" type="curve" smooth="yes"/>
      <point x="40" y="564" type="line"/>
      <point x="74" y="531" type="line"/>
    </contour>
  </outline>
</glyph>
<glyph name="mu" format="1">
  <advance width="605"/>
  <unicode hex="00B5"/>
  <outline>
    <contour>
      <point x="518" y="62" type="curve"/>
      <point x="518" y="483" type="line"/>
      <point x="500" y="492" type="line"/>
      <point x="462" y="481"/>
      <point x="359" y="466"/>
      <point x="317" y="458" type="curve"/>
      <point x="314" y="419" type="line"/>
      <point x="360" y="417"/>
      <point x="377" y="403"/>
      <point x="377" y="354" type="curve" smooth="yes"/>
      <point x="377" y="115" type="line"/>
      <point x="357" y="81"/>
      <point x="322" y="60"/>
      <point x="287" y="60" type="curve" smooth="yes"/>
      <point x="246" y="60"/>
      <point x="225" y="91"/>
      <point x="225" y="156" type="curve" smooth="yes"/>
      <point x="225" y="483" type="line"/>
      <point x="208" y="492" type="line"/>
      <point x="170" y="481"/>
      <point x="67" y="466"/>
      <point x="25" y="458" type="curve"/>
      <point x="22" y="419" type="line"/>
      <point x="67" y="417"/>
      <point x="84" y="403"/>
      <point x="84" y="354" type="curve" smooth="yes"/>
      <point x="84" y="-211" type="line"/>
      <point x="225" y="-211" type="line"/>
      <point x="225" y="-7" type="line"/>
      <point x="234" y="-7" type="line" smooth="yes"/>
      <point x="296" y="-7"/>
      <point x="348" y="21"/>
      <point x="383" y="64" type="curve"/>
      <point x="393" y="0" type="line"/>
      <point x="584" y="0" type="line"/>
      <point x="587" y="35" type="line"/>
      <point x="559" y="40"/>
      <point x="530" y="52"/>
    </contour>
  </outline>
</glyph>
<glyph name="paragraph" format="1">
  <advance width="588"/>
  <unicode hex="00B6"/>
  <outline>
    <contour>
      <point x="311" y="314" type="curve"/>
      <point x="311" y="-81" type="line" smooth="yes"/>
      <point x="311" y="-113"/>
      <point x="295" y="-133"/>
      <point x="271" y="-133" type="curve" smooth="yes"/>
      <point x="252" y="-133"/>
      <point x="240" y="-121"/>
      <point x="240" y="-101" type="curve" smooth="yes"/>
      <point x="240" y="-85"/>
      <point x="245" y="-73"/>
      <point x="258" y="-62" type="curve"/>
      <point x="248" y="-46"/>
      <point x="230" y="-37"/>
      <point x="208" y="-37" type="curve" smooth="yes"/>
      <point x="172" y="-37"/>
      <point x="146" y="-62"/>
      <point x="146" y="-97" type="curve" smooth="yes"/>
      <point x="146" y="-150"/>
      <point x="190" y="-179"/>
      <point x="271" y="-179" type="curve" smooth="yes"/>
      <point x="378" y="-179"/>
      <point x="451" y="-115"/>
      <point x="451" y="0" type="curve" smooth="yes"/>
      <point x="451" y="598" type="line"/>
      <point x="472" y="611"/>
      <point x="498" y="619"/>
      <point x="541" y="625" type="curve"/>
      <point x="546" y="667" type="line"/>
      <point x="311" y="667" type="line" smooth="yes"/>
      <point x="131" y="667"/>
      <point x="47" y="610"/>
      <point x="47" y="489" type="curve" smooth="yes"/>
      <point x="47" y="369"/>
      <point x="129" y="314"/>
    </contour>
    <contour>
      <point x="206" y="490" type="curve" smooth="yes"/>
      <point x="206" y="578"/>
      <point x="237" y="618"/>
      <point x="311" y="618" type="curve"/>
      <point x="311" y="363" type="line"/>
      <point x="241" y="363"/>
      <point x="206" y="407"/>
    </contour>
    <contour>
      <point x="366" y="620" type="line"/>
      <point x="402" y="617" type="line"/>
      <point x="402" y="-47" type="line" smooth="yes"/>
      <point x="402" y="-94"/>
      <point x="385" y="-122"/>
      <point x="350" y="-132" type="curve"/>
      <point x="359" y="-123"/>
      <point x="366" y="-99"/>
      <point x="366" y="-78" type="curve" smooth="yes"/>
    </contour>
  </outline>
</glyph>
<glyph name="periodcentered" format="1">
  <advance width="276"/>
  <unicode hex="00B7"/>
  <outline>
    <contour>
      <point x="138" y="377" type="curve" smooth="yes"/>
      <point x="90" y="377"/>
      <point x="68" y="348"/>
      <point x="68" y="300" type="curve" smooth="yes"/>
      <point x="68" y="255"/>
      <point x="90" y="224"/>
      <point x="138" y="224" type="curve" smooth="yes"/>
      <point x="186" y="224"/>
      <point x="208" y="253"/>
      <point x="208" y="300" type="curve" smooth="yes"/>
      <point x="208" y="347"/>
      <point x="186" y="377"/>
    </contour>
  </outline>
</glyph>
<glyph name="cedilla" format="1">
  <advance width="285"/>
  <unicode hex="00B8"/>
  <outline>
    <contour>
      <point x="88" y="-49" type="line"/>
      <point x="109" y="-73" type="line"/>
      <point x="141" y="-76"/>
      <point x="168" y="-90"/>
      <point x="168" y="-124" type="curve" smooth="yes"/>
      <point x="168" y="-153"/>
      <point x="154" y="-168"/>
      <point x="132" y="-168" type="curve" smooth="yes"/>
      <point x="111" y="-168"/>
      <point x="100" y="-146"/>
      <point x="100" y="-125" type="curve" smooth="yes"/>
      <point x="100" y="-114"/>
      <point x="103" y="-103"/>
      <point x="109" y="-96" type="curve"/>
      <point x="95" y="-89"/>
      <point x="87" y="-87"/>
      <point x="78" y="-87" type="curve" smooth="yes"/>
      <point x="48" y="-87"/>
      <point x="31" y="-108"/>
      <point x="31" y="-130" type="curve" smooth="yes"/>
      <point x="31" y="-166"/>
      <point x="61" y="-210"/>
      <point x="135" y="-210" type="curve" smooth="yes"/>
      <point x="197" y="-210"/>
      <point x="242" y="-170"/>
      <point x="242" y="-118" type="curve" smooth="yes"/>
      <point x="242" y="-71"/>
      <point x="215" y="-51"/>
      <point x="173" y="-39" type="curve"/>
      <point x="181" y="7" type="line"/>
      <point x="142" y="16" type="line"/>
    </contour>
  </outline>
</glyph>
<glyph name="onesuperior" format="1">
  <advance width="437"/>
  <unicode hex="00B9"/>
  <outline>
    <contour>
      <point x="86" y="405" type="line"/>
      <point x="364" y="405" type="line"/>
      <point x="367" y="444" type="line"/>
      <point x="351" y="445"/>
      <point x="303" y="452"/>
      <point x="283" y="460" type="curve"/>
      <point x="283" y="807" type="line"/>
      <point x="258" y="817" type="line"/>
      <point x="212" y="799"/>
      <point x="144" y="787"/>
      <point x="89" y="784" type="curve"/>
      <point x="89" y="739" type="line"/>
      <point x="178" y="739" type="line"/>
      <point x="178" y="461" type="line"/>
      <point x="158" y="453"/>
      <point x="126" y="447"/>
      <point x="88" y="443" type="curve"/>
    </contour>
  </outline>
</glyph>
<glyph name="ordmasculine" format="1">
  <advance width="436"/>
  <unicode hex="00BA"/>
  <outline>
    <contour>
      <point x="386" y="292" type="line"/>
      <point x="50" y="292" type="line"/>
      <point x="50" y="231" type="line"/>
      <point x="386" y="231" type="line"/>
    </contour>
    <contour>
      <point x="164" y="506" type="curve" smooth="yes"/>
      <point x="164" y="589"/>
      <point x="179" y="623"/>
      <point x="218" y="623" type="curve" smooth="yes"/>
      <point x="256" y="623"/>
      <point x="271" y="589"/>
      <point x="271" y="506" type="curve" smooth="yes"/>
      <point x="271" y="422"/>
      <point x="256" y="388"/>
      <point x="218" y="388" type="curve" smooth="yes"/>
      <point x="179" y="388"/>
      <point x="164" y="422"/>
    </contour>
    <contour>
      <point x="49" y="506" type="curve" smooth="yes"/>
      <point x="49" y="398"/>
      <point x="106" y="339"/>
      <point x="218" y="339" type="curve" smooth="yes"/>
      <point x="330" y="339"/>
      <point x="386" y="398"/>
      <point x="386" y="506" type="curve" smooth="yes"/>
      <point x="386" y="614"/>
      <point x="330" y="672"/>
      <point x="218" y="672" type="curve" smooth="yes"/>
      <point x="106" y="672"/>
      <point x="49" y="614"/>
    </contour>
  </outline>
</glyph>
<glyph name="guillemotright" format="1">
  <advance width="522"/>
  <unicode hex="00BB"/>
  <outline>
    <contour>
      <point x="262" y="55" type="line"/>
      <point x="293" y="31" type="line"/>
      <point x="483" y="222" type="line"/>
      <point x="483" y="258" type="line"/>
      <point x="293" y="450" type="line"/>
      <point x="262" y="426" type="line"/>
      <point x="359" y="240" type="line"/>
    </contour>
    <contour>
      <point x="37" y="55" type="line"/>
      <point x="68" y="31" type="line"/>
      <point x="258" y="222" type="line"/>
      <point x="258" y="258" type="line"/>
      <point x="68" y="450" type="line"/>
      <point x="37" y="426" type="line"/>
      <point x="134" y="240" type="line"/>
    </contour>
  </outline>
</glyph>
<glyph name="onequarter" format="1">
  <advance width="941"/>
  <unicode hex="00BC"/>
  <outline>
    <contour>
      <point x="115" y="257" type="line"/>
      <point x="393" y="257" type="line"/>
      <point x="396" y="296" type="line"/>
      <point x="380" y="297"/>
      <point x="332" y="304"/>
      <point x="312" y="312" type="curve"/>
      <point x="312" y="659" type="line"/>
      <point x="287" y="669" type="line"/>
      <point x="241" y="651"/>
      <point x="173" y="639"/>
      <point x="118" y="636" type="curve"/>
      <point x="118" y="591" type="line"/>
      <point x="207" y="591" type="line"/>
      <point x="207" y="313" type="line"/>
      <point x="187" y="305"/>
      <point x="155" y="299"/>
      <point x="117" y="295" type="curve"/>
    </contour>
    <contour>
      <point x="362" y="-30" type="line"/>
      <point x="683" y="652" type="line"/>
      <point x="617" y="684" type="line"/>
      <point x="296" y="2" type="line"/>
    </contour>
    <contour>
      <point x="754" y="111" type="line"/>
      <point x="754" y="44" type="line"/>
      <point x="738" y="36"/>
      <point x="719" y="32"/>
      <point x="698" y="30" type="curve"/>
      <point x="693" y="0" type="line"/>
      <point x="901" y="0" type="line"/>
      <point x="905" y="30" type="line"/>
      <point x="886" y="32"/>
      <point x="866" y="36"/>
      <point x="850" y="44" type="curve"/>
      <point x="850" y="112" type="line"/>
      <point x="909" y="112" type="line"/>
      <point x="909" y="164" type="line"/>
      <point x="850" y="164" type="line"/>
      <point x="850" y="416" type="line"/>
      <point x="749" y="416" type="line"/>
      <point x="572" y="136" type="line"/>
      <point x="577" y="111" type="line"/>
    </contour>
    <contour>
      <point x="754" y="301" type="line"/>
      <point x="754" y="163" type="line"/>
      <point x="670" y="163" type="line"/>
    </contour>
  </outline>
</glyph>
<glyph name="onehalf" format="1">
  <advance width="976"/>
  <unicode hex="00BD"/>
  <outline>
    <contour>
      <point x="116" y="257" type="line"/>
      <point x="394" y="257" type="line"/>
      <point x="397" y="296" type="line"/>
      <point x="381" y="297"/>
      <point x="333" y="304"/>
      <point x="313" y="312" type="curve"/>
      <point x="313" y="659" type="line"/>
      <point x="288" y="669" type="line"/>
      <point x="242" y="651"/>
      <point x="174" y="639"/>
      <point x="119" y="636" type="curve"/>
      <point x="119" y="591" type="line"/>
      <point x="208" y="591" type="line"/>
      <point x="208" y="313" type="line"/>
      <point x="188" y="305"/>
      <point x="156" y="299"/>
      <point x="118" y="295" type="curve"/>
    </contour>
    <contour>
      <point x="358" y="-30" type="line"/>
      <point x="679" y="652" type="line"/>
      <point x="613" y="684" type="line"/>
      <point x="292" y="2" type="line"/>
    </contour>
    <contour>
      <point x="751" y="66" type="line"/>
      <point x="868" y="163"/>
      <point x="916" y="230"/>
      <point x="916" y="293" type="curve" smooth="yes"/>
      <point x="916" y="341"/>
      <point x="892" y="378"/>
      <point x="848" y="397" type="curve" smooth="yes"/>
      <point x="824" y="408"/>
      <point x="796" y="414"/>
      <point x="762" y="414" type="curve" smooth="yes"/>
      <point x="671" y="414"/>
      <point x="613" y="370"/>
      <point x="613" y="311" type="curve" smooth="yes"/>
      <point x="613" y="272"/>
      <point x="642" y="254"/>
      <point x="673" y="254" type="curve" smooth="yes"/>
      <point x="692" y="254"/>
      <point x="714" y="262"/>
      <point x="732" y="278" type="curve"/>
      <point x="721" y="291"/>
      <point x="716" y="303"/>
      <point x="716" y="313" type="curve" smooth="yes"/>
      <point x="716" y="344"/>
      <point x="733" y="369"/>
      <point x="760" y="369" type="curve" smooth="yes"/>
      <point x="791" y="369"/>
      <point x="805" y="347"/>
      <point x="805" y="310" type="curve" smooth="yes"/>
      <point x="805" y="231"/>
      <point x="756" y="165"/>
      <point x="612" y="39" type="curve"/>
      <point x="612" y="-3" type="line"/>
      <point x="920" y="-3" type="line"/>
      <point x="920" y="66" type="line"/>
    </contour>
  </outline>
</glyph>
<glyph name="threequarters" format="1">
  <advance width="941"/>
  <unicode hex="00BE"/>
  <outline>
    <contour>
      <point x="147" y="448" type="line"/>
      <point x="214" y="448"/>
      <point x="253" y="420"/>
      <point x="253" y="371" type="curve" smooth="yes"/>
      <point x="253" y="323"/>
      <point x="232" y="305"/>
      <point x="199" y="305" type="curve" smooth="yes"/>
      <point x="165" y="305"/>
      <point x="150" y="322"/>
      <point x="150" y="343" type="curve" smooth="yes"/>
      <point x="150" y="351"/>
      <point x="152" y="361"/>
      <point x="158" y="372" type="curve"/>
      <point x="140" y="385"/>
      <point x="123" y="392"/>
      <point x="107" y="392" type="curve" smooth="yes"/>
      <point x="77" y="392"/>
      <point x="52" y="374"/>
      <point x="52" y="340" type="curve" smooth="yes"/>
      <point x="52" y="283"/>
      <point x="121" y="252"/>
      <point x="199" y="252" type="curve" smooth="yes"/>
      <point x="279" y="252"/>
      <point x="369" y="290"/>
      <point x="369" y="371" type="curve" smooth="yes"/>
      <point x="369" y="422"/>
      <point x="349" y="456"/>
      <point x="285" y="473" type="curve"/>
      <point x="334" y="492"/>
      <point x="358" y="524"/>
      <point x="358" y="567" type="curve" smooth="yes"/>
      <point x="358" y="630"/>
      <point x="297" y="674"/>
      <point x="207" y="674" type="curve" smooth="yes"/>
      <point x="145" y="674"/>
      <point x="56" y="647"/>
      <point x="56" y="579" type="curve" smooth="yes"/>
      <point x="56" y="548"/>
      <point x="77" y="523"/>
      <point x="116" y="523" type="curve" smooth="yes"/>
      <point x="134" y="523"/>
      <point x="153" y="530"/>
      <point x="168" y="545" type="curve"/>
      <point x="161" y="557"/>
      <point x="158" y="570"/>
      <point x="158" y="581" type="curve" smooth="yes"/>
      <point x="158" y="605"/>
      <point x="171" y="629"/>
      <point x="203" y="629" type="curve" smooth="yes"/>
      <point x="227" y="629"/>
      <point x="245" y="612"/>
      <point x="245" y="567" type="curve" smooth="yes"/>
      <point x="245" y="522"/>
      <point x="210" y="500"/>
      <point x="147" y="495" type="curve"/>
    </contour>
    <contour>
      <point x="362" y="-30" type="line"/>
      <point x="683" y="652" type="line"/>
      <point x="617" y="684" type="line"/>
      <point x="296" y="2" type="line"/>
    </contour>
    <contour>
      <point x="754" y="111" type="line"/>
      <point x="754" y="44" type="line"/>
      <point x="738" y="36"/>
      <point x="719" y="32"/>
      <point x="698" y="30" type="curve"/>
      <point x="693" y="0" type="line"/>
      <point x="901" y="0" type="line"/>
      <point x="905" y="30" type="line"/>
      <point x="886" y="32"/>
      <point x="866" y="36"/>
      <point x="850" y="44" type="curve"/>
      <point x="850" y="112" type="line"/>
      <point x="909" y="112" type="line"/>
      <point x="909" y="164" type="line"/>
      <point x="850" y="164" type="line"/>
      <point x="850" y="416" type="line"/>
      <point x="749" y="416" type="line"/>
      <point x="572" y="136" type="line"/>
      <point x="577" y="111" type="line"/>
    </contour>
    <contour>
      <point x="754" y="301" type="line"/>
      <point x="754" y="163" type="line"/>
      <point x="670" y="163" type="line"/>
    </contour>
  </outline>
</glyph>
<glyph name="questiondown" format="1">
  <advance width="452"/>
  <unicode hex="00BF"/>
  <outline>
    <contour>
      <point x="313" y="201" type="curve" smooth="yes"/>
      <point x="313" y="259"/>
      <point x="276" y="285"/>
      <point x="235" y="285" type="curve" smooth="yes"/>
      <point x="213" y="285"/>
      <point x="190" y="276"/>
      <point x="170" y="260" type="curve"/>
      <point x="180" y="239"/>
      <point x="186" y="219"/>
      <point x="186" y="203" type="curve" smooth="yes"/>
      <point x="186" y="111"/>
      <point x="33" y="75"/>
      <point x="33" y="-64" type="curve" smooth="yes"/>
      <point x="33" y="-157"/>
      <point x="105" y="-201"/>
      <point x="218" y="-201" type="curve" smooth="yes"/>
      <point x="314" y="-201"/>
      <point x="405" y="-160"/>
      <point x="405" y="-89" type="curve" smooth="yes"/>
      <point x="405" y="-38"/>
      <point x="364" y="-12"/>
      <point x="324" y="-12" type="curve" smooth="yes"/>
      <point x="293" y="-12"/>
      <point x="262" y="-28"/>
      <point x="250" y="-58" type="curve"/>
      <point x="274" y="-77"/>
      <point x="280" y="-93"/>
      <point x="280" y="-111" type="curve" smooth="yes"/>
      <point x="280" y="-139"/>
      <point x="255" y="-155"/>
      <point x="229" y="-155" type="curve" smooth="yes"/>
      <point x="199" y="-155"/>
      <point x="167" y="-134"/>
      <point x="167" y="-84" type="curve" smooth="yes"/>
      <point x="167" y="71"/>
      <point x="313" y="72"/>
    </contour>
    <contour>
      <point x="237" y="487" type="curve" smooth="yes"/>
      <point x="184" y="487"/>
      <point x="158" y="461"/>
      <point x="158" y="417" type="curve" smooth="yes"/>
      <point x="158" y="372"/>
      <point x="184" y="347"/>
      <point x="237" y="347" type="curve" smooth="yes"/>
      <point x="291" y="347"/>
      <point x="317" y="372"/>
      <point x="317" y="417" type="curve" smooth="yes"/>
      <point x="317" y="461"/>
      <point x="291" y="487"/>
    </contour>
  </outline>
</glyph>
<glyph name="Agrave" format="1">
  <advance width="652"/>
  <unicode hex="00C0"/>
  <outline>
    <contour>
      <point x="439" y="65" type="line"/>
      <point x="429" y="52"/>
      <point x="407" y="44"/>
      <point x="379" y="40" type="curve"/>
      <point x="373" y="0" type="line"/>
      <point x="647" y="0" type="line"/>
      <point x="652" y="40" type="line"/>
      <point x="628" y="44"/>
      <point x="604" y="52"/>
      <point x="591" y="74" type="curve"/>
      <point x="376" y="667" type="line"/>
      <point x="272" y="667" type="line"/>
      <point x="59" y="65" type="line"/>
      <point x="48" y="48"/>
      <point x="24" y="41"/>
      <point x="-2" y="40" type="curve"/>
      <point x="-8" y="0" type="line"/>
      <point x="218" y="0" type="line"/>
      <point x="223" y="40" type="line"/>
      <point x="189" y="44"/>
      <point x="157" y="54"/>
      <point x="138" y="70" type="curve"/>
      <point x="186" y="208" type="line"/>
      <point x="392" y="208" type="line"/>
    </contour>
    <contour>
      <point x="293" y="511" type="line"/>
      <point x="371" y="271" type="line"/>
      <point x="208" y="271" type="line"/>
    </contour>
    <contour>
      <point x="349" y="706" type="line"/>
      <point x="383" y="739" type="line"/>
      <point x="303" y="858" type="line" smooth="yes"/>
      <point x="286" y="883"/>
      <point x="264" y="892"/>
      <point x="246" y="892" type="curve" smooth="yes"/>
      <point x="218" y="892"/>
      <point x="199" y="873"/>
      <point x="199" y="845" type="curve"/>
      <point x="200" y="827"/>
      <point x="209" y="805"/>
      <point x="232" y="789" type="curve" smooth="yes"/>
    </contour>
  </outline>
</glyph>
<glyph name="Acircumflex" format="1">
  <advance width="652"/>
  <unicode hex="00C2"/>
  <outline>
    <contour>
      <point x="439" y="65" type="line"/>
      <point x="429" y="52"/>
      <point x="407" y="44"/>
      <point x="379" y="40" type="curve"/>
      <point x="373" y="0" type="line"/>
      <point x="647" y="0" type="line"/>
      <point x="652" y="40" type="line"/>
      <point x="628" y="44"/>
      <point x="604" y="52"/>
      <point x="591" y="74" type="curve"/>
      <point x="376" y="667" type="line"/>
      <point x="272" y="667" type="line"/>
      <point x="59" y="65" type="line"/>
      <point x="48" y="48"/>
      <point x="24" y="41"/>
      <point x="-2" y="40" type="curve"/>
      <point x="-8" y="0" type="line"/>
      <point x="218" y="0" type="line"/>
      <point x="223" y="40" type="line"/>
      <point x="189" y="44"/>
      <point x="157" y="54"/>
      <point x="138" y="70" type="curve"/>
      <point x="186" y="208" type="line"/>
      <point x="392" y="208" type="line"/>
    </contour>
    <contour>
      <point x="293" y="511" type="line"/>
      <point x="371" y="271" type="line"/>
      <point x="208" y="271" type="line"/>
    </contour>
    <contour>
      <point x="443" y="705" type="line"/>
      <point x="472" y="742" type="line"/>
      <point x="377" y="849" type="line" smooth="yes"/>
      <point x="360" y="868"/>
      <point x="348" y="876"/>
      <point x="327" y="876" type="curve" smooth="yes"/>
      <point x="303" y="876"/>
      <point x="286" y="868"/>
      <point x="269" y="849" type="curve" smooth="yes"/>
      <point x="174" y="742" type="line"/>
      <point x="203" y="705" type="line"/>
      <point x="323" y="788" type="line"/>
    </contour>
  </outline>
</glyph>
<glyph name="Atilde" format="1">
  <advance width="652"/>
  <unicode hex="00C3"/>
  <outline>
    <contour>
      <point x="439" y="65" type="line"/>
      <point x="429" y="52"/>
      <point x="407" y="44"/>
      <point x="379" y="40" type="curve"/>
      <point x="373" y="0" type="line"/>
      <point x="647" y="0" type="line"/>
      <point x="652" y="40" type="line"/>
      <point x="628" y="44"/>
      <point x="604" y="52"/>
      <point x="591" y="74" type="curve"/>
      <point x="376" y="667" type="line"/>
      <point x="272" y="667" type="line"/>
      <point x="59" y="65" type="line"/>
      <point x="48" y="48"/>
      <point x="24" y="41"/>
      <point x="-2" y="40" type="curve"/>
      <point x="-8" y="0" type="line"/>
      <point x="218" y="0" type="line"/>
      <point x="223" y="40" type="line"/>
      <point x="189" y="44"/>
      <point x="157" y="54"/>
      <point x="138" y="70" type="curve"/>
      <point x="186" y="208" type="line"/>
      <point x="392" y="208" type="line"/>
    </contour>
    <contour>
      <point x="293" y="511" type="line"/>
      <point x="371" y="271" type="line"/>
      <point x="208" y="271" type="line"/>
    </contour>
    <contour>
      <point x="389" y="813" type="curve" smooth="yes"/>
      <point x="348" y="813"/>
      <point x="306" y="853"/>
      <point x="265" y="853" type="curve" smooth="yes"/>
      <point x="218" y="853"/>
      <point x="179" y="815"/>
      <point x="153" y="759" type="curve"/>
      <point x="166" y="744"/>
      <point x="188" y="732"/>
      <point x="201" y="727" type="curve"/>
      <point x="219" y="751"/>
      <point x="240" y="765"/>
      <point x="260" y="765" type="curve" smooth="yes"/>
      <point x="301" y="765"/>
      <point x="344" y="726"/>
      <point x="385" y="726" type="curve" smooth="yes"/>
      <point x="432" y="726"/>
      <point x="470" y="765"/>
      <point x="496" y="821" type="curve"/>
      <point x="483" y="835"/>
      <point x="461" y="847"/>
      <point x="448" y="852" type="curve"/>
      <point x="431" y="829"/>
      <point x="409" y="813"/>
    </contour>
  </outline>
</glyph>
<glyph name="Adieresis" format="1">
  <advance width="652"/>
  <unicode hex="00C4"/>
  <outline>
    <contour>
      <point x="439" y="65" type="line"/>
      <point x="429" y="52"/>
      <point x="407" y="44"/>
      <point x="379" y="40" type="curve"/>
      <point x="373" y="0" type="line"/>
      <point x="647" y="0" type="line"/>
      <point x="652" y="40" type="line"/>
      <point x="628" y="44"/>
      <point x="604" y="52"/>
      <point x="591" y="74" type="curve"/>
      <point x="376" y="667" type="line"/>
      <point x="272" y="667" type="line"/>
      <point x="59" y="65" type="line"/>
      <point x="48" y="48"/>
      <point x="24" y="41"/>
      <point x="-2" y="40" type="curve"/>
      <point x="-8" y="0" type="line"/>
      <point x="218" y="0" type="line"/>
      <point x="223" y="40" type="line"/>
      <point x="189" y="44"/>
      <point x="157" y="54"/>
      <point x="138" y="70" type="curve"/>
      <point x="186" y="208" type="line"/>
      <point x="392" y="208" type="line"/>
    </contour>
    <contour>
      <point x="293" y="511" type="line"/>
      <point x="371" y="271" type="line"/>
      <point x="208" y="271" type="line"/>
    </contour>
    <contour>
      <point x="241" y="717" type="curve" smooth="yes"/>
      <point x="284" y="717"/>
      <point x="307" y="737"/>
      <point x="307" y="774" type="curve" smooth="yes"/>
      <point x="307" y="809"/>
      <point x="284" y="829"/>
      <point x="241" y="829" type="curve" smooth="yes"/>
      <point x="195" y="829"/>
      <point x="176" y="809"/>
      <point x="176" y="774" type="curve" smooth="yes"/>
      <point x="176" y="737"/>
      <point x="195" y="717"/>
    </contour>
    <contour>
      <point x="404" y="717" type="curve" smooth="yes"/>
      <point x="448" y="717"/>
      <point x="471" y="737"/>
      <point x="471" y="774" type="curve" smooth="yes"/>
      <point x="471" y="809"/>
      <point x="448" y="829"/>
      <point x="404" y="829" type="curve" smooth="yes"/>
      <point x="359" y="829"/>
      <point x="339" y="809"/>
      <point x="339" y="774" type="curve" smooth="yes"/>
      <point x="339" y="737"/>
      <point x="359" y="717"/>
    </contour>
  </outline>
</glyph>
<glyph name="Aring" format="1">
  <advance width="652"/>
  <unicode hex="00C5"/>
  <outline>
    <contour>
      <point x="439" y="65" type="line"/>
      <point x="429" y="52"/>
      <point x="407" y="44"/>
      <point x="379" y="40" type="curve"/>
      <point x="373" y="0" type="line"/>
      <point x="647" y="0" type="line"/>
      <point x="652" y="40" type="line"/>
      <point x="628" y="44"/>
      <point x="604" y="52"/>
      <point x="591" y="74" type="curve"/>
      <point x="376" y="667" type="line"/>
      <point x="272" y="667" type="line"/>
      <point x="59" y="65" type="line"/>
      <point x="48" y="48"/>
      <point x="24" y="41"/>
      <point x="-2" y="40" type="curve"/>
      <point x="-8" y="0" type="line"/>
      <point x="218" y="0" type="line"/>
      <point x="223" y="40" type="line"/>
      <point x="189" y="44"/>
      <point x="157" y="54"/>
      <point x="138" y="70" type="curve"/>
      <point x="186" y="208" type="line"/>
      <point x="392" y="208" type="line"/>
    </contour>
    <contour>
      <point x="293" y="511" type="line"/>
      <point x="371" y="271" type="line"/>
      <point x="208" y="271" type="line"/>
    </contour>
    <contour>
      <point x="212" y="806" type="curve" smooth="yes"/>
      <point x="212" y="749"/>
      <point x="255" y="704"/>
      <point x="324" y="704" type="curve" smooth="yes"/>
      <point x="393" y="704"/>
      <point x="437" y="749"/>
      <point x="437" y="806" type="curve" smooth="yes"/>
      <point x="437" y="863"/>
      <point x="393" y="909"/>
      <point x="324" y="909" type="curve" smooth="yes"/>
      <point x="255" y="909"/>
      <point x="212" y="863"/>
    </contour>
    <contour>
      <point x="284" y="806" type="curve" smooth="yes"/>
      <point x="284" y="837"/>
      <point x="295" y="862"/>
      <point x="324" y="862" type="curve" smooth="yes"/>
      <point x="353" y="862"/>
      <point x="365" y="837"/>
      <point x="365" y="806" type="curve" smooth="yes"/>
      <point x="365" y="775"/>
      <point x="353" y="751"/>
      <point x="324" y="751" type="curve" smooth="yes"/>
      <point x="295" y="751"/>
      <point x="284" y="775"/>
    </contour>
  </outline>
</glyph>
<glyph name="AE" format="1">
  <advance width="880"/>
  <unicode hex="00C6"/>
  <outline>
    <contour>
      <point x="828" y="667" type="line"/>
      <point x="375" y="667" type="line"/>
      <point x="67" y="71" type="line"/>
      <point x="58" y="50"/>
      <point x="32" y="41"/>
      <point x="3" y="40" type="curve"/>
      <point x="-3" y="0" type="line"/>
      <point x="223" y="0" type="line"/>
      <point x="228" y="40" type="line"/>
      <point x="196" y="44"/>
      <point x="166" y="52"/>
      <point x="146" y="68" type="curve"/>
      <point x="217" y="208" type="line"/>
      <point x="415" y="208" type="line"/>
      <point x="415" y="66" type="line"/>
      <point x="405" y="55"/>
      <point x="379" y="44"/>
      <point x="358" y="41" type="curve"/>
      <point x="354" y="0" type="line"/>
      <point x="833" y="0" type="line"/>
      <point x="843" y="189" type="line"/>
      <point x="832" y="191"/>
      <point x="821" y="192"/>
      <point x="810" y="192" type="curve" smooth="yes"/>
      <point x="795" y="192"/>
      <point x="783" y="191"/>
      <point x="769" y="189" type="curve"/>
      <point x="759" y="135"/>
      <point x="743" y="93"/>
      <point x="722" y="62" type="curve"/>
      <point x="562" y="62" type="line"/>
      <point x="562" y="318" type="line"/>
      <point x="639" y="310" type="line" smooth="yes"/>
      <point x="662" y="308"/>
      <point x="677" y="290"/>
      <point x="696" y="236" type="curve"/>
      <point x="748" y="236" type="line"/>
      <point x="748" y="443" type="line"/>
      <point x="696" y="443" type="line"/>
      <point x="686" y="404"/>
      <point x="664" y="378"/>
      <point x="640" y="376" type="curve" smooth="yes"/>
      <point x="562" y="369" type="line"/>
      <point x="562" y="606" type="line"/>
      <point x="715" y="606" type="line"/>
      <point x="735" y="579"/>
      <point x="747" y="550"/>
      <point x="758" y="499" type="curve"/>
      <point x="769" y="497"/>
      <point x="780" y="495"/>
      <point x="790" y="495" type="curve" smooth="yes"/>
      <point x="805" y="495"/>
      <point x="819" y="498"/>
      <point x="832" y="502" type="curve"/>
    </contour>
    <contour>
      <point x="249" y="271" type="line"/>
      <point x="415" y="596" type="line"/>
      <point x="415" y="271" type="line"/>
    </contour>
  </outline>
</glyph>
<glyph name="Ccedilla" format="1">
  <advance width="573"/>
  <unicode hex="00C7"/>
  <outline>
    <contour>
      <point x="257" y="-49" type="line"/>
      <point x="278" y="-73" type="line"/>
      <point x="310" y="-76"/>
      <point x="337" y="-90"/>
      <point x="337" y="-124" type="curve" smooth="yes"/>
      <point x="337" y="-153"/>
      <point x="323" y="-168"/>
      <point x="301" y="-168" type="curve" smooth="yes"/>
      <point x="280" y="-168"/>
      <point x="269" y="-146"/>
      <point x="269" y="-125" type="curve" smooth="yes"/>
      <point x="269" y="-114"/>
      <point x="272" y="-103"/>
      <point x="278" y="-96" type="curve"/>
      <point x="264" y="-89"/>
      <point x="256" y="-87"/>
      <point x="247" y="-87" type="curve" smooth="yes"/>
      <point x="217" y="-87"/>
      <point x="200" y="-108"/>
      <point x="200" y="-130" type="curve" smooth="yes"/>
      <point x="200" y="-166"/>
      <point x="230" y="-210"/>
      <point x="304" y="-210" type="curve" smooth="yes"/>
      <point x="366" y="-210"/>
      <point x="411" y="-170"/>
      <point x="411" y="-118" type="curve" smooth="yes"/>
      <point x="411" y="-71"/>
      <point x="384" y="-51"/>
      <point x="342" y="-39" type="curve"/>
      <point x="347" y="-9" type="line"/>
      <point x="418" y="-5"/>
      <point x="493" y="34"/>
      <point x="553" y="101" type="curve"/>
      <point x="520" y="133" type="line"/>
      <point x="474" y="84"/>
      <point x="421" y="58"/>
      <point x="368" y="58" type="curve" smooth="yes"/>
      <point x="256" y="58"/>
      <point x="212" y="159"/>
      <point x="212" y="342" type="curve" smooth="yes"/>
      <point x="212" y="525"/>
      <point x="250" y="621"/>
      <point x="330" y="621" type="curve" smooth="yes"/>
      <point x="371" y="621"/>
      <point x="398" y="595"/>
      <point x="398" y="555" type="curve" smooth="yes"/>
      <point x="398" y="538"/>
      <point x="392" y="519"/>
      <point x="382" y="502" type="curve"/>
      <point x="395" y="475"/>
      <point x="427" y="456"/>
      <point x="459" y="456" type="curve" smooth="yes"/>
      <point x="504" y="456"/>
      <point x="539" y="494"/>
      <point x="539" y="542" type="curve" smooth="yes"/>
      <point x="539" y="620"/>
      <point x="455" y="674"/>
      <point x="334" y="674" type="curve" smooth="yes"/>
      <point x="145" y="674"/>
      <point x="47" y="556"/>
      <point x="47" y="325" type="curve" smooth="yes"/>
      <point x="47" y="122"/>
      <point x="131" y="9"/>
      <point x="291" y="-7" type="curve"/>
    </contour>
  </outline>
</glyph>
<glyph name="Egrave" format="1">
  <advance width="578"/>
  <unicode hex="00C8"/>
  <outline>
    <contour>
      <point x="527" y="667" type="line"/>
      <point x="41" y="667" type="line"/>
      <point x="38" y="630" type="line"/>
      <point x="62" y="625"/>
      <point x="83" y="615"/>
      <point x="99" y="601" type="curve"/>
      <point x="99" y="66" type="line"/>
      <point x="89" y="55"/>
      <point x="63" y="44"/>
      <point x="42" y="41" type="curve"/>
      <point x="38" y="0" type="line"/>
      <point x="532" y="0" type="line"/>
      <point x="542" y="189" type="line"/>
      <point x="531" y="191"/>
      <point x="520" y="192"/>
      <point x="509" y="192" type="curve" smooth="yes"/>
      <point x="494" y="192"/>
      <point x="482" y="191"/>
      <point x="468" y="189" type="curve"/>
      <point x="458" y="135"/>
      <point x="442" y="93"/>
      <point x="421" y="62" type="curve"/>
      <point x="246" y="62" type="line"/>
      <point x="246" y="318" type="line"/>
      <point x="338" y="310" type="line" smooth="yes"/>
      <point x="361" y="308"/>
      <point x="376" y="290"/>
      <point x="395" y="236" type="curve"/>
      <point x="447" y="236" type="line"/>
      <point x="447" y="443" type="line"/>
      <point x="395" y="443" type="line"/>
      <point x="385" y="404"/>
      <point x="363" y="378"/>
      <point x="339" y="376" type="curve" smooth="yes"/>
      <point x="246" y="369" type="line"/>
      <point x="246" y="606" type="line"/>
      <point x="414" y="606" type="line"/>
      <point x="434" y="579"/>
      <point x="446" y="550"/>
      <point x="457" y="499" type="curve"/>
      <point x="468" y="497"/>
      <point x="479" y="495"/>
      <point x="489" y="495" type="curve" smooth="yes"/>
      <point x="504" y="495"/>
      <point x="518" y="498"/>
      <point x="531" y="502" type="curve"/>
    </contour>
    <contour>
      <point x="332" y="706" type="line"/>
      <point x="366" y="739" type="line"/>
      <point x="286" y="858" type="line" smooth="yes"/>
      <point x="269" y="883"/>
      <point x="247" y="892"/>
      <point x="229" y="892" type="curve" smooth="yes"/>
      <point x="201" y="892"/>
      <point x="182" y="873"/>
      <point x="182" y="845" type="curve"/>
      <point x="183" y="827"/>
      <point x="192" y="805"/>
      <point x="215" y="789" type="curve" smooth="yes"/>
    </contour>
  </outline>
</glyph>
<glyph name="Igrave" format="1">
  <advance width="350"/>
  <unicode hex="00CC"/>
  <outline>
    <contour>
      <point x="25" y="626" type="line"/>
      <point x="53" y="622"/>
      <point x="87" y="610"/>
      <point x="101" y="596" type="curve"/>
      <point x="101" y="71" type="line"/>
      <point x="82" y="55"/>
      <point x="61" y="46"/>
      <point x="29" y="41" type="curve"/>
      <point x="25" y="0" type="line"/>
      <point x="316" y="0" type="line"/>
      <point x="323" y="41" type="line"/>
      <point x="289" y="48"/>
      <point x="263" y="57"/>
      <point x="248" y="71" type="curve"/>
      <point x="248" y="596" type="line"/>
      <point x="268" y="613"/>
      <point x="285" y="620"/>
      <point x="317" y="626" type="curve"/>
      <point x="323" y="667" type="line"/>
      <point x="30" y="667" type="line"/>
    </contour>
    <contour>
      <point x="206" y="706" type="line"/>
      <point x="240" y="739" type="line"/>
      <point x="160" y="858" type="line" smooth="yes"/>
      <point x="143" y="883"/>
      <point x="121" y="892"/>
      <point x="103" y="892" type="curve" smooth="yes"/>
      <point x="75" y="892"/>
      <point x="56" y="873"/>
      <point x="56" y="845" type="curve"/>
      <point x="57" y="827"/>
      <point x="66" y="805"/>
      <point x="89" y="789" type="curve" smooth="yes"/>
    </contour>
  </outline>
</glyph>
<glyph name="Iacute" format="1">
  <advance width="350"/>
  <unicode hex="00CD"/>
  <outline>
    <contour>
      <point x="25" y="626" type="line"/>
      <point x="53" y="622"/>
      <point x="87" y="610"/>
      <point x="101" y="596" type="curve"/>
      <point x="101" y="71" type="line"/>
      <point x="82" y="55"/>
      <point x="61" y="46"/>
      <point x="29" y="41" type="curve"/>
      <point x="25" y="0" type="line"/>
      <point x="316" y="0" type="line"/>
      <point x="323" y="41" type="line"/>
      <point x="289" y="48"/>
      <point x="263" y="57"/>
      <point x="248" y="71" type="curve"/>
      <point x="248" y="596" type="line"/>
      <point x="268" y="613"/>
      <point x="285" y="620"/>
      <point x="317" y="626" type="curve"/>
      <point x="323" y="667" type="line"/>
      <point x="30" y="667" type="line"/>
    </contour>
    <contour>
      <point x="269" y="796" type="line" smooth="yes"/>
      <point x="292" y="812"/>
      <point x="301" y="834"/>
      <point x="301" y="852" type="curve" smooth="yes"/>
      <point x="301" y="880"/>
      <point x="283" y="899"/>
      <point x="255" y="899" type="curve" smooth="yes"/>
      <point x="236" y="899"/>
      <point x="214" y="890"/>
      <point x="198" y="865" type="curve" smooth="yes"/>
      <point x="118" y="746" type="line"/>
      <point x="152" y="713" type="line"/>
    </contour>
  </outline>
</glyph>
<glyph name="Icircumflex" format="1">
  <advance width="350"/>
  <unicode hex="00CE"/>
  <outline>
    <contour>
      <point x="25" y="626" type="line"/>
      <point x="53" y="622"/>
      <point x="87" y="610"/>
      <point x="101" y="596" type="curve"/>
      <point x="101" y="71" type="line"/>
      <point x="82" y="55"/>
      <point x="61" y="46"/>
      <point x="29" y="41" type="curve"/>
      <point x="25" y="0" type="line"/>
      <point x="316" y="0" type="line"/>
      <point x="323" y="41" type="line"/>
      <point x="289" y="48"/>
      <point x="263" y="57"/>
      <point x="248" y="71" type="curve"/>
      <point x="248" y="596" type="line"/>
      <point x="268" y="613"/>
      <point x="285" y="620"/>
      <point x="317" y="626" type="curve"/>
      <point x="323" y="667" type="line"/>
      <point x="30" y="667" type="line"/>
    </contour>
    <contour>
      <point x="300" y="705" type="line"/>
      <point x="329" y="742" type="line"/>
      <point x="234" y="849" type="line" smooth="yes"/>
      <point x="217" y="868"/>
      <point x="205" y="876"/>
      <point x="184" y="876" type="curve" smooth="yes"/>
      <point x="160" y="876"/>
      <point x="143" y="868"/>
      <point x="126" y="849" type="curve" smooth="yes"/>
      <point x="31" y="742" type="line"/>
      <point x="60" y="705" type="line"/>
      <point x="180" y="788" type="line"/>
    </contour>
  </outline>
</glyph>
<glyph name="Idieresis" format="1">
  <advance width="350"/>
  <unicode hex="00CF"/>
  <outline>
    <contour>
      <point x="25" y="626" type="line"/>
      <point x="53" y="622"/>
      <point x="87" y="610"/>
      <point x="101" y="596" type="curve"/>
      <point x="101" y="71" type="line"/>
      <point x="82" y="55"/>
      <point x="61" y="46"/>
      <point x="29" y="41" type="curve"/>
      <point x="25" y="0" type="line"/>
      <point x="316" y="0" type="line"/>
      <point x="323" y="41" type="line"/>
      <point x="289" y="48"/>
      <point x="263" y="57"/>
      <point x="248" y="71" type="curve"/>
      <point x="248" y="596" type="line"/>
      <point x="268" y="613"/>
      <point x="285" y="620"/>
      <point x="317" y="626" type="curve"/>
      <point x="323" y="667" type="line"/>
      <point x="30" y="667" type="line"/>
    </contour>
    <contour>
      <point x="98" y="717" type="curve" smooth="yes"/>
      <point x="141" y="717"/>
      <point x="164" y="737"/>
      <point x="164" y="774" type="curve" smooth="yes"/>
      <point x="164" y="809"/>
      <point x="141" y="829"/>
      <point x="98" y="829" type="curve" smooth="yes"/>
      <point x="52" y="829"/>
      <point x="33" y="809"/>
      <point x="33" y="774" type="curve" smooth="yes"/>
      <point x="33" y="737"/>
      <point x="52" y="717"/>
    </contour>
    <contour>
      <point x="261" y="717" type="curve" smooth="yes"/>
      <point x="305" y="717"/>
      <point x="328" y="737"/>
      <point x="328" y="774" type="curve" smooth="yes"/>
      <point x="328" y="809"/>
      <point x="305" y="829"/>
      <point x="261" y="829" type="curve" smooth="yes"/>
      <point x="216" y="829"/>
      <point x="196" y="809"/>
      <point x="196" y="774" type="curve" smooth="yes"/>
      <point x="196" y="737"/>
      <point x="216" y="717"/>
    </contour>
  </outline>
</glyph>
<glyph name="Ntilde" format="1">
  <advance width="679"/>
  <unicode hex="00D1"/>
  <outline>
    <contour>
      <point x="662" y="667" type="line"/>
      <point x="444" y="667" type="line"/>
      <point x="439" y="626" type="line"/>
      <point x="471" y="620"/>
      <point x="488" y="613"/>
      <point x="508" y="596" type="curve"/>
      <point x="508" y="183" type="line"/>
      <point x="232" y="667" type="line"/>
      <point x="35" y="667" type="line"/>
      <point x="31" y="628" type="line"/>
      <point x="57" y="619"/>
      <point x="77" y="609"/>
      <point x="92" y="596" type="curve"/>
      <point x="92" y="71" type="line"/>
      <point x="74" y="53"/>
      <point x="61" y="46"/>
      <point x="35" y="41" type="curve"/>
      <point x="31" y="0" type="line"/>
      <point x="247" y="0" type="line"/>
      <point x="254" y="39" type="line"/>
      <point x="220" y="46"/>
      <point x="194" y="57"/>
      <point x="179" y="71" type="curve"/>
      <point x="179" y="460" type="line"/>
      <point x="443" y="0" type="line"/>
      <point x="595" y="0" type="line"/>
      <point x="595" y="596" type="line"/>
      <point x="611" y="610"/>
      <point x="631" y="620"/>
      <point x="656" y="628" type="curve"/>
    </contour>
    <contour>
      <point x="410" y="813" type="curve" smooth="yes"/>
      <point x="369" y="813"/>
      <point x="327" y="853"/>
      <point x="286" y="853" type="curve" smooth="yes"/>
      <point x="239" y="853"/>
      <point x="200" y="815"/>
      <point x="174" y="759" type="curve"/>
      <point x="187" y="744"/>
      <point x="209" y="732"/>
      <point x="222" y="727" type="curve"/>
      <point x="240" y="751"/>
      <point x="261" y="765"/>
      <point x="281" y="765" type="curve" smooth="yes"/>
      <point x="322" y="765"/>
      <point x="365" y="726"/>
      <point x="406" y="726" type="curve" smooth="yes"/>
      <point x="453" y="726"/>
      <point x="491" y="765"/>
      <point x="517" y="821" type="curve"/>
      <point x="504" y="835"/>
      <point x="482" y="847"/>
      <point x="469" y="852" type="curve"/>
      <point x="452" y="829"/>
      <point x="430" y="813"/>
    </contour>
  </outline>
</glyph>
<glyph name="Ograve" format="1">
  <advance width="695"/>
  <unicode hex="00D2"/>
  <outline>
    <contour>
      <point x="214" y="335" type="curve" smooth="yes"/>
      <point x="214" y="537"/>
      <point x="253" y="620"/>
      <point x="348" y="620" type="curve" smooth="yes"/>
      <point x="442" y="620"/>
      <point x="480" y="537"/>
      <point x="480" y="335" type="curve" smooth="yes"/>
      <point x="480" y="131"/>
      <point x="442" y="48"/>
      <point x="348" y="48" type="curve" smooth="yes"/>
      <point x="253" y="48"/>
      <point x="214" y="131"/>
    </contour>
    <contour>
      <point x="49" y="335" type="curve" smooth="yes"/>
      <point x="49" y="111"/>
      <point x="150" y="-10"/>
      <point x="348" y="-10" type="curve" smooth="yes"/>
      <point x="547" y="-10"/>
      <point x="646" y="111"/>
      <point x="646" y="335" type="curve" smooth="yes"/>
      <point x="646" y="558"/>
      <point x="547" y="678"/>
      <point x="348" y="678" type="curve" smooth="yes"/>
      <point x="150" y="678"/>
      <point x="49" y="558"/>
    </contour>
    <contour>
      <point x="373" y="706" type="line"/>
      <point x="407" y="739" type="line"/>
      <point x="327" y="858" type="line" smooth="yes"/>
      <point x="310" y="883"/>
      <point x="288" y="892"/>
      <point x="270" y="892" type="curve" smooth="yes"/>
      <point x="242" y="892"/>
      <point x="223" y="873"/>
      <point x="223" y="845" type="curve"/>
      <point x="224" y="827"/>
      <point x="233" y="805"/>
      <point x="256" y="789" type="curve" smooth="yes"/>
    </contour>
  </outline>
</glyph>
<glyph name="Oacute" format="1">
  <advance width="695"/>
  <unicode hex="00D3"/>
  <outline>
    <contour>
      <point x="214" y="335" type="curve" smooth="yes"/>
      <point x="214" y="537"/>
      <point x="253" y="620"/>
      <point x="348" y="620" type="curve" smooth="yes"/>
      <point x="442" y="620"/>
      <point x="480" y="537"/>
      <point x="480" y="335" type="curve" smooth="yes"/>
      <point x="480" y="131"/>
      <point x="442" y="48"/>
      <point x="348" y="48" type="curve" smooth="yes"/>
      <point x="253" y="48"/>
      <point x="214" y="131"/>
    </contour>
    <contour>
      <point x="49" y="335" type="curve" smooth="yes"/>
      <point x="49" y="111"/>
      <point x="150" y="-10"/>
      <point x="348" y="-10" type="curve" smooth="yes"/>
      <point x="547" y="-10"/>
      <point x="646" y="111"/>
      <point x="646" y="335" type="curve" smooth="yes"/>
      <point x="646" y="558"/>
      <point x="547" y="678"/>
      <point x="348" y="678" type="curve" smooth="yes"/>
      <point x="150" y="678"/>
      <point x="49" y="558"/>
    </contour>
    <contour>
      <point x="436" y="796" type="line" smooth="yes"/>
      <point x="459" y="812"/>
      <point x="468" y="834"/>
      <point x="468" y="852" type="curve" smooth="yes"/>
      <point x="468" y="880"/>
      <point x="450" y="899"/>
      <point x="422" y="899" type="curve" smooth="yes"/>
      <point x="403" y="899"/>
      <point x="381" y="890"/>
      <point x="365" y="865" type="curve" smooth="yes"/>
      <point x="285" y="746" type="line"/>
      <point x="319" y="713" type="line"/>
    </contour>
  </outline>
</glyph>
<glyph name="Otilde" format="1">
  <advance width="695"/>
  <unicode hex="00D5"/>
  <outline>
    <contour>
      <point x="214" y="335" type="curve" smooth="yes"/>
      <point x="214" y="537"/>
      <point x="253" y="620"/>
      <point x="348" y="620" type="curve" smooth="yes"/>
      <point x="442" y="620"/>
      <point x="480" y="537"/>
      <point x="480" y="335" type="curve" smooth="yes"/>
      <point x="480" y="131"/>
      <point x="442" y="48"/>
      <point x="348" y="48" type="curve" smooth="yes"/>
      <point x="253" y="48"/>
      <point x="214" y="131"/>
    </contour>
    <contour>
      <point x="49" y="335" type="curve" smooth="yes"/>
      <point x="49" y="111"/>
      <point x="150" y="-10"/>
      <point x="348" y="-10" type="curve" smooth="yes"/>
      <point x="547" y="-10"/>
      <point x="646" y="111"/>
      <point x="646" y="335" type="curve" smooth="yes"/>
      <point x="646" y="558"/>
      <point x="547" y="678"/>
      <point x="348" y="678" type="curve" smooth="yes"/>
      <point x="150" y="678"/>
      <point x="49" y="558"/>
    </contour>
    <contour>
      <point x="413" y="813" type="curve" smooth="yes"/>
      <point x="372" y="813"/>
      <point x="330" y="853"/>
      <point x="289" y="853" type="curve" smooth="yes"/>
      <point x="242" y="853"/>
      <point x="203" y="815"/>
      <point x="177" y="759" type="curve"/>
      <point x="190" y="744"/>
      <point x="212" y="732"/>
      <point x="225" y="727" type="curve"/>
      <point x="243" y="751"/>
      <point x="264" y="765"/>
      <point x="284" y="765" type="curve" smooth="yes"/>
      <point x="325" y="765"/>
      <point x="368" y="726"/>
      <point x="409" y="726" type="curve" smooth="yes"/>
      <point x="456" y="726"/>
      <point x="494" y="765"/>
      <point x="520" y="821" type="curve"/>
      <point x="507" y="835"/>
      <point x="485" y="847"/>
      <point x="472" y="852" type="curve"/>
      <point x="455" y="829"/>
      <point x="433" y="813"/>
    </contour>
  </outline>
</glyph>
<glyph name="Odieresis" format="1">
  <advance width="695"/>
  <unicode hex="00D6"/>
  <outline>
    <contour>
      <point x="214" y="335" type="curve" smooth="yes"/>
      <point x="214" y="537"/>
      <point x="253" y="620"/>
      <point x="348" y="620" type="curve" smooth="yes"/>
      <point x="442" y="620"/>
      <point x="480" y="537"/>
      <point x="480" y="335" type="curve" smooth="yes"/>
      <point x="480" y="131"/>
      <point x="442" y="48"/>
      <point x="348" y="48" type="curve" smooth="yes"/>
      <point x="253" y="48"/>
      <point x="214" y="131"/>
    </contour>
    <contour>
      <point x="49" y="335" type="curve" smooth="yes"/>
      <point x="49" y="111"/>
      <point x="150" y="-10"/>
      <point x="348" y="-10" type="curve" smooth="yes"/>
      <point x="547" y="-10"/>
      <point x="646" y="111"/>
      <point x="646" y="335" type="curve" smooth="yes"/>
      <point x="646" y="558"/>
      <point x="547" y="678"/>
      <point x="348" y="678" type="curve" smooth="yes"/>
      <point x="150" y="678"/>
      <point x="49" y="558"/>
    </contour>
    <contour>
      <point x="265" y="717" type="curve" smooth="yes"/>
      <point x="308" y="717"/>
      <point x="331" y="737"/>
      <point x="331" y="774" type="curve" smooth="yes"/>
      <point x="331" y="809"/>
      <point x="308" y="829"/>
      <point x="265" y="829" type="curve" smooth="yes"/>
      <point x="219" y="829"/>
      <point x="200" y="809"/>
      <point x="200" y="774" type="curve" smooth="yes"/>
      <point x="200" y="737"/>
      <point x="219" y="717"/>
    </contour>
    <contour>
      <point x="428" y="717" type="curve" smooth="yes"/>
      <point x="472" y="717"/>
      <point x="495" y="737"/>
      <point x="495" y="774" type="curve" smooth="yes"/>
      <point x="495" y="809"/>
      <point x="472" y="829"/>
      <point x="428" y="829" type="curve" smooth="yes"/>
      <point x="383" y="829"/>
      <point x="363" y="809"/>
      <point x="363" y="774" type="curve" smooth="yes"/>
      <point x="363" y="737"/>
      <point x="383" y="717"/>
    </contour>
  </outline>
</glyph>
<glyph name="multiply" format="1">
  <advance width="592"/>
  <unicode hex="00D7"/>
  <outline>
    <contour>
      <point x="76" y="441" type="line"/>
      <point x="225" y="290" type="line"/>
      <point x="77" y="142" type="line"/>
      <point x="144" y="75" type="line"/>
      <point x="292" y="223" type="line"/>
      <point x="445" y="69" type="line"/>
      <point x="516" y="140" type="line"/>
      <point x="363" y="294" type="line"/>
      <point x="514" y="444" type="line"/>
      <point x="447" y="511" type="line"/>
      <point x="297" y="361" type="line"/>
      <point x="147" y="512" type="line"/>
    </contour>
  </outline>
</glyph>
<glyph name="Oslash" format="1">
  <advance width="695"/>
  <unicode hex="00D8"/>
  <outline>
    <contour>
      <point x="49" y="335" type="curve" smooth="yes"/>
      <point x="49" y="230"/>
      <point x="71" y="148"/>
      <point x="114" y="90" type="curve"/>
      <point x="53" y="7" type="line"/>
      <point x="117" y="-41" type="line"/>
      <point x="173" y="35" type="line"/>
      <point x="219" y="5"/>
      <point x="277" y="-10"/>
      <point x="348" y="-10" type="curve" smooth="yes"/>
      <point x="547" y="-10"/>
      <point x="646" y="111"/>
      <point x="646" y="335" type="curve" smooth="yes"/>
      <point x="646" y="442"/>
      <point x="623" y="525"/>
      <point x="577" y="583" type="curve"/>
      <point x="626" y="649" type="line"/>
      <point x="562" y="697" type="line"/>
      <point x="517" y="636" type="line"/>
      <point x="472" y="663"/>
      <point x="416" y="678"/>
      <point x="348" y="678" type="curve" smooth="yes"/>
      <point x="150" y="678"/>
      <point x="49" y="558"/>
    </contour>
    <contour>
      <point x="480" y="335" type="curve" smooth="yes"/>
      <point x="480" y="131"/>
      <point x="442" y="48"/>
      <point x="348" y="48" type="curve" smooth="yes"/>
      <point x="297" y="48"/>
      <point x="262" y="72"/>
      <point x="240" y="126" type="curve"/>
      <point x="475" y="444" type="line"/>
      <point x="478" y="412"/>
      <point x="480" y="376"/>
    </contour>
    <contour>
      <point x="214" y="335" type="curve" smooth="yes"/>
      <point x="214" y="537"/>
      <point x="253" y="620"/>
      <point x="348" y="620" type="curve" smooth="yes"/>
      <point x="397" y="620"/>
      <point x="431" y="597"/>
      <point x="452" y="547" type="curve"/>
      <point x="218" y="231" type="line"/>
      <point x="215" y="261"/>
      <point x="214" y="296"/>
    </contour>
  </outline>
</glyph>
<glyph name="Ugrave" format="1">
  <advance width="676"/>
  <unicode hex="00D9"/>
  <outline>
    <contour>
      <point x="2" y="626" type="line"/>
      <point x="32" y="621"/>
      <point x="65" y="609"/>
      <point x="78" y="596" type="curve"/>
      <point x="78" y="208" type="line" smooth="yes"/>
      <point x="78" y="64"/>
      <point x="166" y="-7"/>
      <point x="344" y="-7" type="curve" smooth="yes"/>
      <point x="397" y="-7"/>
      <point x="444" y="3"/>
      <point x="479" y="19" type="curve" smooth="yes"/>
      <point x="564" y="58"/>
      <point x="589" y="125"/>
      <point x="589" y="245" type="curve" smooth="yes"/>
      <point x="589" y="596" type="line"/>
      <point x="605" y="609"/>
      <point x="626" y="619"/>
      <point x="655" y="628" type="curve"/>
      <point x="661" y="667" type="line"/>
      <point x="423" y="667" type="line"/>
      <point x="418" y="626" type="line"/>
      <point x="449" y="619"/>
      <point x="475" y="613"/>
      <point x="494" y="598" type="curve"/>
      <point x="494" y="223" type="line" smooth="yes"/>
      <point x="494" y="132"/>
      <point x="465" y="60"/>
      <point x="365" y="60" type="curve" smooth="yes"/>
      <point x="268" y="60"/>
      <point x="225" y="111"/>
      <point x="225" y="208" type="curve" smooth="yes"/>
      <point x="225" y="596" type="line"/>
      <point x="244" y="612"/>
      <point x="260" y="619"/>
      <point x="294" y="626" type="curve"/>
      <point x="300" y="667" type="line"/>
      <point x="7" y="667" type="line"/>
    </contour>
    <contour>
      <point x="368" y="706" type="line"/>
      <point x="402" y="739" type="line"/>
      <point x="322" y="858" type="line" smooth="yes"/>
      <point x="305" y="883"/>
      <point x="283" y="892"/>
      <point x="265" y="892" type="curve" smooth="yes"/>
      <point x="237" y="892"/>
      <point x="218" y="873"/>
      <point x="218" y="845" type="curve"/>
      <point x="219" y="827"/>
      <point x="228" y="805"/>
      <point x="251" y="789" type="curve" smooth="yes"/>
    </contour>
  </outline>
</glyph>
<glyph name="Yacute" format="1">
  <advance width="604"/>
  <unicode hex="00DD"/>
  <outline>
    <contour>
      <point x="442" y="39" type="line"/>
      <point x="408" y="46"/>
      <point x="382" y="57"/>
      <point x="367" y="71" type="curve"/>
      <point x="367" y="268" type="line"/>
      <point x="538" y="605" type="line"/>
      <point x="550" y="620"/>
      <point x="573" y="626"/>
      <point x="598" y="627" type="curve"/>
      <point x="603" y="667" type="line"/>
      <point x="379" y="667" type="line"/>
      <point x="374" y="627" type="line"/>
      <point x="405" y="623"/>
      <point x="436" y="613"/>
      <point x="454" y="597" type="curve"/>
      <point x="332" y="357" type="line"/>
      <point x="213" y="605" type="line"/>
      <point x="228" y="620"/>
      <point x="248" y="626"/>
      <point x="275" y="627" type="curve"/>
      <point x="281" y="667" type="line"/>
      <point x="10" y="667" type="line"/>
      <point x="5" y="627" type="line"/>
      <point x="28" y="622"/>
      <point x="53" y="615"/>
      <point x="65" y="593" type="curve"/>
      <point x="67" y="590" type="line"/>
      <point x="68" y="588"/>
      <point x="68" y="586"/>
      <point x="69" y="585" type="curve"/>
      <point x="220" y="269" type="line"/>
      <point x="220" y="66" type="line"/>
      <point x="210" y="55"/>
      <point x="184" y="44"/>
      <point x="163" y="41" type="curve"/>
      <point x="159" y="0" type="line"/>
      <point x="435" y="0" type="line"/>
    </contour>
    <contour>
      <point x="413" y="796" type="line" smooth="yes"/>
      <point x="436" y="812"/>
      <point x="445" y="834"/>
      <point x="445" y="852" type="curve" smooth="yes"/>
      <point x="445" y="880"/>
      <point x="427" y="899"/>
      <point x="399" y="899" type="curve" smooth="yes"/>
      <point x="380" y="899"/>
      <point x="358" y="890"/>
      <point x="342" y="865" type="curve" smooth="yes"/>
      <point x="262" y="746" type="line"/>
      <point x="296" y="713" type="line"/>
    </contour>
  </outline>
</glyph>
<glyph name="Thorn" format="1">
  <advance width="617"/>
  <unicode hex="00DE"/>
  <outline>
    <contour>
      <point x="25" y="626" type="line"/>
      <point x="53" y="622"/>
      <point x="87" y="610"/>
      <point x="101" y="596" type="curve"/>
      <point x="101" y="71" type="line"/>
      <point x="82" y="55"/>
      <point x="61" y="46"/>
      <point x="29" y="41" type="curve"/>
      <point x="25" y="0" type="line"/>
      <point x="316" y="0" type="line"/>
      <point x="323" y="41" type="line"/>
      <point x="289" y="48"/>
      <point x="263" y="57"/>
      <point x="248" y="71" type="curve"/>
      <point x="248" y="150" type="line"/>
      <point x="312" y="150" type="line" smooth="yes"/>
      <point x="489" y="150"/>
      <point x="587" y="221"/>
      <point x="587" y="351" type="curve" smooth="yes"/>
      <point x="587" y="475"/>
      <point x="500" y="537"/>
      <point x="326" y="537" type="curve" smooth="yes"/>
      <point x="248" y="537" type="line"/>
      <point x="248" y="596" type="line"/>
      <point x="268" y="613"/>
      <point x="285" y="620"/>
      <point x="317" y="626" type="curve"/>
      <point x="323" y="667" type="line"/>
      <point x="30" y="667" type="line"/>
    </contour>
    <contour>
      <point x="248" y="213" type="line"/>
      <point x="248" y="472" type="line"/>
      <point x="267" y="475"/>
      <point x="285" y="476"/>
      <point x="313" y="476" type="curve" smooth="yes"/>
      <point x="388" y="476"/>
      <point x="432" y="430"/>
      <point x="432" y="349" type="curve" smooth="yes"/>
      <point x="432" y="259"/>
      <point x="391" y="213"/>
      <point x="313" y="213" type="curve" smooth="yes"/>
    </contour>
  </outline>
</glyph>
<glyph name="germandbls" format="1">
  <advance width="677"/>
  <unicode hex="00DF"/>
  <outline>
    <contour>
      <point x="431" y="-5" type="curve" smooth="yes"/>
      <point x="545" y="-5"/>
      <point x="636" y="70"/>
      <point x="636" y="172" type="curve" smooth="yes"/>
      <point x="636" y="270"/>
      <point x="540" y="344"/>
      <point x="388" y="371" type="curve"/>
      <point x="484" y="406"/>
      <point x="551" y="471"/>
      <point x="551" y="535" type="curve" smooth="yes"/>
      <point x="551" y="642"/>
      <point x="453" y="686"/>
      <point x="320" y="686" type="curve" smooth="yes"/>
      <point x="176" y="686"/>
      <point x="84" y="629"/>
      <point x="84" y="515" type="curve" smooth="yes"/>
      <point x="84" y="62" type="line"/>
      <point x="65" y="46"/>
      <point x="49" y="41"/>
      <point x="18" y="36" type="curve"/>
      <point x="14" y="0" type="line"/>
      <point x="224" y="0" type="line"/>
      <point x="224" y="470" type="line" smooth="yes"/>
      <point x="224" y="553"/>
      <point x="228" y="632"/>
      <point x="316" y="632" type="curve" smooth="yes"/>
      <point x="375" y="632"/>
      <point x="403" y="595"/>
      <point x="403" y="538" type="curve" smooth="yes"/>
      <point x="403" y="478"/>
      <point x="347" y="412"/>
      <point x="293" y="401" type="curve"/>
      <point x="293" y="328" type="line"/>
      <point x="432" y="311"/>
      <point x="489" y="264"/>
      <point x="489" y="171" type="curve" smooth="yes"/>
      <point x="489" y="90"/>
      <point x="466" y="48"/>
      <point x="423" y="48" type="curve" smooth="yes"/>
      <point x="397" y="48"/>
      <point x="373" y="65"/>
      <point x="373" y="96" type="curve" smooth="yes"/>
      <point x="373" y="110"/>
      <point x="376" y="124"/>
      <point x="386" y="134" type="curve"/>
      <point x="370" y="147"/>
      <point x="353" y="154"/>
      <point x="335" y="154" type="curve" smooth="yes"/>
      <point x="300" y="154"/>
      <point x="268" y="130"/>
      <point x="268" y="87" type="curve" smooth="yes"/>
      <point x="268" y="24"/>
      <point x="326" y="-5"/>
    </contour>
  </outline>
</glyph>
<glyph name="atilde" format="1">
  <advance width="535"/>
  <unicode hex="00E3"/>
  <outline>
    <contour>
      <point x="515" y="35" type="line"/>
      <point x="489" y="40"/>
      <point x="464" y="52"/>
      <point x="455" y="62" type="curve"/>
      <point x="455" y="334" type="line" smooth="yes"/>
      <point x="455" y="438"/>
      <point x="382" y="492"/>
      <point x="240" y="492" type="curve" smooth="yes"/>
      <point x="122" y="492"/>
      <point x="50" y="449"/>
      <point x="50" y="378" type="curve" smooth="yes"/>
      <point x="50" y="336"/>
      <point x="83" y="305"/>
      <point x="127" y="305" type="curve" smooth="yes"/>
      <point x="163" y="305"/>
      <point x="190" y="327"/>
      <point x="197" y="360" type="curve"/>
      <point x="183" y="371"/>
      <point x="175" y="386"/>
      <point x="175" y="402" type="curve" smooth="yes"/>
      <point x="175" y="431"/>
      <point x="203" y="453"/>
      <point x="240" y="453" type="curve" smooth="yes"/>
      <point x="295" y="453"/>
      <point x="314" y="422"/>
      <point x="314" y="329" type="curve" smooth="yes"/>
      <point x="314" y="271" type="line"/>
      <point x="226" y="265" type="line" smooth="yes"/>
      <point x="96" y="256"/>
      <point x="29" y="205"/>
      <point x="29" y="118" type="curve" smooth="yes"/>
      <point x="29" y="37"/>
      <point x="80" y="-7"/>
      <point x="172" y="-7" type="curve" smooth="yes"/>
      <point x="230" y="-7"/>
      <point x="277" y="13"/>
      <point x="321" y="57" type="curve"/>
      <point x="331" y="0" type="line"/>
      <point x="511" y="0" type="line"/>
    </contour>
    <contour>
      <point x="161" y="129" type="curve" smooth="yes"/>
      <point x="161" y="186"/>
      <point x="191" y="212"/>
      <point x="264" y="218" type="curve" smooth="yes"/>
      <point x="314" y="222" type="line"/>
      <point x="314" y="113" type="line"/>
      <point x="281" y="74"/>
      <point x="251" y="58"/>
      <point x="221" y="58" type="curve" smooth="yes"/>
      <point x="183" y="58"/>
      <point x="161" y="84"/>
    </contour>
    <contour>
      <point x="328" y="623" type="curve" smooth="yes"/>
      <point x="287" y="623"/>
      <point x="245" y="663"/>
      <point x="204" y="663" type="curve" smooth="yes"/>
      <point x="157" y="663"/>
      <point x="118" y="625"/>
      <point x="92" y="569" type="curve"/>
      <point x="105" y="554"/>
      <point x="127" y="542"/>
      <point x="140" y="537" type="curve"/>
      <point x="158" y="561"/>
      <point x="179" y="575"/>
      <point x="199" y="575" type="curve" smooth="yes"/>
      <point x="240" y="575"/>
      <point x="283" y="536"/>
      <point x="324" y="536" type="curve" smooth="yes"/>
      <point x="371" y="536"/>
      <point x="409" y="575"/>
      <point x="435" y="631" type="curve"/>
      <point x="422" y="645"/>
      <point x="400" y="657"/>
      <point x="387" y="662" type="curve"/>
      <point x="370" y="639"/>
      <point x="348" y="623"/>
    </contour>
  </outline>
</glyph>
<glyph name="ccedilla" format="1">
  <advance width="469"/>
  <unicode hex="00E7"/>
  <outline>
    <contour>
      <point x="202" y="-49" type="line"/>
      <point x="223" y="-73" type="line"/>
      <point x="255" y="-76"/>
      <point x="282" y="-90"/>
      <point x="282" y="-124" type="curve" smooth="yes"/>
      <point x="282" y="-153"/>
      <point x="268" y="-168"/>
      <point x="246" y="-168" type="curve" smooth="yes"/>
      <point x="225" y="-168"/>
      <point x="214" y="-146"/>
      <point x="214" y="-125" type="curve" smooth="yes"/>
      <point x="214" y="-114"/>
      <point x="217" y="-103"/>
      <point x="223" y="-96" type="curve"/>
      <point x="209" y="-89"/>
      <point x="201" y="-87"/>
      <point x="192" y="-87" type="curve" smooth="yes"/>
      <point x="162" y="-87"/>
      <point x="145" y="-108"/>
      <point x="145" y="-130" type="curve" smooth="yes"/>
      <point x="145" y="-166"/>
      <point x="175" y="-210"/>
      <point x="249" y="-210" type="curve" smooth="yes"/>
      <point x="311" y="-210"/>
      <point x="356" y="-170"/>
      <point x="356" y="-118" type="curve" smooth="yes"/>
      <point x="356" y="-71"/>
      <point x="329" y="-51"/>
      <point x="287" y="-39" type="curve"/>
      <point x="292" y="-7" type="line"/>
      <point x="357" y="-4"/>
      <point x="421" y="23"/>
      <point x="464" y="68" type="curve"/>
      <point x="428" y="104" type="line"/>
      <point x="390" y="69"/>
      <point x="348" y="51"/>
      <point x="306" y="51" type="curve" smooth="yes"/>
      <point x="223" y="51"/>
      <point x="191" y="106"/>
      <point x="191" y="248" type="curve" smooth="yes"/>
      <point x="191" y="377"/>
      <point x="218" y="443"/>
      <point x="271" y="443" type="curve" smooth="yes"/>
      <point x="299" y="443"/>
      <point x="320" y="425"/>
      <point x="320" y="400" type="curve" smooth="yes"/>
      <point x="320" y="386"/>
      <point x="316" y="372"/>
      <point x="308" y="360" type="curve"/>
      <point x="316" y="336"/>
      <point x="345" y="318"/>
      <point x="376" y="318" type="curve" smooth="yes"/>
      <point x="420" y="318"/>
      <point x="454" y="348"/>
      <point x="454" y="387" type="curve" smooth="yes"/>
      <point x="454" y="447"/>
      <point x="383" y="489"/>
      <point x="280" y="489" type="curve" smooth="yes"/>
      <point x="126" y="489"/>
      <point x="44" y="401"/>
      <point x="44" y="236" type="curve" smooth="yes"/>
      <point x="44" y="92"/>
      <point x="110" y="9"/>
      <point x="239" y="-4" type="curve"/>
    </contour>
  </outline>
</glyph>
<glyph name="egrave" format="1">
  <advance width="531"/>
  <unicode hex="00E8"/>
  <outline>
    <contour>
      <point x="496" y="285" type="line"/>
      <point x="489" y="413"/>
      <point x="442" y="492"/>
      <point x="284" y="492" type="curve" smooth="yes"/>
      <point x="125" y="492"/>
      <point x="43" y="393"/>
      <point x="43" y="238" type="curve" smooth="yes"/>
      <point x="43" y="91"/>
      <point x="116" y="-7"/>
      <point x="276" y="-7" type="curve" smooth="yes"/>
      <point x="381" y="-7"/>
      <point x="432" y="32"/>
      <point x="478" y="78" type="curve"/>
      <point x="438" y="117" type="line"/>
      <point x="400" y="78"/>
      <point x="348" y="62"/>
      <point x="300" y="62" type="curve" smooth="yes"/>
      <point x="207" y="62"/>
      <point x="186" y="123"/>
      <point x="186" y="227" type="curve" smooth="yes"/>
      <point x="186" y="243" type="line"/>
      <point x="468" y="243" type="line"/>
    </contour>
    <contour>
      <point x="280" y="443" type="curve" smooth="yes"/>
      <point x="338" y="443"/>
      <point x="354" y="393"/>
      <point x="354" y="291" type="curve"/>
      <point x="354" y="291"/>
      <point x="258" y="285"/>
      <point x="186" y="283" type="curve"/>
      <point x="188" y="376"/>
      <point x="212" y="443"/>
    </contour>
    <contour>
      <point x="315" y="516" type="line"/>
      <point x="349" y="549" type="line"/>
      <point x="269" y="668" type="line" smooth="yes"/>
      <point x="252" y="693"/>
      <point x="230" y="702"/>
      <point x="212" y="702" type="curve" smooth="yes"/>
      <point x="184" y="702"/>
      <point x="165" y="683"/>
      <point x="165" y="655" type="curve"/>
      <point x="166" y="637"/>
      <point x="175" y="615"/>
      <point x="198" y="599" type="curve" smooth="yes"/>
    </contour>
  </outline>
</glyph>
<glyph name="eacute" format="1">
  <advance width="531"/>
  <unicode hex="00E9"/>
  <outline>
    <contour>
      <point x="496" y="285" type="line"/>
      <point x="489" y="413"/>
      <point x="442" y="492"/>
      <point x="284" y="492" type="curve" smooth="yes"/>
      <point x="125" y="492"/>
      <point x="43" y="393"/>
      <point x="43" y="238" type="curve" smooth="yes"/>
      <point x="43" y="91"/>
      <point x="116" y="-7"/>
      <point x="276" y="-7" type="curve" smooth="yes"/>
      <point x="381" y="-7"/>
      <point x="432" y="32"/>
      <point x="478" y="78" type="curve"/>
      <point x="438" y="117" type="line"/>
      <point x="400" y="78"/>
      <point x="348" y="62"/>
      <point x="300" y="62" type="curve" smooth="yes"/>
      <point x="207" y="62"/>
      <point x="186" y="123"/>
      <point x="186" y="227" type="curve" smooth="yes"/>
      <point x="186" y="243" type="line"/>
      <point x="468" y="243" type="line"/>
    </contour>
    <contour>
      <point x="280" y="443" type="curve" smooth="yes"/>
      <point x="338" y="443"/>
      <point x="354" y="393"/>
      <point x="354" y="291" type="curve"/>
      <point x="354" y="291"/>
      <point x="258" y="285"/>
      <point x="186" y="283" type="curve"/>
      <point x="188" y="376"/>
      <point x="212" y="443"/>
    </contour>
    <contour>
      <point x="378" y="606" type="line" smooth="yes"/>
      <point x="401" y="622"/>
      <point x="410" y="644"/>
      <point x="410" y="662" type="curve" smooth="yes"/>
      <point x="410" y="690"/>
      <point x="392" y="709"/>
      <point x="364" y="709" type="curve" smooth="yes"/>
      <point x="345" y="709"/>
      <point x="323" y="700"/>
      <point x="307" y="675" type="curve" smooth="yes"/>
      <point x="227" y="556" type="line"/>
      <point x="261" y="523" type="line"/>
    </contour>
  </outline>
</glyph>
